<?xml version="1.0" encoding="UTF-8" standalone="no"?>
<!-- Created with Inkscape (http://www.inkscape.org/) -->

<svg
   version="1.1"
   id="svg1"
   width="1024"
   height="511.9996"
   viewBox="0 0 1024 511.99955"
   sodipodi:docname="lcapy-gui_wide.svg"
   inkscape:version="1.3 (0e150ed6c4, 2023-07-21)"
   xmlns:inkscape="http://www.inkscape.org/namespaces/inkscape"
   xmlns:sodipodi="http://sodipodi.sourceforge.net/DTD/sodipodi-0.dtd"
   xmlns="http://www.w3.org/2000/svg"
   xmlns:svg="http://www.w3.org/2000/svg">
  <defs
     id="defs1">
    <inkscape:path-effect
       effect="fillet_chamfer"
       id="path-effect51"
       is_visible="true"
       lpeversion="1"
       nodesatellites_param="F,0,0,1,0,28,0,1 @ F,0,0,1,0,28,0,1 @ F,0,0,1,0,28,0,1 @ F,0,0,1,0,28,0,1"
       radius="28"
       unit="px"
       method="auto"
       mode="F"
       chamfer_steps="1"
       flexible="false"
       use_knot_distance="true"
       apply_no_radius="true"
       apply_with_radius="true"
       only_selected="false"
       hide_knots="false" />
    <inkscape:path-effect
       effect="fillet_chamfer"
       id="path-effect50"
       is_visible="true"
       lpeversion="1"
       nodesatellites_param="F,0,0,1,0,10,0,1 @ F,0,0,1,0,10,0,1 @ F,0,0,1,0,10,0,1 @ F,0,0,1,0,10,0,1"
       radius="10"
       unit="px"
       method="auto"
       mode="F"
       chamfer_steps="1"
       flexible="false"
       use_knot_distance="true"
       apply_no_radius="true"
       apply_with_radius="true"
       only_selected="false"
       hide_knots="false" />
    <clipPath
       clipPathUnits="userSpaceOnUse"
       id="clipPath25">
      <rect
         style="fill:#ff0000;stroke:none;stroke-width:3;stroke-linecap:square;stroke-linejoin:miter;paint-order:stroke markers fill;stop-color:#000000"
         id="rect25-8"
         width="78"
         height="45.033199"
         x="763.61322"
         y="452.82422" />
    </clipPath>
    <clipPath
       clipPathUnits="userSpaceOnUse"
       id="clipPath27">
      <rect
         style="fill:none;stroke:#000000;stroke-width:0.999999;stroke-linecap:butt;stroke-linejoin:bevel;paint-order:stroke markers fill;stop-color:#000000"
         id="rect28-6"
         width="46.160622"
         height="39.922417"
         x="86.574379"
         y="420.06253" />
    </clipPath>
    <clipPath
       clipPathUnits="userSpaceOnUse"
       id="clipPath24">
      <rect
         style="fill:none;stroke:#000000;stroke-width:0.999999;stroke-linecap:butt;stroke-linejoin:bevel;paint-order:stroke markers fill;stop-color:#000000"
         id="rect38"
         width="44.999748"
         height="77.937294"
         x="251.53429"
         y="222.73541" />
    </clipPath>
    <clipPath
       clipPathUnits="userSpaceOnUse"
       id="clipPath15">
      <rect
         style="fill:none;stroke:#000000;stroke-linecap:butt;stroke-linejoin:bevel;paint-order:stroke markers fill;stop-color:#000000"
         id="rect15-7"
         width="45.034248"
         height="38.955639"
         x="262.48285"
         y="121.00073" />
    </clipPath>
    <linearGradient
       id="swatch29"
       inkscape:swatch="solid">
      <stop
         style="stop-color:#ff0b0b;stop-opacity:1;"
         offset="0"
         id="stop30" />
    </linearGradient>
  </defs>
  <sodipodi:namedview
     id="namedview1"
     pagecolor="#ffffff"
     bordercolor="#000000"
     borderopacity="0.25"
     inkscape:showpageshadow="2"
     inkscape:pageopacity="0.0"
     inkscape:pagecheckerboard="0"
     inkscape:deskcolor="#d1d1d1"
     inkscape:zoom="1.3481012"
     inkscape:cx="432.83102"
     inkscape:cy="269.63852"
     inkscape:window-width="2560"
     inkscape:window-height="1369"
     inkscape:window-x="-8"
     inkscape:window-y="-8"
     inkscape:window-maximized="1"
     inkscape:current-layer="g1">
    <inkscape:page
       x="0"
       y="0"
       inkscape:label="1"
       id="page1"
       width="1024"
       height="511.99954"
       margin="0"
       bleed="0" />
  </sodipodi:namedview>
  <g
     id="g1"
     inkscape:groupmode="layer"
     inkscape:label="1"
     transform="translate(-20.943744,-119.03001)">
    <g
       id="g5"
       transform="translate(-58.234954,-4.8502891)">
      <g
         id="g3"
         transform="matrix(1.1283375,0,0,1.1283375,-10.16172,87.323053)">
        <path
           style="fill:none;stroke:#000000;stroke-width:8;stroke-linecap:round;stroke-linejoin:round;stroke-miterlimit:10;stroke-dasharray:none;stroke-opacity:1"
           d="m 714.78896,103.02978 232.38968,1e-5"
           id="path22"
           sodipodi:nodetypes="cc" />
        <path
           style="fill:none;stroke:#000000;stroke-width:8;stroke-linecap:round;stroke-linejoin:round;stroke-miterlimit:10;stroke-dasharray:none;stroke-opacity:1"
           d="m 118.70889,103.0298 232.3897,-2e-5"
           id="path1"
           sodipodi:nodetypes="cc" />
        <path
           style="fill:none;stroke:#000000;stroke-width:8;stroke-linecap:round;stroke-linejoin:round;stroke-miterlimit:10;stroke-dasharray:none;stroke-opacity:1;paint-order:normal"
           d="m 351.09859,103.02978 34.12372,-66.63109 59.92115,133.26239 59.92127,-133.26239 59.92116,133.26239 59.92115,-133.26239 59.92152,133.26239 29.9604,-66.6313"
           id="path2"
           sodipodi:nodetypes="cccccccc" />
        <path
           style="fill:#ffffff;fill-opacity:1;fill-rule:nonzero;stroke:#000000;stroke-width:8;stroke-linecap:round;stroke-linejoin:round;stroke-miterlimit:10;stroke-dasharray:none;stroke-opacity:1"
           d="m 982.70872,103.02979 c 0,-9.81131 -7.95376,-17.76494 -17.76512,-17.76494 -9.8112,0 -17.76496,7.95363 -17.76496,17.76494 0,9.81129 7.95384,17.76513 17.76496,17.76513 9.81136,0 17.76512,-7.95384 17.76512,-17.76513 z"
           id="path15" />
        <path
           style="fill:#ffffff;fill-opacity:1;fill-rule:nonzero;stroke:#000000;stroke-width:8;stroke-linecap:round;stroke-linejoin:round;stroke-miterlimit:10;stroke-dasharray:none;stroke-opacity:1"
           d="m 118.70889,103.0298 c 0,-9.81131 -7.95376,-17.76494 -17.76512,-17.76494 -9.811202,0 -17.764962,7.95363 -17.764962,17.76494 0,9.81129 7.95384,17.76513 17.764962,17.76513 9.81136,0 17.76512,-7.95385 17.76512,-17.76513 z"
           id="path15-0" />
      </g>
      <g
         id="g4"
         transform="matrix(1.1283375,0,0,1.1283375,-10.16172,-118.74649)">
        <path
           style="fill:#ffffff;fill-opacity:1;fill-rule:nonzero;stroke:#000000;stroke-width:8;stroke-linecap:round;stroke-linejoin:round;stroke-miterlimit:10;stroke-dasharray:none;stroke-opacity:1"
           d="m 118.70889,647.0298 c 0,-9.81131 -7.95376,-17.76494 -17.76512,-17.76494 -9.811202,0 -17.764962,7.95363 -17.764962,17.76494 0,9.81129 7.95384,17.76512 17.764962,17.76512 9.81136,0 17.76512,-7.95383 17.76512,-17.76512 z"
           id="path15-4" />
        <path
           style="fill:#ffffff;fill-opacity:1;fill-rule:nonzero;stroke:#000000;stroke-width:8;stroke-linecap:round;stroke-linejoin:round;stroke-miterlimit:10;stroke-dasharray:none;stroke-opacity:1"
           d="m 982.70872,647.02988 c 0,-9.8112 -7.95376,-17.76496 -17.76512,-17.76496 -9.8112,0 -17.76496,7.95376 -17.76496,17.76496 0,9.8112 7.95384,17.76496 17.76496,17.76496 9.81136,0 17.76512,-7.95376 17.76512,-17.76496 z"
           id="path16" />
        <path
           style="fill:none;stroke:#000000;stroke-width:8;stroke-linecap:round;stroke-linejoin:round;stroke-miterlimit:10;stroke-dasharray:none;stroke-opacity:1"
           d="m 118.70889,647.0298 828.46975,8e-5"
           id="path9"
           sodipodi:nodetypes="cc" />
        <path
           style="fill:#000000;fill-opacity:1;fill-rule:nonzero;stroke:#000000;stroke-width:8;stroke-linecap:round;stroke-linejoin:round;stroke-dasharray:none;stroke-opacity:1"
           d="M 506.89045,661.33719"
           id="path18" />
        <path
           style="fill:#000000;fill-opacity:1;fill-rule:nonzero;stroke:#000000;stroke-width:8;stroke-linecap:round;stroke-linejoin:round;stroke-dasharray:none;stroke-opacity:1"
           d="M 389.69962,635.3832"
           id="path17" />
      </g>
      <g
         id="g2"
         transform="matrix(1.1283375,0,0,1.1283375,-10.16172,-21.302243)">
        <path
           id="use1"
           d="m 96.531928,424.42574 h 3.139654 q 8.746178,0 10.540268,-3.13966 v -1.79409 q 0,-2.01834 0,-5.158 0,-3.13965 0,-7.40061 0,-4.26096 0.22426,-9.64322 0.22426,-5.38226 0,-11.21305 -0.22426,-5.83078 0,-12.33435 0.22426,-6.50357 0,-12.78288 0,-8.29765 0,-17.49235 0,-9.1947 0,-16.81957 0,-7.62488 0,-13.45566 0,-5.83079 -0.22426,-9.86748 -0.22426,-4.0367 0,-3.81244 -0.67279,-4.26096 -3.13966,-5.60652 -2.46687,-1.34557 -10.09174,-2.01835 h -4.036697 v -5.158 q 0,-5.15801 0.448522,-5.15801 l 2.242609,-0.22426 q 2.24261,-0.22426 6.503566,-0.44852 4.26096,-0.22426 8.29766,-0.44852 3.81243,-0.22426 8.29765,-0.44852 4.48522,-0.22426 6.72783,-0.67279 2.24261,-0.44852 2.46687,-0.22426 h 0.67279 v 70.64221 q 0,71.09072 0.22426,71.53924 0.89704,1.79409 2.69113,2.46687 4.70948,0.67279 10.98879,0.67279 h 3.58817 v 10.316 h -1.79409 l -5.158,-0.22426 q -5.158,-0.22426 -10.98879,-0.22426 -5.83078,0 -8.52191,-0.22426 -2.69113,-0.22426 -8.52192,0 -5.83078,0.22426 -11.213047,0.44852 l -5.158002,0.22426 h -1.794088 v -10.316 z"
           style="fill:#000000;stroke:none;stroke-width:0" />
        <path
           id="use2"
           d="m 232.43407,366.34215 q 0,0 -4.70948,0 -4.70948,0 -8.07339,-3.36392 -3.36392,-3.36391 -3.58818,-8.52191 0,-5.15801 3.36391,-8.52192 1.12131,-1.1213 1.12131,-1.34557 0,-0.22426 -2.24261,-0.44852 -5.83079,-0.89704 -10.98879,-0.89704 -10.98878,0 -17.94087,7.17635 -10.54027,10.54026 -10.54027,35.20897 0,18.3894 6.95209,28.92966 9.1947,13.67992 24.66871,13.67992 9.1947,0 14.80122,-5.83078 5.60652,-5.83079 8.07339,-13.90418 0.44853,-1.79409 1.12131,-2.24261 0.67278,-0.44852 3.58817,-0.44852 h 3.13966 q 1.34556,1.34556 1.34556,2.01834 0,0.89705 -0.89704,3.58818 -0.89704,2.69113 -3.58818,7.40061 -2.69113,4.70948 -6.50356,8.52192 -3.81244,3.81243 -10.76453,6.95209 -6.95209,3.13965 -15.47401,2.91539 -19.28644,0 -33.63914,-14.3527 -14.3527,-14.3527 -14.57696,-36.10602 0,-23.32314 14.57696,-37.9001 14.57696,-14.57696 33.8634,-14.57696 19.28645,0 26.91132,6.05505 7.62487,6.05504 7.62487,14.3527 0,5.158 -3.81243,8.29765 z"
           style="fill:#000000;stroke:none;stroke-width:0" />
        <path
           id="use3"
           d="m 279.75313,366.34215 q 0,0 -4.93374,0 -4.93374,0 -8.29765,-3.36392 -3.36392,-3.36391 -3.36392,-8.74617 0,-7.84914 7.62487,-13.90418 7.62488,-6.05505 27.13558,-6.05505 16.37105,0 26.46279,7.17635 10.09175,7.17635 13.45566,17.04383 1.12131,3.13966 1.12131,6.95209 0,3.81244 0.22426,25.79001 v 15.69827 q 0,10.76453 1.1213,14.80122 1.12131,4.0367 4.70948,4.0367 3.36392,0 4.48522,-3.58817 1.12131,-3.58818 1.12131,-11.88583 v -8.0734 h 8.97043 v 8.74618 q -0.22426,8.97044 -0.67278,10.54026 -2.01835,6.72783 -7.84913,10.54027 -5.83079,3.81243 -12.33435,4.0367 -6.50357,0.22426 -10.54027,-4.0367 -4.0367,-4.26096 -5.38226,-9.41896 v -0.89705 l -0.44852,0.67279 q -0.44853,0.67278 -1.12131,1.34556 -0.67278,0.67279 -1.79409,2.01835 -1.1213,1.34557 -2.69113,2.46687 -1.56983,1.12131 -3.36391,2.69113 -1.79409,1.56983 -4.0367,2.46687 -2.24261,0.89705 -4.93374,1.79409 -2.69113,0.89705 -5.83079,1.34557 -3.13965,0.44852 -6.95209,0.67278 -13.45565,0 -24.22018,-6.95209 -10.76453,-6.95209 -10.76453,-19.5107 0,-4.70948 1.56983,-8.97044 1.56983,-4.26096 6.05505,-9.1947 4.48522,-4.93374 10.76452,-8.29766 6.27931,-3.36391 17.49236,-6.2793 11.21305,-2.9154 24.6687,-3.36392 h 3.13966 v -4.93374 q 0,-7.62487 -1.34557,-11.21305 -4.93374,-15.92252 -21.75331,-15.92252 -4.0367,0 -7.62488,0.22426 -3.58817,0.22426 -5.60652,0.89704 -2.01835,0.67278 -1.79409,0.67278 4.93374,3.36392 4.93374,9.86749 0,5.60652 -3.58817,8.74617 z m -2.46687,44.62793 q 0,6.95209 5.38227,12.33435 5.38226,5.38226 13.23139,5.60653 8.52192,0 15.02549,-5.15801 6.50356,-5.158 8.74617,-13.45565 0.44853,-1.56983 0.67279,-14.80123 0,-13.00713 -0.22426,-13.00713 -1.79409,0 -4.70948,0.22426 -2.9154,0.22426 -10.09175,2.01835 -7.17635,1.79408 -13.00713,4.48522 -5.83079,2.69113 -10.31601,8.29765 -4.48522,5.60652 -4.70948,13.45566 z"
           style="fill:#000000;stroke:none;stroke-width:0" />
        <path
           id="use4"
           d="m 369.23326,467.93236 h 3.13965 q 8.74618,0 10.54026,-3.13965 v -1.79409 q 0,-1.56983 0,-4.26096 0,-2.69113 0,-6.72783 0,-4.03669 0.22427,-8.74617 0.22426,-4.70948 0,-9.86749 -0.22427,-5.158 0,-10.98878 0.22426,-5.83079 0,-11.43731 0,-7.62487 0,-15.92253 0,-8.29766 0,-14.80122 0,-6.50357 0,-11.88583 0,-5.38227 -0.22427,-8.74618 -0.22426,-3.36392 0,-3.58818 -0.67278,-4.26096 -3.13965,-5.60652 -2.46687,-1.34557 -10.09174,-2.01835 h -4.0367 v -5.158 q 0,-5.158 0.44852,-5.158 l 2.24261,-0.22426 q 2.24261,-0.22427 6.50357,-0.44853 4.26096,-0.22426 8.29766,-0.44852 3.81243,-0.22426 8.29765,-0.44852 4.48522,-0.22426 6.72783,-0.67278 2.24261,-0.44853 2.46687,-0.22426 h 0.67278 v 5.83078 l 0.22426,5.83079 1.79409,-1.56983 q 13.2314,-9.86748 30.94801,-9.86748 18.16514,0 30.94802,14.3527 12.78287,14.3527 13.00713,36.10601 0,22.65036 -14.57696,36.7788 -14.57696,14.12844 -32.96636,14.12844 -15.24975,0 -26.91132,-9.86748 l -1.79408,-1.56983 v 19.06218 12.55862 q 0,6.05504 0.44852,7.40061 0.44852,1.34556 2.46687,2.46687 4.70948,0.67278 10.98879,0.67278 h 3.58817 v 10.31601 h -1.79409 l -5.38226,-0.22426 q -5.158,-0.22427 -11.21305,-0.22427 -6.05504,0 -8.52191,-0.22426 -23.09888,0 -25.11723,0.67279 h -1.79409 v -10.31601 z m 87.01325,-82.07951 q 0,-16.59531 -7.62487,-28.92966 -7.62488,-12.33436 -19.06219,-12.33436 -15.92252,0 -27.58409,14.57697 v 53.59837 q 8.97043,16.14679 25.11722,16.14679 11.43731,0 20.18349,-12.1101 8.74618,-12.11009 8.97044,-30.94801 z"
           style="fill:#000000;stroke:none;stroke-width:0" />
        <path
           id="use5"
           d="m 501.32296,449.54296 q 4.93374,0 7.84913,3.13966 2.9154,3.13965 3.13966,8.07339 0,4.0367 -2.01835,6.50357 -2.01835,2.46687 -4.0367,3.36391 -1.56982,0.67279 1.34557,1.34557 1.56982,0.44852 3.13965,0.44852 4.48522,0 8.29766,-2.01835 3.81243,-2.01835 6.05504,-4.70948 2.24261,-2.69113 4.93374,-7.17635 2.69114,-4.48522 3.58818,-6.95209 0.89704,-2.46687 2.69113,-7.17635 l 3.81244,-9.64322 -16.14679,-41.03976 q -4.48522,-11.21304 -10.09175,-25.56575 -5.38226,-13.67991 -6.50356,-15.92252 -1.12131,-2.24261 -3.58818,-2.9154 -0.22426,-0.22426 -0.44852,-0.22426 -2.69113,-0.67278 -9.86748,-0.67278 h -3.36392 v -10.316 h 1.56983 l 4.48522,0.22426 q 4.26096,0 9.41896,0.22426 5.158,0.22426 7.62487,0.22426 1.56983,0 4.48522,0 2.91539,0 6.50357,-0.22426 3.58817,-0.22426 6.50357,-0.22426 2.91539,0 5.38226,0 l 2.01835,-0.22426 h 1.79409 v 10.316 h -2.01835 q -10.98879,0 -10.54027,4.26096 l 22.65036,56.96228 q 0,-0.22426 10.316,-25.79001 l 9.86749,-25.56575 v -2.01835 q 0,-3.36391 -2.24261,-5.158 -2.24261,-1.79409 -4.0367,-2.24261 -1.79409,-0.44852 -3.13965,-0.44852 h -0.67279 v -10.316 h 1.34557 1.56983 q 1.56982,0 3.81243,0 2.24261,0 4.70948,0.22426 2.46687,0.22426 5.158,0.22426 2.69114,0 3.81244,0 12.33435,0 18.16514,-0.44852 h 1.1213 v 10.316 h -2.46687 q -12.55861,1.12131 -16.81957,8.97044 -0.44852,0.44852 -9.86748,24.6687 -9.41896,24.22019 -19.95923,50.68298 -10.54026,26.46279 -13.90418,31.39654 -10.54026,16.37105 -25.56575,16.37105 -9.86748,0 -15.474,-6.05505 -5.60653,-6.05505 -5.60653,-13.67992 0,-6.05504 3.58818,-8.52192 3.58817,-2.46687 7.62487,-2.69113 z"
           style="fill:#000000;stroke:none;stroke-width:0" />
        <path
           id="use6"
           d="m 606.72561,394.59903 v -16.37105 h 59.65342 v 16.37105 z"
           style="fill:#000000;stroke:none;stroke-width:0" />
        <path
           id="use7"
           d="m 752.7195,343.01901 q 9.86748,-9.86748 22.42609,-9.86748 6.72783,0 9.64322,4.26095 2.9154,4.26096 2.9154,8.52192 0,3.13965 -2.01835,5.60652 -2.01835,2.46687 -6.05505,2.46687 -7.40061,0 -8.29765,-6.72782 -0.44852,-3.13966 0.67278,-4.70948 0,-0.22427 0.22426,-0.67279 v -0.22426 q -6.27931,0.67278 -11.88583,4.93374 -1.79409,1.12131 -1.79409,1.56983 0,0.22426 0.89705,1.1213 0.89704,0.89705 2.01834,2.69114 1.12131,1.79408 2.46688,4.03669 1.34556,2.24261 2.01834,5.83079 0.67279,3.58817 0.89705,7.40061 0,13.90418 -10.98879,23.5474 -10.98879,9.64322 -27.13558,9.86748 -11.21304,0 -22.20183,-6.2793 -2.46687,4.03669 -2.46687,8.52191 0,7.84914 5.83078,11.66157 2.01835,1.34557 3.81244,1.34557 1.79409,0 16.14679,0.44852 18.83792,0.22426 24.22018,1.34557 13.67992,2.01834 21.52906,9.1947 8.74617,8.74617 8.74617,21.97757 0,15.02548 -17.49235,23.09888 -13.45566,6.95209 -31.84506,6.95209 -18.61366,0 -32.06932,-6.95209 -17.49235,-7.84914 -17.49235,-22.4261 0,-8.07339 4.70948,-13.45566 4.70948,-5.38226 9.41896,-7.40061 l 2.46687,-1.34556 q -8.07339,-6.95209 -8.07339,-18.83792 0,-10.54027 6.50356,-19.06219 -9.86748,-9.86748 -9.86748,-22.20183 0,-14.12844 11.21305,-23.77166 11.21305,-9.64322 27.13558,-9.86748 11.4373,0 21.30479,5.83078 z m -6.72783,14.80122 q -1.12131,-6.27931 -5.83079,-9.86748 -4.70948,-3.58818 -11.66157,-3.81244 -6.50356,0 -11.21304,3.58818 -4.70948,3.58817 -5.83079,10.09174 -0.67278,3.81244 -0.67278,11.43731 0,9.86748 1.56982,14.57696 1.56983,4.70948 6.72783,7.84914 3.81244,2.24261 9.64322,2.24261 4.93375,0 8.52192,-1.56983 3.58818,-1.56983 5.158,-4.0367 1.56983,-2.46687 2.46687,-4.48522 0.89705,-2.01835 1.12131,-3.36391 0.67278,-3.58818 0.67278,-11.21305 0,-7.62487 -0.67278,-11.43731 z m 23.32314,93.74108 q 0,-5.60652 -3.13966,-9.1947 -3.13965,-3.58817 -9.19469,-5.158 -6.05505,-1.56983 -10.98879,-2.01835 -4.93374,-0.44852 -12.11009,-0.44852 h -6.05505 q -15.02548,0 -17.94088,1.34557 -4.48522,2.01834 -6.95209,6.2793 -2.46687,4.26096 -2.69113,8.97044 0,2.24261 1.34557,5.158 1.34556,2.9154 4.70948,6.72783 3.36391,3.81244 10.76452,6.27931 7.40062,2.46687 17.94088,2.69113 15.47401,0 24.89297,-6.27931 9.41896,-6.2793 9.41896,-14.3527 z"
           style="fill:#000000;stroke:none;stroke-width:0" />
        <path
           id="use8"
           d="m 876.96007,421.7346 q -12.55861,15.24975 -28.48114,15.24975 h -1.56983 q -28.03262,0 -32.29358,-22.20184 -0.22426,-1.56982 -0.44852,-30.72375 -0.22426,-24.44444 -0.22426,-27.35983 0,-2.9154 -1.34557,-4.70948 -2.24261,-3.58818 -13.45565,-3.58818 h -2.46687 v -5.158 q 0,-5.158 0.44852,-5.158 l 2.46687,-0.22426 q 2.24261,-0.22427 6.50357,-0.44853 4.26095,-0.22426 8.52191,-0.44852 3.81244,-0.22426 8.29766,-0.44852 4.48522,-0.22426 6.72783,-0.67278 2.24261,-0.44853 2.69113,-0.22426 h 0.67278 v 40.59123 q 0.22426,41.26402 0.67278,44.17941 0.67279,3.36391 3.13966,5.38226 4.48522,3.13966 13.45565,3.13966 5.83079,0 10.54027,-2.01835 4.70948,-2.01835 7.17635,-5.15801 2.46687,-3.13965 4.48522,-7.17635 2.01835,-4.03669 2.69113,-6.72783 0.67278,-2.69113 0.89705,-5.38226 0,-0.22426 0,-3.81243 0,-3.58818 0.22426,-8.97044 0.22426,-5.38227 0,-10.54027 v -15.02548 q 0,-10.31601 -2.24261,-12.78288 -2.24261,-2.46687 -11.21305,-2.91539 h -4.0367 v -10.316 q 0.44852,0 17.04383,-1.12131 16.59532,-1.1213 17.71662,-1.34556 h 1.56983 v 39.91845 q 0,40.36697 0.22426,41.03975 0.67278,4.48522 3.13965,5.83079 2.46687,1.34556 10.09174,2.01835 h 4.0367 v 10.316 q -0.44852,0 -16.81957,1.1213 -16.37105,1.12131 -17.26809,1.34557 h -1.56983 z"
           style="fill:#000000;stroke:none;stroke-width:0" />
        <path
           id="use9"
           d="m 931.23122,298.16682 q 0,-6.27931 4.0367,-9.86749 4.0367,-3.58817 9.86748,-3.58817 5.158,0.44852 8.97044,3.81243 3.81244,3.36392 3.81244,9.64323 0,6.72782 -3.81244,10.09174 -3.81244,3.36391 -9.41896,3.36391 -5.60652,0 -9.41896,-3.36391 -3.81244,-3.36392 -4.0367,-10.09174 z m 39.91845,136.57492 q -3.36391,-0.67278 -23.32314,-0.67278 -2.46687,0 -8.29765,0 -5.83079,0 -11.21305,0.44852 l -4.93374,0.22426 H 921.588 v -10.316 h 3.58818 q 6.2793,0 10.98878,-0.67279 2.01835,-0.89704 2.46687,-2.46687 0.44853,-1.56982 0.44853,-9.41896 v -23.09888 -19.73496 q 0,-11.66157 -0.44853,-14.80122 -0.44852,-3.13966 -3.13965,-4.26096 -3.13965,-1.56983 -10.54027,-1.56983 h -2.46687 v -5.158 q 0,-5.158 0.44853,-5.158 l 2.24261,-0.22426 q 2.24261,-0.22427 6.2793,-0.44853 4.0367,-0.22426 8.0734,-0.44852 3.81243,-0.22426 8.07339,-0.44852 4.26096,-0.22426 6.50357,-0.67278 2.24261,-0.44853 2.46687,-0.22426 h 0.67278 v 85.21916 q 1.12131,2.24261 2.69113,2.69113 1.56983,0.44852 7.84914,0.89705 h 5.158 v 10.316 z"
           style="fill:#000000;stroke:none;stroke-width:0" />
      </g>
    </g>
  </g>
</svg>
