<?xml version="1.0" encoding="UTF-8" standalone="no"?>
<!-- Created with Inkscape (http://www.inkscape.org/) -->

<svg
   version="1.1"
   id="svg1"
   width="1024"
   height="1024"
   viewBox="0 0 1024 1023.9999"
   sodipodi:docname="lcapygui.svg"
   inkscape:version="1.3.2 (091e20e, 2023-11-25)"
   xmlns:inkscape="http://www.inkscape.org/namespaces/inkscape"
   xmlns:sodipodi="http://sodipodi.sourceforge.net/DTD/sodipodi-0.dtd"
   xmlns="http://www.w3.org/2000/svg"
   xmlns:svg="http://www.w3.org/2000/svg">
  <defs
     id="defs1">
    <inkscape:path-effect
       effect="fillet_chamfer"
       id="path-effect51"
       is_visible="true"
       lpeversion="1"
       nodesatellites_param="F,0,0,1,0,28,0,1 @ F,0,0,1,0,28,0,1 @ F,0,0,1,0,28,0,1 @ F,0,0,1,0,28,0,1"
       radius="28"
       unit="px"
       method="auto"
       mode="F"
       chamfer_steps="1"
       flexible="false"
       use_knot_distance="true"
       apply_no_radius="true"
       apply_with_radius="true"
       only_selected="false"
       hide_knots="false" />
    <inkscape:path-effect
       effect="fillet_chamfer"
       id="path-effect50"
       is_visible="true"
       lpeversion="1"
       nodesatellites_param="F,0,0,1,0,10,0,1 @ F,0,0,1,0,10,0,1 @ F,0,0,1,0,10,0,1 @ F,0,0,1,0,10,0,1"
       radius="10"
       unit="px"
       method="auto"
       mode="F"
       chamfer_steps="1"
       flexible="false"
       use_knot_distance="true"
       apply_no_radius="true"
       apply_with_radius="true"
       only_selected="false"
       hide_knots="false" />
    <clipPath
       clipPathUnits="userSpaceOnUse"
       id="clipPath25">
      <rect
         style="fill:#ff0000;stroke:none;stroke-width:3;stroke-linecap:square;stroke-linejoin:miter;paint-order:stroke markers fill;stop-color:#000000"
         id="rect25-8"
         width="78"
         height="45.033199"
         x="763.61322"
         y="452.82422" />
    </clipPath>
    <clipPath
       clipPathUnits="userSpaceOnUse"
       id="clipPath27">
      <rect
         style="fill:none;stroke:#000000;stroke-width:0.999999;stroke-linecap:butt;stroke-linejoin:bevel;paint-order:stroke markers fill;stop-color:#000000"
         id="rect28-6"
         width="46.160622"
         height="39.922417"
         x="86.574379"
         y="420.06253" />
    </clipPath>
    <clipPath
       clipPathUnits="userSpaceOnUse"
       id="clipPath24">
      <rect
         style="fill:none;stroke:#000000;stroke-width:0.999999;stroke-linecap:butt;stroke-linejoin:bevel;paint-order:stroke markers fill;stop-color:#000000"
         id="rect38"
         width="44.999748"
         height="77.937294"
         x="251.53429"
         y="222.73541" />
    </clipPath>
    <clipPath
       clipPathUnits="userSpaceOnUse"
       id="clipPath15">
      <rect
         style="fill:none;stroke:#000000;stroke-linecap:butt;stroke-linejoin:bevel;paint-order:stroke markers fill;stop-color:#000000"
         id="rect15-7"
         width="45.034248"
         height="38.955639"
         x="262.48285"
         y="121.00073" />
    </clipPath>
    <linearGradient
       id="swatch29"
       inkscape:swatch="solid">
      <stop
         style="stop-color:#ff0b0b;stop-opacity:1;"
         offset="0"
         id="stop30" />
    </linearGradient>
  </defs>
  <sodipodi:namedview
     id="namedview1"
     pagecolor="#ffffff"
     bordercolor="#000000"
     borderopacity="0.25"
     inkscape:showpageshadow="2"
     inkscape:pageopacity="0.0"
     inkscape:pagecheckerboard="0"
     inkscape:deskcolor="#d1d1d1"
     inkscape:zoom="4.752611"
     inkscape:cx="86.583984"
     inkscape:cy="62.912786"
     inkscape:window-width="1512"
     inkscape:window-height="945"
     inkscape:window-x="522"
     inkscape:window-y="1477"
     inkscape:window-maximized="0"
     inkscape:current-layer="g1">
    <inkscape:page
       x="0"
       y="0"
       inkscape:label="1"
       id="page1"
       width="1024"
       height="1023.9999"
       margin="0"
       bleed="0" />
  </sodipodi:namedview>
  <g
     id="g1"
     inkscape:groupmode="layer"
     inkscape:label="1"
     transform="translate(-20.94376,-0.02980049)">
    <g
       id="g51"
       transform="matrix(8,0,0,8,-146.60632,-0.20862395)">
      <path
         style="fill:#ffffff;fill-opacity:1;fill-rule:evenodd;stroke:none;stroke-width:1.23949;stroke-linecap:round;stroke-linejoin:round;stroke-dasharray:none;stroke-opacity:1;paint-order:normal"
         id="rect50"
         width="128"
         height="128"
         x="20.94376"
         y="0.029801676"
         inkscape:path-effect="#path-effect51"
         sodipodi:type="rect"
         d="m 48.94376,0.02980168 h 72 a 28,28 45 0 1 28,28.00000032 V 100.0298 a 28,28 135 0 1 -28,28 h -72 a 28,28 45 0 1 -28,-28 V 28.029802 a 28,28 135 0 1 28,-28.00000032 z" />
      <path
         style="fill:#ffffff;fill-opacity:1;fill-rule:nonzero;stroke:#000000;stroke-width:1;stroke-linecap:round;stroke-linejoin:round;stroke-miterlimit:10;stroke-dasharray:none;stroke-opacity:1"
         d="m 33.164401,98.02979 c 0,-1.226413 -0.99422,-2.220617 -2.22064,-2.220617 -1.2264,0 -2.22062,0.994204 -2.22062,2.220617 0,1.226412 0.99423,2.22064 2.22062,2.22064 1.22642,0 2.22064,-0.994228 2.22064,-2.22064 z"
         id="path15-4" />
      <path
         style="fill:#ffffff;fill-opacity:1;fill-rule:nonzero;stroke:#000000;stroke-width:1;stroke-linecap:round;stroke-linejoin:round;stroke-miterlimit:10;stroke-dasharray:none;stroke-opacity:1"
         d="m 141.16438,98.0298 c 0,-1.2264 -0.99422,-2.22062 -2.22064,-2.22062 -1.2264,0 -2.22062,0.99422 -2.22062,2.22062 0,1.2264 0.99423,2.22062 2.22062,2.22062 1.22642,0 2.22064,-0.99422 2.22064,-2.22062 z"
         id="path16" />
      <path
         style="fill:none;stroke:#000000;stroke-width:1;stroke-linecap:round;stroke-linejoin:round;stroke-miterlimit:10;stroke-dasharray:none;stroke-opacity:1"
         d="m 107.67441,30.029788 29.04871,1e-6"
         id="path22"
         sodipodi:nodetypes="cc" />
      <path
         style="fill:none;stroke:#000000;stroke-width:1;stroke-linecap:round;stroke-linejoin:round;stroke-miterlimit:10;stroke-dasharray:none;stroke-opacity:1"
         d="m 33.164401,30.02979 29.048713,-2e-6"
         id="path1"
         sodipodi:nodetypes="cc" />
      <path
         style="fill:none;stroke:#000000;stroke-width:1;stroke-linecap:round;stroke-linejoin:round;stroke-miterlimit:10;stroke-dasharray:none;stroke-opacity:1;paint-order:normal"
         d="M 62.213114,30.029788 66.478579,21.700902 73.968723,38.3587 81.458881,21.700902 88.949026,38.3587 96.43917,21.700902 103.92936,38.3587 107.67441,30.029788"
         id="path2"
         sodipodi:nodetypes="cccccccc" />
      <path
         style="fill:none;stroke:#000000;stroke-width:1;stroke-linecap:round;stroke-linejoin:round;stroke-miterlimit:10;stroke-dasharray:none;stroke-opacity:1"
         d="m 33.164401,98.02979 103.558719,10e-6"
         id="path9"
         sodipodi:nodetypes="cc" />
      <path
         style="fill:#000000;fill-opacity:1;fill-rule:nonzero;stroke:#000000;stroke-width:1;stroke-linecap:round;stroke-linejoin:round;stroke-dasharray:none;stroke-opacity:1"
         d="M 81.687096,99.818214"
         id="path18" />
      <path
         style="fill:#000000;fill-opacity:1;fill-rule:nonzero;stroke:#000000;stroke-width:1;stroke-linecap:round;stroke-linejoin:round;stroke-dasharray:none;stroke-opacity:1"
         d="M 67.038243,96.573966"
         id="path17" />
      <path
         style="fill:#ffffff;fill-opacity:1;fill-rule:nonzero;stroke:#000000;stroke-width:1;stroke-linecap:round;stroke-linejoin:round;stroke-miterlimit:10;stroke-dasharray:none;stroke-opacity:1"
         d="m 141.16438,30.029789 c 0,-1.226413 -0.99422,-2.220617 -2.22064,-2.220617 -1.2264,0 -2.22062,0.994204 -2.22062,2.220617 0,1.226412 0.99423,2.220642 2.22062,2.220642 1.22642,0 2.22064,-0.99423 2.22064,-2.220642 z"
         id="path15" />
      <path
         style="fill:#ffffff;fill-opacity:1;fill-rule:nonzero;stroke:#000000;stroke-width:1;stroke-linecap:round;stroke-linejoin:round;stroke-miterlimit:10;stroke-dasharray:none;stroke-opacity:1"
         d="m 33.164401,30.02979 c 0,-1.226413 -0.99422,-2.220617 -2.22064,-2.220617 -1.2264,0 -2.22062,0.994204 -2.22062,2.220617 0,1.226412 0.99423,2.220642 2.22062,2.220642 1.22642,0 2.22064,-0.994231 2.22064,-2.220642 z"
         id="path15-0" />
      <g
         stroke="currentColor"
         fill="currentColor"
         stroke-width="0"
         transform="matrix(0.02803262,0,0,-0.02803262,29.214911,71.493783)"
         id="g11"
         style="stroke:none">
        <g
           data-mml-node="math"
           id="g10"
           style="stroke:none">
          <g
             data-mml-node="mtext"
             id="g9"
             style="stroke:none">
            <path
               id="use1"
               d="m 42,46 h 14 q 39,0 47,14 v 8 q 0,9 0,23 0,14 0,33 0,19 1,43 1,24 0,50 -1,26 0,55 1,29 0,57 0,37 0,78 0,41 0,75 0,34 0,60 0,26 -1,44 -1,18 0,17 -3,19 -14,25 -11,6 -45,9 H 26 v 23 q 0,23 2,23 l 10,1 q 10,1 29,2 19,1 37,2 17,1 37,2 20,1 30,3 10,2 11,1 h 3 V 379 q 0,-317 1,-319 4,-8 12,-11 21,-3 49,-3 h 16 V 0 h -8 L 232,1 Q 209,2 183,2 157,2 145,3 133,4 107,3 81,2 57,1 L 34,0 h -8 v 46 z"
               style="stroke:none" />
            <path
               id="use2"
               d="m 648,305 q 0,0 -21,0 -21,0 -36,15 -15,15 -16,38 0,23 15,38 5,5 5,6 0,1 -10,2 -26,4 -49,4 -49,0 -80,-32 -47,-47 -47,-157 0,-82 31,-129 41,-61 110,-61 41,0 66,26 25,26 36,62 2,8 5,10 3,2 16,2 h 14 q 6,-6 6,-9 0,-4 -4,-16 Q 685,92 673,71 661,50 644,33 627,16 596,2 q -31,-14 -69,-13 -86,0 -150,64 -64,64 -65,161 0,104 65,169 65,65 151,65 86,0 120,-27 34,-27 34,-64 0,-23 -17,-37 z"
               style="stroke:none" />
            <path
               id="use3"
               d="m 859,305 q 0,0 -22,0 -22,0 -37,15 -15,15 -15,39 0,35 34,62 34,27 121,27 73,0 118,-32 45,-32 60,-76 5,-14 5,-31 0,-17 1,-115 v -70 q 0,-48 5,-66 5,-18 21,-18 15,0 20,16 5,16 5,53 v 36 h 40 v -39 q -1,-40 -3,-47 -9,-30 -35,-47 -26,-17 -55,-18 -29,-1 -47,18 -18,19 -24,42 v 4 l -2,-3 q -2,-3 -5,-6 -3,-3 -8,-9 -5,-6 -12,-11 -7,-5 -15,-12 -8,-7 -18,-11 -10,-4 -22,-8 -12,-4 -26,-6 -14,-2 -31,-3 -60,0 -108,31 -48,31 -48,87 0,21 7,40 7,19 27,41 20,22 48,37 28,15 78,28 50,13 110,15 h 14 v 22 q 0,34 -6,50 -22,71 -97,71 -18,0 -34,-1 -16,-1 -25,-4 -9,-3 -8,-3 22,-15 22,-44 0,-25 -16,-39 z M 848,106 q 0,-31 24,-55 24,-24 59,-25 38,0 67,23 29,23 39,60 2,7 3,66 0,58 -1,58 -8,0 -21,-1 -13,-1 -45,-9 -32,-8 -58,-20 -26,-12 -46,-37 -20,-25 -21,-60 z"
               style="stroke:none" />
            <path
               id="use4"
               d="m 1258,-148 h 14 q 39,0 47,14 v 8 q 0,7 0,19 0,12 0,30 0,18 1,39 1,21 0,44 -1,23 0,49 1,26 0,51 0,34 0,71 0,37 0,66 0,29 0,53 0,24 -1,39 -1,15 0,16 -3,19 -14,25 -11,6 -45,9 h -18 v 23 q 0,23 2,23 l 10,1 q 10,1 29,2 19,1 37,2 17,1 37,2 20,1 30,3 10,2 11,1 h 3 v -26 l 1,-26 8,7 q 59,44 138,44 81,0 138,-64 57,-64 58,-161 0,-101 -65,-164 -65,-63 -147,-63 -68,0 -120,44 l -8,7 v -85 -56 q 0,-27 2,-33 2,-6 11,-11 21,-3 49,-3 h 16 v -46 h -8 l -24,1 q -23,1 -50,1 -27,0 -38,1 -103,0 -112,-3 h -8 v 46 z m 388,366 q 0,74 -34,129 -34,55 -85,55 -71,0 -123,-65 V 98 q 40,-72 112,-72 51,0 90,54 39,54 40,138 z"
               style="stroke:none" />
            <path
               id="use5"
               d="m 1847,-66 q 22,0 35,-14 13,-14 14,-36 0,-18 -9,-29 -9,-11 -18,-15 -7,-3 6,-6 7,-2 14,-2 20,0 37,9 17,9 27,21 10,12 22,32 12,20 16,31 4,11 12,32 l 17,43 -72,183 q -20,50 -45,114 -24,61 -29,71 -5,10 -16,13 -1,1 -2,1 -12,3 -44,3 h -15 v 46 h 7 l 20,-1 q 19,0 42,-1 23,-1 34,-1 7,0 20,0 13,0 29,1 16,1 29,1 13,0 24,0 l 9,1 h 8 v -46 h -9 q -49,0 -47,-19 l 101,-254 q 0,1 46,115 l 44,114 v 9 q 0,15 -10,23 -10,8 -18,10 -8,2 -14,2 h -3 v 46 h 6 7 q 7,0 17,0 10,0 21,-1 11,-1 23,-1 12,0 17,0 55,0 81,2 h 5 v -46 h -11 q -56,-5 -75,-40 -2,-2 -44,-110 -42,-108 -89,-226 -47,-118 -62,-140 -47,-73 -114,-73 -44,0 -69,27 -25,27 -25,61 0,27 16,38 16,11 34,12 z"
               style="stroke:none" />
            <path
               id="use6"
               d="m 2317,179 v 73 h 266 v -73 z"
               style="stroke:none" />
            <path
               id="use7"
               d="m 2968,409 q 44,44 100,44 30,0 43,-19 13,-19 13,-38 0,-14 -9,-25 -9,-11 -27,-11 -33,0 -37,30 -2,14 3,21 0,1 1,3 v 1 q -28,-3 -53,-22 -8,-5 -8,-7 0,-1 4,-5 4,-4 9,-12 5,-8 11,-18 6,-10 9,-26 3,-16 4,-33 0,-62 -49,-105 -49,-43 -121,-44 -50,0 -99,28 -11,-18 -11,-38 0,-35 26,-52 9,-6 17,-6 8,0 72,-2 84,-1 108,-6 61,-9 96,-41 39,-39 39,-98 0,-67 -78,-103 -60,-31 -142,-31 -83,0 -143,31 -78,35 -78,100 0,36 21,60 21,24 42,33 l 11,6 q -36,31 -36,84 0,47 29,85 -44,44 -44,99 0,63 50,106 50,43 121,44 51,0 95,-26 z m -30,-66 q -5,28 -26,44 -21,16 -52,17 -29,0 -50,-16 -21,-16 -26,-45 -3,-17 -3,-51 0,-44 7,-65 7,-21 30,-35 17,-10 43,-10 22,0 38,7 16,7 23,18 7,11 11,20 4,9 5,15 3,16 3,50 0,34 -3,51 z m 104,-418 q 0,25 -14,41 -14,16 -41,23 -27,7 -49,9 -22,2 -54,2 h -27 q -67,0 -80,-6 -20,-9 -31,-28 -11,-19 -12,-40 0,-10 6,-23 6,-13 21,-30 15,-17 48,-28 33,-11 80,-12 69,0 111,28 42,28 42,64 z"
               style="stroke:none" />
            <path
               id="use8"
               d="m 3522,58 q -56,-68 -127,-68 h -7 q -125,0 -144,99 -1,7 -2,137 -1,109 -1,122 0,13 -6,21 -10,16 -60,16 h -11 v 23 q 0,23 2,23 l 11,1 q 10,1 29,2 19,1 38,2 17,1 37,2 20,1 30,3 10,2 12,1 h 3 V 261 q 1,-184 3,-197 3,-15 14,-24 20,-14 60,-14 26,0 47,9 21,9 32,23 11,14 20,32 9,18 12,30 3,12 4,24 0,1 0,17 0,16 1,40 1,24 0,47 v 67 q 0,46 -10,57 -10,11 -50,13 h -18 v 46 q 2,0 76,5 74,5 79,6 h 7 V 264 q 0,-180 1,-183 3,-20 14,-26 11,-6 45,-9 h 18 V 0 q -2,0 -75,-5 -73,-5 -77,-6 h -7 z"
               style="stroke:none" />
            <path
               id="use9"
               d="m 3764,609 q 0,28 18,44 18,16 44,16 23,-2 40,-17 17,-15 17,-43 0,-30 -17,-45 -17,-15 -42,-15 -25,0 -42,15 -17,15 -18,45 z M 3942,0 q -15,3 -104,3 -11,0 -37,0 -26,0 -50,-2 l -22,-1 h -8 v 46 h 16 q 28,0 49,3 9,4 11,11 2,7 2,42 v 103 88 q 0,52 -2,66 -2,14 -14,19 -14,7 -47,7 h -11 v 23 q 0,23 2,23 l 10,1 q 10,1 28,2 18,1 36,2 17,1 36,2 19,1 29,3 10,2 11,1 h 3 V 62 q 5,-10 12,-12 7,-2 35,-4 h 23 V 0 Z"
               style="stroke:none" />
          </g>
        </g>
      </g>
    </g>
  </g>
</svg>
