<?xml version="1.0" encoding="UTF-8" standalone="no"?>
<svg
   width="512"
   height="512"
   version="1"
   id="svg1"
   xmlns="http://www.w3.org/2000/svg"
   xmlns:svg="http://www.w3.org/2000/svg">
  <defs
     id="defs1" />
  <g
     id="g2"
     transform="matrix(33.333333,0,0,33.333333,0.99999986,-0.455427)">
    <path
       fill="#494c4e"
       d="M 0.38758342,8.314666 C 0.50337351,8.245763 0.63228869,8.1989144 0.76211621,8.2037882 c 0.0198262,-0.0043 0.039646,-0.00866 0.0627444,-0.00747 C 1.3708277,8.1476846 1.9084082,7.9845773 2.3991404,7.6925587 3.336499,7.13477 3.9021357,6.2158045 4.0721353,5.1589535 4.2287385,4.1548724 4.7526337,3.2159486 5.6403633,2.6876902 6.0869845,2.4219205 6.5771726,2.2795521 7.0724668,2.2461403 L 6.8920061,1.9428788 C 6.7115454,1.6396172 6.8120186,1.2438443 7.1152804,1.0633834 7.4185422,0.88292251 7.8143147,0.98339576 7.9947754,1.2866572 L 15.213212,13.417121 c 0.180461,0.303261 0.07999,0.699034 -0.223274,0.879495 -0.303262,0.180461 -0.699034,0.07999 -0.879496,-0.223274 L 10.63575,8.2341781 C 10.116167,8.2895118 9.6016907,8.4537978 9.1385278,8.72941 8.1405216,9.3232911 7.6728141,10.243713 7.4421617,11.336656 c -0.2016259,0.978608 -0.6736638,1.879207 -1.5448516,2.397622 -0.07168,0.04265 -0.1521542,0.08308 -0.2326299,0.123498 -0.241424,0.121264 -0.5025356,0.209447 -0.7690252,0.263497 -0.2632084,0.05957 -0.5295621,0.0762 -0.7947313,0.06974 C 3.8379887,14.175726 3.5817502,14.134104 3.3311613,14.051764 3.0695454,13.975987 2.7882432,13.867127 2.6471551,13.630031 L 0.09773478,9.3457717 C -0.10897539,8.9983995 0.02366824,8.5312187 0.38758342,8.314666 Z"
       id="path1"
       style="fill:#000000;stroke-width:0.641624" />
  </g>
</svg>
