<?xml version="1.0" encoding="UTF-8"?>
<svg xmlns="http://www.w3.org/2000/svg" xmlns:xlink="http://www.w3.org/1999/xlink" width="57.091pt" height="28.86pt" viewBox="0 0 57.091 28.86" version="1.1">
<defs>
<clipPath id="clip1">
  <path d="M 0 12 L 57.089844 12 L 57.089844 14 L 0 14 Z M 0 12 "/>
</clipPath>
<clipPath id="clip2">
  <path d="M 0 0 L 51 0 L 51 28.859375 L 0 28.859375 Z M 0 0 "/>
</clipPath>
</defs>
<g id="surface1">
<g clip-path="url(#clip1)" clip-rule="nonzero">
<path style="fill:none;stroke-width:0.3985;stroke-linecap:butt;stroke-linejoin:miter;stroke:rgb(0%,0%,0%);stroke-opacity:1;stroke-miterlimit:10;" d="M 0.00021875 0.00165625 L 24.093969 0.00165625 M 32.597875 0.00165625 L 56.695531 0.00165625 " transform="matrix(1,0,0,-1,0.199,13.154)"/>
</g>
<path style="fill:none;stroke-width:0.797;stroke-linecap:butt;stroke-linejoin:miter;stroke:rgb(0%,0%,0%);stroke-opacity:1;stroke-miterlimit:10;" d="M 24.093969 12.755562 L 24.093969 -12.756156 M 32.597875 12.755562 L 32.597875 -12.756156 " transform="matrix(1,0,0,-1,0.199,13.154)"/>
<g clip-path="url(#clip2)" clip-rule="nonzero">
<path style="fill:none;stroke-width:0.797;stroke-linecap:butt;stroke-linejoin:miter;stroke:rgb(0%,0%,0%);stroke-opacity:1;stroke-miterlimit:10;" d="M 39.402563 12.755562 L 17.293187 -15.306938 L 9.636938 -15.306938 " transform="matrix(1,0,0,-1,0.199,13.154)"/>
</g>
</g>
</svg>
