<?xml version="1.0" encoding="UTF-8"?>
<svg xmlns="http://www.w3.org/2000/svg" xmlns:xlink="http://www.w3.org/1999/xlink" width="31.58pt" height="57.091pt" viewBox="0 0 31.58 57.091" version="1.1">
<defs>
<clipPath id="clip1">
  <path d="M 16 4 L 31.578125 4 L 31.578125 53 L 16 53 Z M 16 4 "/>
</clipPath>
<clipPath id="clip2">
  <path d="M 0 0 L 31.578125 0 L 31.578125 57.089844 L 0 57.089844 Z M 0 0 "/>
</clipPath>
</defs>
<g id="surface1">
<g clip-path="url(#clip1)" clip-rule="nonzero">
<path style="fill:none;stroke-width:0.3985;stroke-linecap:butt;stroke-linejoin:miter;stroke:rgb(0%,0%,0%);stroke-opacity:1;stroke-miterlimit:10;" d="M 31.179906 51.931063 L 31.179906 36.532625 L 16.301 36.532625 M 16.301 20.161531 L 31.179906 20.161531 L 31.179906 4.763094 " transform="matrix(1,0,0,-1,0.199,56.892)"/>
</g>
<path style="fill:none;stroke-width:0.797;stroke-linecap:butt;stroke-linejoin:miter;stroke:rgb(0%,0%,0%);stroke-opacity:1;stroke-miterlimit:10;" d="M 16.301 40.040438 L 16.301 16.653719 " transform="matrix(1,0,0,-1,0.199,56.892)"/>
<path style="fill:none;stroke-width:0.3985;stroke-linecap:butt;stroke-linejoin:miter;stroke:rgb(0%,0%,0%);stroke-opacity:1;stroke-miterlimit:10;" d="M 1.418187 20.161531 L 16.301 20.161531 M 1.418187 20.161531 L 1.418187 20.161531 " transform="matrix(1,0,0,-1,0.199,56.892)"/>
<path style=" stroke:none;fill-rule:nonzero;fill:rgb(0%,0%,0%);fill-opacity:1;" d="M 8.488281 36.730469 L 8.488281 34.300781 L 13.898438 36.730469 L 8.488281 39.160156 Z M 8.488281 36.730469 "/>
<g clip-path="url(#clip2)" clip-rule="nonzero">
<path style="fill:none;stroke-width:0.3985;stroke-linecap:butt;stroke-linejoin:miter;stroke:rgb(0%,0%,0%);stroke-opacity:1;stroke-miterlimit:10;" d="M 31.179906 51.731844 L 31.179906 56.692781 M 1.418187 20.161531 L 0.00021875 18.993563 M 31.179906 4.962313 L 31.179906 0.001375 " transform="matrix(1,0,0,-1,0.199,56.892)"/>
</g>
</g>
</svg>
