<?xml version="1.0" encoding="UTF-8"?>
<svg xmlns="http://www.w3.org/2000/svg" xmlns:xlink="http://www.w3.org/1999/xlink" width="31.779pt" height="57.091pt" viewBox="0 0 31.779 57.091" version="1.1">
<defs>
<clipPath id="clip1">
  <path d="M 16 4 L 31.777344 4 L 31.777344 21 L 16 21 Z M 16 4 "/>
</clipPath>
<clipPath id="clip2">
  <path d="M 16 28 L 31.777344 28 L 31.777344 53 L 16 53 Z M 16 28 "/>
</clipPath>
<clipPath id="clip3">
  <path d="M 31 28 L 31.777344 28 L 31.777344 53 L 31 53 Z M 31 28 "/>
</clipPath>
<clipPath id="clip4">
  <path d="M 0 0 L 31.777344 0 L 31.777344 57.089844 L 0 57.089844 Z M 0 0 "/>
</clipPath>
</defs>
<g id="surface1">
<g clip-path="url(#clip1)" clip-rule="nonzero">
<path style="fill:none;stroke-width:0.3985;stroke-linecap:butt;stroke-linejoin:miter;stroke:rgb(0%,0%,0%);stroke-opacity:1;stroke-miterlimit:10;" d="M 31.179906 51.931063 L 31.179906 36.532625 L 16.301 36.532625 " transform="matrix(1,0,0,-1,0.199,56.892)"/>
</g>
<path style="fill:none;stroke-width:0.797;stroke-linecap:butt;stroke-linejoin:miter;stroke:rgb(0%,0%,0%);stroke-opacity:1;stroke-miterlimit:10;" d="M 16.301 40.040438 L 16.301 33.606844 M 16.301 31.270906 L 16.301 25.42325 M 16.301 23.083406 L 16.301 16.653719 " transform="matrix(1,0,0,-1,0.199,56.892)"/>
<g clip-path="url(#clip2)" clip-rule="nonzero">
<path style="fill:none;stroke-width:0.3985;stroke-linecap:butt;stroke-linejoin:miter;stroke:rgb(0%,0%,0%);stroke-opacity:1;stroke-miterlimit:10;" d="M 16.301 28.345125 L 31.379125 28.345125 M 16.301 20.161531 L 31.179906 20.161531 L 31.179906 4.763094 " transform="matrix(1,0,0,-1,0.199,56.892)"/>
</g>
<path style="fill:none;stroke-width:0.797;stroke-linecap:butt;stroke-linejoin:miter;stroke:rgb(0%,0%,0%);stroke-opacity:1;stroke-miterlimit:10;" d="M 12.726781 36.731844 L 12.726781 19.962313 " transform="matrix(1,0,0,-1,0.199,56.892)"/>
<path style=" stroke:none;fill-rule:nonzero;fill:rgb(0%,0%,0%);fill-opacity:1;" d="M 24.511719 28.546875 L 24.511719 30.972656 L 19.097656 28.546875 L 24.511719 26.117188 Z M 24.511719 28.546875 "/>
<path style="fill:none;stroke-width:0.3985;stroke-linecap:butt;stroke-linejoin:miter;stroke:rgb(0%,0%,0%);stroke-opacity:1;stroke-miterlimit:10;" d="M 12.726781 20.161531 L 1.218969 20.161531 " transform="matrix(1,0,0,-1,0.199,56.892)"/>
<g clip-path="url(#clip3)" clip-rule="nonzero">
<path style="fill:none;stroke-width:0.3985;stroke-linecap:butt;stroke-linejoin:miter;stroke:rgb(0%,0%,0%);stroke-opacity:1;stroke-miterlimit:10;" d="M 31.179906 28.345125 L 31.179906 4.962313 " transform="matrix(1,0,0,-1,0.199,56.892)"/>
</g>
<g clip-path="url(#clip4)" clip-rule="nonzero">
<path style="fill:none;stroke-width:0.3985;stroke-linecap:butt;stroke-linejoin:miter;stroke:rgb(0%,0%,0%);stroke-opacity:1;stroke-miterlimit:10;" d="M 31.179906 51.731844 L 31.179906 56.692781 M 1.418187 20.161531 L 0.00021875 20.126375 M 31.179906 4.962313 L 31.179906 0.001375 " transform="matrix(1,0,0,-1,0.199,56.892)"/>
</g>
</g>
</svg>
