<?xml version="1.0" encoding="UTF-8"?>
<svg xmlns="http://www.w3.org/2000/svg" xmlns:xlink="http://www.w3.org/1999/xlink" width="43.897pt" height="57.091pt" viewBox="0 0 43.897 57.091" version="1.1">
<defs>
<clipPath id="clip1">
  <path d="M 25 14 L 43.898438 14 L 43.898438 43 L 25 43 Z M 25 14 "/>
</clipPath>
<clipPath id="clip2">
  <path d="M 36 25 L 43.898438 25 L 43.898438 27 L 36 27 Z M 36 25 "/>
</clipPath>
<clipPath id="clip3">
  <path d="M 0 0 L 32 0 L 32 57.089844 L 0 57.089844 Z M 0 0 "/>
</clipPath>
</defs>
<g id="surface1">
<path style="fill:none;stroke-width:0.3985;stroke-linecap:butt;stroke-linejoin:miter;stroke:rgb(0%,0%,0%);stroke-opacity:1;stroke-miterlimit:10;" d="M 31.179906 51.931063 L 31.179906 36.532625 L 16.301 36.532625 " transform="matrix(1,0,0,-1,0.199,56.892)"/>
<path style="fill:none;stroke-width:0.797;stroke-linecap:butt;stroke-linejoin:miter;stroke:rgb(0%,0%,0%);stroke-opacity:1;stroke-miterlimit:10;" d="M 16.301 40.040438 L 16.301 33.606844 M 16.301 31.270906 L 16.301 25.42325 M 16.301 23.083406 L 16.301 16.653719 " transform="matrix(1,0,0,-1,0.199,56.892)"/>
<path style="fill:none;stroke-width:0.3985;stroke-linecap:butt;stroke-linejoin:miter;stroke:rgb(0%,0%,0%);stroke-opacity:1;stroke-miterlimit:10;" d="M 16.301 28.345125 L 31.379125 28.345125 M 16.301 20.161531 L 31.179906 20.161531 L 31.179906 4.763094 " transform="matrix(1,0,0,-1,0.199,56.892)"/>
<path style="fill:none;stroke-width:0.797;stroke-linecap:butt;stroke-linejoin:miter;stroke:rgb(0%,0%,0%);stroke-opacity:1;stroke-miterlimit:10;" d="M 12.726781 36.731844 L 12.726781 19.962313 " transform="matrix(1,0,0,-1,0.199,56.892)"/>
<path style=" stroke:none;fill-rule:nonzero;fill:rgb(0%,0%,0%);fill-opacity:1;" d="M 20.390625 28.546875 L 20.390625 26.117188 L 25.804688 28.546875 L 20.390625 30.972656 Z M 20.390625 28.546875 "/>
<path style="fill:none;stroke-width:0.3985;stroke-linecap:butt;stroke-linejoin:miter;stroke:rgb(0%,0%,0%);stroke-opacity:1;stroke-miterlimit:10;" d="M 12.726781 28.345125 L 1.218969 28.345125 " transform="matrix(1,0,0,-1,0.199,56.892)"/>
<g clip-path="url(#clip1)" clip-rule="nonzero">
<path style="fill:none;stroke-width:0.797;stroke-linecap:butt;stroke-linejoin:miter;stroke:rgb(0%,0%,0%);stroke-opacity:1;stroke-miterlimit:10;" d="M 40.109594 30.899813 L 36.922094 25.794344 L 43.301 25.794344 Z M 40.109594 30.899813 " transform="matrix(1,0,0,-1,0.199,56.892)"/>
</g>
<g clip-path="url(#clip2)" clip-rule="nonzero">
<path style="fill:none;stroke-width:0.797;stroke-linecap:butt;stroke-linejoin:miter;stroke:rgb(0%,0%,0%);stroke-opacity:1;stroke-miterlimit:10;" d="M 43.301 30.899813 L 36.922094 30.899813 " transform="matrix(1,0,0,-1,0.199,56.892)"/>
</g>
<path style="fill:none;stroke-width:0.3985;stroke-linecap:butt;stroke-linejoin:miter;stroke:rgb(0%,0%,0%);stroke-opacity:1;stroke-miterlimit:10;" d="M 31.179906 42.380281 L 40.109594 42.380281 L 40.109594 30.899813 " transform="matrix(1,0,0,-1,0.199,56.892)"/>
<path style="fill-rule:nonzero;fill:rgb(0%,0%,0%);fill-opacity:1;stroke-width:0.3985;stroke-linecap:butt;stroke-linejoin:miter;stroke:rgb(0%,0%,0%);stroke-opacity:1;stroke-miterlimit:10;" d="M 32.031469 42.380281 C 32.031469 42.849031 31.652562 43.227938 31.179906 43.227938 C 30.711156 43.227938 30.33225 42.849031 30.33225 42.380281 C 30.33225 41.907625 30.711156 41.528719 31.179906 41.528719 C 31.652562 41.528719 32.031469 41.907625 32.031469 42.380281 Z M 32.031469 42.380281 " transform="matrix(1,0,0,-1,0.199,56.892)"/>
<path style="fill:none;stroke-width:0.3985;stroke-linecap:butt;stroke-linejoin:miter;stroke:rgb(0%,0%,0%);stroke-opacity:1;stroke-miterlimit:10;" d="M 31.179906 14.313875 L 40.109594 14.313875 L 40.109594 25.794344 " transform="matrix(1,0,0,-1,0.199,56.892)"/>
<path style="fill-rule:nonzero;fill:rgb(0%,0%,0%);fill-opacity:1;stroke-width:0.3985;stroke-linecap:butt;stroke-linejoin:miter;stroke:rgb(0%,0%,0%);stroke-opacity:1;stroke-miterlimit:10;" d="M 32.031469 14.313875 C 32.031469 14.782625 31.652562 15.165438 31.179906 15.165438 C 30.711156 15.165438 30.33225 14.782625 30.33225 14.313875 C 30.33225 13.845125 30.711156 13.466219 31.179906 13.466219 C 31.652562 13.466219 32.031469 13.845125 32.031469 14.313875 Z M 32.031469 14.313875 " transform="matrix(1,0,0,-1,0.199,56.892)"/>
<g clip-path="url(#clip3)" clip-rule="nonzero">
<path style="fill:none;stroke-width:0.3985;stroke-linecap:butt;stroke-linejoin:miter;stroke:rgb(0%,0%,0%);stroke-opacity:1;stroke-miterlimit:10;" d="M 31.179906 4.962313 L 31.179906 0.001375 M 1.418187 28.345125 L 0.00021875 28.345125 M 31.179906 51.731844 L 31.179906 56.692781 " transform="matrix(1,0,0,-1,0.199,56.892)"/>
</g>
</g>
</svg>
