<?xml version="1.0" encoding="UTF-8"?>
<svg xmlns="http://www.w3.org/2000/svg" xmlns:xlink="http://www.w3.org/1999/xlink" width="57.091pt" height="12.78pt" viewBox="0 0 57.091 12.78" version="1.1">
<defs>
<clipPath id="clip1">
  <path d="M 0 9 L 57.089844 9 L 57.089844 10 L 0 10 Z M 0 9 "/>
</clipPath>
<clipPath id="clip2">
  <path d="M 9 0 L 45 0 L 45 12.78125 L 9 12.78125 Z M 9 0 "/>
</clipPath>
<clipPath id="clip3">
  <path d="M 27 7 L 32 7 L 32 12.78125 L 27 12.78125 Z M 27 7 "/>
</clipPath>
</defs>
<g id="surface1">
<g clip-path="url(#clip1)" clip-rule="nonzero">
<path style="fill:none;stroke-width:0.3985;stroke-linecap:butt;stroke-linejoin:miter;stroke:rgb(0%,0%,0%);stroke-opacity:1;stroke-miterlimit:10;" d="M 0.00021875 -0.001125 L 20.906469 -0.001125 M 35.789281 -0.001125 L 56.695531 -0.001125 " transform="matrix(1,0,0,-1,0.199,9.327)"/>
</g>
<g clip-path="url(#clip2)" clip-rule="nonzero">
<path style="fill:none;stroke-width:0.797;stroke-linecap:butt;stroke-linejoin:miter;stroke:rgb(0%,0%,0%);stroke-opacity:1;stroke-miterlimit:10;" d="M 20.906469 -0.001125 L 32.812719 7.440281 " transform="matrix(1,0,0,-1,0.199,9.327)"/>
</g>
<path style="fill:none;stroke-width:0.797;stroke-linecap:butt;stroke-linejoin:bevel;stroke:rgb(0%,0%,0%);stroke-opacity:1;stroke-miterlimit:10;" d="M 20.906469 8.928562 C 24.093969 8.928562 27.043187 7.225437 28.636937 4.463719 C 29.433812 3.088719 29.836156 1.54575 29.836156 -0.00503125 " transform="matrix(1,0,0,-1,0.199,9.327)"/>
<g clip-path="url(#clip3)" clip-rule="nonzero">
<path style=" stroke:none;fill-rule:nonzero;fill:rgb(0%,0%,0%);fill-opacity:1;" d="M 29.496094 12.382812 C 29.828125 11.101562 30.484375 8.804688 31.738281 7.324219 C 30.238281 8.53125 29.207031 8.472656 27.859375 7.097656 C 28.933594 8.714844 29.3125 11.074219 29.496094 12.382812 Z M 29.496094 12.382812 "/>
</g>
</g>
</svg>
