<?xml version="1.0" encoding="UTF-8"?>
<svg xmlns="http://www.w3.org/2000/svg" xmlns:xlink="http://www.w3.org/1999/xlink" width="9.301pt" height="17.207pt" viewBox="0 0 9.301 17.207" version="1.1">
<defs>
<clipPath id="clip1">
  <path d="M 4 16 L 5 16 L 5 17.207031 L 4 17.207031 Z M 4 16 "/>
</clipPath>
<clipPath id="clip2">
  <path d="M 0 0 L 9.300781 0 L 9.300781 17.207031 L 0 17.207031 Z M 0 0 "/>
</clipPath>
<clipPath id="clip3">
  <path d="M 4 4 L 5 4 L 5 17.207031 L 4 17.207031 Z M 4 4 "/>
</clipPath>
</defs>
<g id="surface1">
<g clip-path="url(#clip1)" clip-rule="nonzero">
<path style="fill:none;stroke-width:0.3985;stroke-linecap:butt;stroke-linejoin:miter;stroke:rgb(0%,0%,0%);stroke-opacity:1;stroke-miterlimit:10;" d="M -0.0015625 0.0001875 L -0.0015625 0.0001875 M -0.0015625 0.0001875 L -0.0015625 0.0001875 " transform="matrix(1,0,0,-1,4.65,17.008)"/>
</g>
<g clip-path="url(#clip2)" clip-rule="nonzero">
<path style="fill:none;stroke-width:0.797;stroke-linecap:butt;stroke-linejoin:miter;stroke:rgb(0%,0%,0%);stroke-opacity:1;stroke-miterlimit:10;" d="M -4.251562 6.804875 L -0.0015625 12.754094 L 4.252344 6.804875 " transform="matrix(1,0,0,-1,4.65,17.008)"/>
</g>
<g clip-path="url(#clip3)" clip-rule="nonzero">
<path style="fill:none;stroke-width:0.3985;stroke-linecap:butt;stroke-linejoin:miter;stroke:rgb(0%,0%,0%);stroke-opacity:1;stroke-miterlimit:10;" d="M -0.0015625 0.0001875 L -0.0015625 12.754094 " transform="matrix(1,0,0,-1,4.65,17.008)"/>
</g>
</g>
</svg>
