<svg xmlns="http://www.w3.org/2000/svg" width="440" height="400" viewBox="0 0 440 400" version="1.1"><path d="M 378.200 260.200 C 376.378 262.022, 376.753 267.466, 378.829 269.345 C 381.077 271.379, 384.354 271.483, 385.942 269.569 C 387.547 267.636, 387.597 262.424, 386.029 260.535 C 384.512 258.708, 379.890 258.510, 378.200 260.200" stroke="none" fill="#000000" fill-rule="evenodd"/><path d="M 401.455 285.455 C 400.105 286.805, 399 288.619, 399 289.486 C 399 291.520, 401.800 292.600, 403.267 291.133 C 404.981 289.419, 406 289.767, 406 292.066 C 406 295.931, 407.869 298, 411.361 298 C 415.168 298, 419 294.582, 419 291.186 C 419 288.286, 415.724 288.277, 413.803 291.171 C 411.905 294.028, 410 292.761, 410 288.641 C 410 282.751, 405.744 281.165, 401.455 285.455" stroke="none" fill="#ed3624" fill-rule="evenodd"/><path d="M 308.287 43.447 C 299.928 47.339, 294.527 53.590, 288.515 66.331 C 285.617 72.474, 281.830 79.900, 280.100 82.834 C 276.632 88.712, 271.567 103.086, 267.532 118.500 C 266.093 124, 262.057 138.175, 258.564 150 C 255.071 161.825, 251.468 174.875, 250.557 179 C 247.496 192.859, 249.163 191.395, 235.480 192.236 C 228.891 192.641, 214.725 193.655, 204 194.488 C 193.275 195.322, 178.237 196.300, 170.581 196.663 C 157.153 197.298, 156.689 197.254, 157.399 195.411 C 157.804 194.360, 158.618 191.475, 159.208 189 C 159.798 186.525, 161.095 181.800, 162.090 178.500 C 167.576 160.301, 168.563 135.767, 164.593 116.301 C 160.804 97.725, 153.677 82.068, 144.863 72.956 C 138.860 66.750, 126.331 59.369, 119.738 58.154 C 114.904 57.264, 97.436 58.437, 95.671 59.771 C 95.027 60.257, 92.250 61.474, 89.500 62.474 C 76.167 67.324, 66.999 73.780, 60.939 82.589 C 57.799 87.152, 51.077 103.354, 48.494 112.581 C 47.421 116.414, 46.644 124.244, 46.288 134.796 C 45.803 149.145, 45.955 151.573, 47.552 155.115 C 51.155 163.105, 60.748 164.398, 66.228 157.633 C 68.361 154.999, 68.533 148.088, 66.532 145.441 C 63.974 142.060, 64.518 125.888, 67.539 115.461 C 71.170 102.932, 75.988 93.079, 80.351 89.257 C 86.748 83.654, 104.003 77, 112.136 77 C 117.011 77, 124.051 80.241, 129.173 84.842 C 133.243 88.498, 135.372 91.650, 139.077 99.500 C 145.193 112.459, 146.949 119.710, 147.683 135.029 C 148.526 152.642, 146.235 165.514, 137.293 193.419 L 134.436 202.337 121.930 207.419 C 107.739 213.185, 93.093 221.985, 85 229.608 C 81.975 232.457, 75.921 237.649, 71.546 241.144 C 61.194 249.416, 48.471 264.964, 42.330 276.846 L 37.500 286.192 37.500 298.346 C 37.500 309.360, 37.744 311.016, 40.101 316 C 46.704 329.960, 57.918 334.278, 75.426 329.602 C 95.204 324.321, 102.878 315.402, 123.691 273.500 C 129.701 261.400, 135.149 250.600, 135.797 249.500 C 137.797 246.105, 146.719 226.383, 147.971 222.589 C 148.622 220.615, 149.233 218.984, 149.328 218.965 C 159.319 216.944, 167.882 216.035, 177.091 216.020 C 183.466 216.009, 192.241 215.552, 196.591 215.004 C 204.042 214.065, 240.222 211.889, 240.685 212.351 C 240.803 212.469, 239.378 218.401, 237.520 225.533 C 227.136 265.373, 223.473 286.441, 224.131 302.525 C 224.775 318.269, 231.535 328.311, 246.241 335.368 C 254.074 339.127, 273.425 342.297, 281.045 341.070 C 289.413 339.723, 306.495 333.622, 312.475 329.846 C 315.239 328.101, 319.525 325.550, 322 324.178 C 332.999 318.078, 351.997 304.665, 357.306 299.250 L 363.112 293.329 367.806 295.752 C 372.102 297.969, 373.253 298.121, 381.391 297.541 C 392.863 296.723, 399.341 293.890, 399.482 289.631 C 399.537 287.963, 400.502 286.012, 401.788 284.970 C 403.691 283.430, 404 282.197, 404 276.155 C 404 272.291, 403.570 267.999, 403.045 266.617 C 401.313 262.064, 395.130 256.232, 390.281 254.580 C 384.280 252.535, 365.181 252.942, 360 255.224 C 354.177 257.790, 348.571 263.464, 345.095 270.312 C 342.338 275.745, 341.858 277.671, 342.151 282.140 L 342.500 287.478 331.227 295.489 C 317.241 305.427, 299.162 315.522, 288.751 319.206 C 275.118 324.030, 262.973 322.792, 251.298 315.386 C 243.518 310.451, 242.597 307.969, 243.381 294.040 C 244.064 281.885, 244.113 281.595, 249.102 259.500 C 255.103 232.926, 261.191 210.680, 263.088 208.394 C 263.669 207.694, 270.524 203.988, 278.322 200.157 C 295.408 191.764, 301.878 187.033, 310.674 176.500 C 323.807 160.774, 338.090 135.233, 341.432 121.500 C 342.369 117.650, 343.529 112.925, 344.011 111 C 349.241 90.099, 349.072 68.942, 343.588 58.215 C 340.124 51.439, 334.244 45.016, 329.556 42.886 C 323.617 40.189, 314.785 40.421, 308.287 43.447 M 312.822 63.995 C 309.471 66.758, 305.108 74.457, 292.419 100 C 291.190 102.475, 288.808 109.900, 287.125 116.500 C 285.443 123.100, 282.927 132.263, 281.534 136.863 C 280.140 141.463, 279 145.989, 279 146.922 C 279 147.854, 277.656 152.299, 276.014 156.798 C 273.445 163.839, 272.299 168.187, 269.418 181.815 C 268.955 184.006, 269.402 183.886, 277.728 179.586 C 287.690 174.441, 293.086 169.396, 303.633 155.363 C 313.910 141.689, 317.626 134.781, 322.117 121 C 327.432 104.692, 329 96.123, 329 83.380 C 329 71.905, 327.950 68.154, 323.504 63.750 C 319.938 60.218, 317.331 60.278, 312.822 63.995 M 116.524 230.728 C 97.705 240.244, 69.823 266.445, 59.528 284.289 C 56.934 288.784, 56.790 289.653, 57.176 298.482 C 57.783 312.359, 60.261 314.211, 72.560 309.979 C 79.251 307.677, 82.386 305.010, 88.402 296.500 C 95.199 286.884, 99.713 278.906, 104.615 267.843 C 107.135 262.154, 112.542 250.802, 116.630 242.615 C 120.719 234.429, 123.937 227.611, 123.782 227.466 C 123.627 227.320, 120.361 228.788, 116.524 230.728 M 378.200 260.200 C 376.378 262.022, 376.753 267.466, 378.829 269.345 C 381.077 271.379, 384.354 271.483, 385.942 269.569 C 387.547 267.636, 387.597 262.424, 386.029 260.535 C 384.512 258.708, 379.890 258.510, 378.200 260.200" stroke="none" fill="#63bb43" fill-rule="evenodd"/></svg>