<?xml version="1.0" encoding="UTF-8" standalone="no"?>
<svg
   width="512"
   height="512"
   version="1"
   id="svg1"
   sodipodi:docname="arrow.svg"
   inkscape:version="1.3.2 (091e20ef0f, 2023-11-25, custom)"
   xml:space="preserve"
   xmlns:inkscape="http://www.inkscape.org/namespaces/inkscape"
   xmlns:sodipodi="http://sodipodi.sourceforge.net/DTD/sodipodi-0.dtd"
   xmlns="http://www.w3.org/2000/svg"
   xmlns:svg="http://www.w3.org/2000/svg"><sodipodi:namedview
     id="namedview1"
     pagecolor="#ffffff"
     bordercolor="#000000"
     borderopacity="0.25"
     inkscape:showpageshadow="2"
     inkscape:pageopacity="0.0"
     inkscape:pagecheckerboard="0"
     inkscape:deskcolor="#d1d1d1"
     inkscape:zoom="0.51953126"
     inkscape:cx="414.79698"
     inkscape:cy="473.50375"
     inkscape:window-width="1280"
     inkscape:window-height="952"
     inkscape:window-x="0"
     inkscape:window-y="0"
     inkscape:window-maximized="1"
     inkscape:current-layer="svg1" /><defs
     id="defs1" /><g
     transform="matrix(0,-0.01633135,-0.01633135,0,465.66187,459.8969)"
     fill="#000000"
     stroke="none"
     id="g4"><path
       d="m 8955,18540 -3520,-3520 948,-947 947,-948 2573,2573 c 1414,1414 2577,2572 2582,2572 5,0 1168,-1158 2582,-2572 l 2573,-2573 947,948 948,947 -3520,3520 c -1936,1936 -3524,3520 -3530,3520 -6,0 -1594,-1584 -3530,-3520 z"
       id="path1"
       style="stroke:#ffffff;stroke-opacity:1;stroke-width:551.08732591;stroke-dasharray:none" /><path
       d="m 12345,15023 c -946,-61 -1759,-724 -2005,-1636 -180,-666 -47,-1361 368,-1921 88,-119 303,-337 417,-423 406,-306 867,-463 1360,-463 843,0 1617,480 1990,1234 499,1008 175,2216 -762,2842 -389,260 -900,397 -1368,367 z"
       id="path2"
       style="stroke:#ffffff;stroke-opacity:1;stroke-width:551.08732591;stroke-dasharray:none" /><path
       d="m 12266,9845 c -341,-56 -617,-196 -856,-435 -519,-519 -593,-1308 -182,-1930 80,-121 280,-319 407,-403 167,-110 344,-185 543,-230 82,-18 128,-21 302,-22 179,0 218,3 308,23 317,71 548,197 767,416 266,266 410,575 446,950 33,355 -79,744 -300,1037 -224,298 -545,500 -916,579 -132,28 -392,36 -519,15 z"
       id="path3"
       style="stroke:#ffffff;stroke-opacity:1;stroke-width:551.08732591;stroke-dasharray:none" /><path
       d="m 12367,5829 c -381,-40 -721,-282 -887,-631 -201,-424 -114,-926 219,-1259 147,-147 311,-240 520,-297 85,-23 115,-26 266,-26 151,0 181,3 266,26 210,57 376,152 521,298 148,149 240,313 293,524 94,369 -20,770 -297,1047 -181,181 -415,291 -678,319 -106,11 -113,11 -223,-1 z"
       id="path4"
       style="stroke:#ffffff;stroke-opacity:1;stroke-width:551.08732591;stroke-dasharray:none" /></g></svg>
