<?xml version="1.0" encoding="UTF-8" standalone="no"?>
<svg
   width="500"
   height="512"
   version="1"
   id="svg1"
   xml:space="preserve"
   sodipodi:docname="avatar_red.svg"
   inkscape:version="1.3.2 (091e20ef0f, 2023-11-25, custom)"
   xmlns:inkscape="http://www.inkscape.org/namespaces/inkscape"
   xmlns:sodipodi="http://sodipodi.sourceforge.net/DTD/sodipodi-0.dtd"
   xmlns="http://www.w3.org/2000/svg"
   xmlns:svg="http://www.w3.org/2000/svg"><sodipodi:namedview
     id="namedview1"
     pagecolor="#ffffff"
     bordercolor="#000000"
     borderopacity="0.25"
     inkscape:showpageshadow="2"
     inkscape:pageopacity="0.0"
     inkscape:pagecheckerboard="0"
     inkscape:deskcolor="#d1d1d1"
     inkscape:zoom="0.62"
     inkscape:cx="250"
     inkscape:cy="256.45161"
     inkscape:window-width="1280"
     inkscape:window-height="952"
     inkscape:window-x="0"
     inkscape:window-y="0"
     inkscape:window-maximized="1"
     inkscape:current-layer="svg1" /><defs
     id="defs1" /><path
     style="fill:#c30202;stroke-width:0.557081;fill-opacity:1"
     d="m 186.87224,511.83975 c 17.0483,-2.17636 36.94371,-9.48668 56.60371,-20.79833 13.5716,-7.80861 26.22455,-16.87997 36.81709,-26.39549 8.88662,-7.98304 18.74203,-19.46648 23.5505,-27.44083 2.23628,-3.70863 2.38053,-3.28778 0.88924,2.59433 -2.57652,10.16268 -8.62499,22.6906 -14.09419,29.19269 l -2.37749,2.82649 1.90881,-1.35486 c 3.12316,-2.21679 12.77033,-11.71029 16.15906,-15.90166 17.46285,-21.59905 25.4501,-42.00502 27.69253,-70.74936 l 0.39113,-5.01374 1.05453,3.3425 c 3.01113,9.54428 3.86998,25.56472 1.90465,35.52781 -1.87375,9.49887 -6.91527,21.15346 -12.19925,28.2013 -3.66247,4.88505 -1.004,2.52207 5.50804,-4.89582 8.16201,-9.29738 19.26518,-27.81255 23.92272,-39.89252 1.9079,-4.94841 1.61255,-2.41764 -0.62517,5.35681 -4.61122,16.02061 -11.71525,28.84613 -23.4294,42.29913 -4.26246,4.89518 -13.13169,13.10089 -16.43958,15.20971 -1.93263,1.23208 -2.08192,1.63035 -0.36159,0.96471 7.65463,-2.96181 20.55624,-10.43864 25.4339,-14.73965 2.03709,-1.79626 -2.753,5.12836 -6.82401,9.86491 -5.02495,5.84641 -10.24396,10.86816 -16.6755,16.04522 -6.49323,5.22672 -19.42953,13.89286 -25.17058,16.862 -5.06492,2.61947 -3.95914,2.5408 3.15478,-0.22444 32.44443,-12.61138 59.97351,-39.30599 74.42404,-72.16805 7.97591,-18.13811 11.29548,-32.35139 11.41253,-48.86466 0.0363,-5.13666 0.26504,-8.98407 0.50807,-8.5498 1.1755,2.1005 4.3917,12.86835 5.15703,17.26579 3.07873,17.68946 -1.80035,39.05716 -13.06568,57.2206 -3.42054,5.51503 -10.48978,14.88145 -14.45632,19.15392 -3.45339,3.71975 -2.97887,3.43893 3.89573,-2.30561 19.21649,-16.05763 38.22691,-45.02274 46.75626,-71.23987 4.63372,-14.24293 6.1617,-23.17082 6.62241,-38.6945 l 0.35545,-11.97726 1.86974,3.89957 c 2.3362,4.87247 4.14395,10.06516 5.4645,15.69666 1.41814,6.04768 1.43199,22.84252 0.0245,29.81747 -2.62057,12.98727 -7.47238,25.41759 -14.1986,36.37687 l -1.36764,2.22833 2.89994,-2.78541 c 3.98662,-3.82918 11.26237,-12.90978 15.17612,-18.94078 8.56555,-13.19929 14.7405,-29.11795 17.82788,-45.95923 1.58586,-8.65064 1.71616,-27.17626 0.24624,-35.00955 -0.91991,-4.90231 -0.92245,-5.45017 -0.0435,-9.4008 0.7188,-3.23088 0.8644,-5.81166 0.63346,-11.22822 -0.31654,-7.42413 -1.31928,-11.87263 -3.99232,-17.71132 -0.79063,-1.72696 -1.34415,-3.23331 -1.23005,-3.34741 0.11411,-0.11411 1.55917,1.7365 3.21124,4.11247 9.8421,14.15468 15.35662,26.21849 18.40982,40.2741 1.11638,5.13936 1.27061,7.40458 1.27061,18.66223 0,13.86655 -0.67038,18.76167 -3.84653,28.0874 -0.77416,2.27309 -1.28527,4.25519 -1.1358,4.40467 0.14948,0.14947 2.02235,-3.35263 4.16194,-7.78246 6.83239,-14.14583 11.25689,-29.91467 12.11309,-43.17082 l 0.39078,-6.05038 0.7396,3.62103 c 1.2702,6.21882 1.53142,21.18357 0.47543,27.23694 -0.50201,2.87773 -0.81898,5.32599 -0.7044,5.44057 0.27316,0.27316 2.29481,-6.64336 3.6895,-12.62257 4.76886,-20.44476 4.1494,-51.77161 -1.43206,-72.4206 -6.42139,-23.75633 -17.22568,-43.61307 -32.51977,-59.76671 -2.83865,-2.99818 -5.05015,-5.56227 -4.91444,-5.69799 0.1357,-0.13571 2.48747,0.35612 5.22615,1.09293 16.83224,4.52859 29.15867,11.25264 39.20434,21.38591 3.42885,3.45875 3.91563,3.80251 2.82551,1.99534 -7.27658,-12.06288 -16.30619,-21.78375 -28.69422,-30.89085 -4.28953,-3.15346 -9.67929,-7.25257 -11.97725,-9.10911 -4.19338,-3.38789 -15.80063,-14.81091 -15.4282,-15.18334 0.10936,-0.10936 2.184,0.39112 4.6103,1.11219 7.84147,2.33039 11.80309,2.86521 21.12391,2.85176 9.7968,-0.0142 14.70528,-0.92548 22.66657,-4.20845 3.25067,-1.34047 13.26519,-7.43356 13.26519,-8.07088 0,-0.0987 -1.08949,0.30244 -2.42109,0.89147 -4.00291,1.77068 -9.80292,2.88299 -15.40552,2.95442 -5.42369,0.0692 -12.81288,-1.03971 -12.81288,-1.92278 0,-0.27171 0.34484,-0.49401 0.76631,-0.49401 1.21733,0 6.95338,-2.68147 9.75928,-4.56223 5.17028,-3.46559 9.86031,-8.5884 13.41882,-14.65708 l 1.30663,-2.22833 -1.9017,1.72665 c -2.63563,2.393 -8.19627,5.62381 -11.83258,6.87489 -15.75913,5.42193 -35.26976,0.87489 -52.74379,-12.2922 -5.17019,-3.89584 -9.45826,-8.06639 -24.63048,-23.95534 l -10.9723,-11.49064 4.01511,1.55491 c 6.01878,2.33085 12.17468,3.47705 18.77779,3.49632 9.20749,0.0269 15.97768,-2.31907 23.18122,-8.032601 3.64887,-2.894122 9.01306,-9.374023 7.12922,-8.612055 -4.76169,1.925989 -12.36777,2.740877 -18.84334,2.018806 -13.38465,-1.492477 -24.70638,-5.947604 -45.44908,-17.884321 -11.52817,-6.634073 -28.60548,-14.36138 -38.16009,-17.267039 -2.14476,-0.652248 -4.52629,-1.381669 -5.29227,-1.620935 -2.5846,-0.807323 5.82694,-1.313442 16.12646,-0.97032 16.19026,0.539373 29.05436,4.211537 40.18898,11.472283 l 3.57083,2.328495 -4.17811,-3.925225 C 374.77185,55.374926 365.48858,48.879327 354.5538,43.660052 333.00164,33.372989 313.1959,30.950526 285.03494,35.157115 c -3.30636,0.493892 -6.12907,0.780477 -6.2727,0.63685 -0.35229,-0.352287 14.8452,-7.967687 18.6907,-9.365828 l 3.06395,-1.113985 -4.25815,0.274719 c -8.97676,0.579142 -22.55431,4.260928 -33.96612,9.210503 -2.72226,1.180707 -4.94955,1.999789 -4.94955,1.820186 0,-0.667651 6.4704,-8.927021 10.27211,-13.112179 2.1634,-2.381625 8.14965,-8.258674 13.30276,-13.060116 5.15312,-4.8014409 9.63234,-9.2213819 9.95383,-9.82208297 0.56616,-1.05789233 0.52561,-1.05602054 -1.29162,0.0595858 C 286.54233,2.5496987 278.90897,5.5238012 268.48469,8.9039658 227.5338,22.182663 210.56358,30.453658 200.92359,41.832089 c -5.02224,5.927927 -5.69369,7.093303 -2.73827,4.752569 2.08569,-1.651903 22.20097,-12.340622 23.22402,-12.340622 0.23233,0 -0.55623,1.065419 -1.75234,2.367597 -1.19611,1.302178 -3.78767,4.498434 -5.75902,7.10279 l -3.58429,4.735194 3.87293,-3.531307 c 2.13011,-1.942215 6.03475,-4.868553 8.67697,-6.50297 4.6633,-2.88459 15.64519,-8.627956 16.49753,-8.627956 0.23209,0 -1.20481,1.091701 -3.19311,2.426006 -1.98828,1.334305 -6.99934,5.377008 -11.13568,8.983782 -11.10979,9.687454 -10.96412,9.501305 -5.24498,6.702594 3.91488,-1.915781 18.75091,-7.448192 17.96183,-6.698026 -0.10038,0.09543 -5.4497,3.67207 -11.88737,7.948094 -14.88171,9.884717 -22.1601,15.919359 -27.71109,22.975748 l -1.53382,1.949788 0.32778,-1.949788 c 1.3541,-8.054573 4.2933,-15.687059 7.90302,-20.522472 l 1.5224,-2.03933 -2.16857,1.863309 c -1.19271,1.024819 -5.07835,3.763833 -8.63477,6.086702 -7.0673,4.616005 -16.91457,12.805723 -18.16598,15.108179 -1.22081,2.246173 -0.979,0.313223 0.61433,-4.910466 3.70791,-12.156345 10.77056,-22.034427 21.4926,-30.060368 1.7408,-1.30307 4.22686,-3.793497 5.5246,-5.534294 2.85505,-3.829801 12.88532,-14.207535 17.49315,-18.099151 1.83837,-1.552626 2.96647,-2.680198 2.50687,-2.50572 -10.97356,4.165934 -18.09755,7.646719 -25.32361,12.37315 -11.45945,7.495405 -17.81046,13.924828 -23.16435,23.450332 l -1.87867,3.34249 2.6902,-2.359018 c 4.08565,-3.582675 8.07625,-6.057159 15.06186,-9.3395 l 6.35081,-2.984074 -4.26619,3.998809 c -2.34641,2.199341 -4.91869,4.62552 -5.71619,5.391508 -2.33868,2.246253 -6.24415,5.248828 -7.97834,6.133858 -2.00608,1.023782 -9.67722,9.15582 -12.95141,13.729576 -1.3503,1.88624 -3.69848,5.771884 -5.21818,8.634767 -3.1786,5.988004 -3.5002,5.401419 -1.73297,-3.160872 1.15952,-5.617933 3.59167,-11.873286 6.52287,-16.776495 1.90856,-3.192556 1.78429,-3.100164 -5.34458,3.973501 -4.01422,3.983134 -8.72329,9.042995 -10.46462,11.244136 -1.74132,2.20114 -3.24442,3.923688 -3.34023,3.827876 -0.38849,-0.388496 4.23411,-10.283444 6.2604,-13.400766 1.19496,-1.83837 5.47509,-6.601417 9.51139,-10.584551 5.25538,-5.186162 8.49523,-8.958239 11.41257,-13.287432 2.24061,-3.324952 6.67643,-8.761389 9.85738,-12.08096 l 5.78354,-6.035595 -6.01545,3.11159 c -19.72399,10.202537 -32.60162,22.909864 -41.35355,40.806639 -3.02702,6.189929 -3.41767,6.070116 -1.75085,-0.536988 2.25277,-8.929795 6.74025,-17.672015 12.71119,-24.763117 l 3.72989,-4.42964 -5.83143,4.376773 c -11.15026,8.368808 -19.33565,17.989289 -24.4356,28.71975 -2.72129,5.72569 -5.0718,13.678681 -5.0718,17.160534 0,3.740838 -0.93979,2.27106 -1.7149,-2.682025 -1.49109,-9.528254 0.4709,-22.821769 4.72823,-32.036189 1.10021,-2.381284 2.0004,-4.463342 2.0004,-4.626802 0,-1.560357 -9.15184,9.957622 -11.9276,15.011399 -5.97732,10.882795 -7.93241,23.687251 -5.0616,33.149894 1.21643,4.009579 1.01279,4.148542 -1.13618,0.775273 -3.43649,-5.394336 -5.74787,-13.448156 -5.89425,-20.538118 l -0.0652,-3.154212 -0.53774,3.063949 c -0.7142,4.069389 -0.16017,15.040664 0.97054,19.219312 1.27206,4.701003 3.64489,9.465344 6.84865,13.751237 l 2.74763,3.67568 -6.75993,-0.0286 c -7.848572,-0.0332 -10.750686,0.62847 -14.359148,3.27388 -1.490612,1.09279 -3.731702,2.11616 -5.292275,2.41664 -8.846989,1.70351 -15.469135,6.66881 -18.013277,13.50639 -0.758635,2.03887 -1.145029,2.36666 -3.634292,3.08301 -1.531978,0.44087 -6.295022,1.00279 -10.58455,1.24872 -11.102254,0.63653 -16.718205,2.58914 -27.001151,9.38801 -4.297555,2.84146 -5.205354,3.2048 -10.189142,4.07817 -6.22174,1.09029 -9.9111245,2.65293 -11.3121847,4.79122 -1.2495341,1.90705 -2.5023546,11.40815 -1.9224884,14.57945 0.2399347,1.31204 0.9279307,3.05068 1.5288548,3.86365 0.6009797,0.81297 1.9356914,2.6743 2.9660694,4.13629 l 1.8734659,2.65815 -1.02698,2.63412 c -3.9709335,10.18545 -5.0469369,18.32615 -3.2283998,24.42621 0.628611,2.10851 1.4441228,5.33779 1.8122983,7.17616 0.932276,4.65526 2.4221905,7.29927 5.2273195,9.27651 l 2.404867,1.69513 0.301381,4.54164 c 0.850664,12.81994 5.239868,23.81812 12.676665,31.76422 3.759534,4.01702 8.81175,7.87654 8.076577,6.16992 -0.256301,-0.59496 -0.945587,-2.83656 -1.531755,-4.98133 -1.924433,-7.04145 -0.681663,-24.09414 1.870916,-25.67172 0.722827,-0.44673 8.14997,0.92418 9.05201,1.67084 0.40098,0.3319 1.298542,2.60895 1.994596,5.06011 3.065323,10.79461 9.290644,19.53157 16.93995,23.77443 2.030994,1.12654 3.689063,1.8786 3.684606,1.67124 -0.0043,-0.20734 -0.393096,-1.4826 -0.863647,-2.83389 -1.492124,-4.285 -2.562542,-13.24523 -2.148864,-17.98756 0.208492,-2.39014 0.482034,-4.34571 0.607873,-4.34571 0.888859,0 5.17645,2.71274 8.617772,5.45242 7.87848,6.27215 16.086993,16.33667 20.542307,25.18707 6.429756,12.77259 7.851376,27.43879 3.899806,40.23247 -2.009647,6.50651 -5.39789,10.04667 -12.392983,12.94864 l -2.079314,0.86262 -1.614227,-3.20662 c -0.887822,-1.76365 -2.648182,-5.83884 -3.911894,-9.05599 -1.26372,-3.21714 -2.515036,-6.18815 -2.780702,-6.60223 -0.74878,-1.16706 -3.252297,2.50282 -4.962019,7.27378 -1.304258,3.63953 -1.459224,4.89201 -1.484774,12.00059 -0.01569,4.36532 -0.187369,7.9376 -0.381513,7.93841 -0.194144,5.6e-4 -1.294049,-1.04018 -2.44424,-2.3133 -2.884995,-3.19334 -5.938483,-9.98799 -8.347894,-18.57579 -1.117515,-3.98313 -2.245381,-7.46231 -2.506368,-7.7315 -0.695996,-0.71788 -3.291719,2.27615 -4.806397,5.54393 -3.829819,8.26248 -3.133261,21.59377 1.592485,30.4786 1.003309,1.8863 3.640527,5.31722 5.860488,7.62424 4.249732,4.41642 4.959953,6.27948 3.252088,8.53089 -1.019038,1.34336 -0.147717,4.72108 1.828514,7.08828 l 1.48779,1.78215 -3.818178,3.88695 c -2.100003,2.13783 -3.677385,4.02776 -3.505292,4.19985 0.172093,0.17209 0.701042,-0.009 1.175445,-0.40295 1.103987,-0.91623 1.638725,-0.39658 0.954082,0.92717 -0.290892,0.56244 -0.689755,2.02536 -0.886368,3.25094 l -0.357476,2.22833 0.859026,-1.53198 c 0.472459,-0.84258 0.925271,-1.53197 1.006246,-1.53197 0.08097,0 0.05234,2.44419 -0.06357,5.43154 l -0.210803,5.43155 1.458577,-2.08906 c 1.754903,-2.51348 2.532572,-2.65187 2.532572,-0.45069 0,2.82744 0.953333,2.37297 1.414007,-0.67408 l 0.440567,-2.91407 0.452172,4.05641 c 0.410108,3.67909 3.07438,12.87202 4.376125,15.0996 0.4275,0.73155 0.52846,0.6335 0.542246,-0.52657 0.0093,-0.78403 0.358116,-1.89208 0.775099,-2.46235 0.69036,-0.94412 0.792168,-0.81012 1.138356,1.49844 0.364588,2.43124 3.35142,8.1611 5.165852,9.91 0.779196,0.75107 0.803968,0.71249 0.244768,-0.38118 -0.740098,-1.44749 -0.806962,-5.14937 -0.112802,-6.24564 0.382428,-0.60397 0.678855,-0.41747 1.328216,0.83562 1.230705,2.37494 7.45481,8.10345 10.975307,10.1014 1.685173,0.95637 5.051315,2.50388 7.480323,3.4389 l 4.416373,1.70006 -1.71259,-1.7999 c -1.42832,-1.50114 -5.17037,-8.03308 -5.17037,-9.02514 0,-0.16143 1.190758,0.55021 2.64614,1.58141 3.21703,2.27943 8.73885,4.50546 13.19373,5.31884 5.31991,0.97132 5.65544,0.85591 3.36306,-1.15683 -1.87389,-1.64529 -5.09441,-6.96302 -4.54793,-7.50951 0.13519,-0.13518 1.09753,0.25675 2.13855,0.87096 1.04101,0.61422 3.76749,1.40896 6.05884,1.76608 2.29134,0.35712 5.47199,0.95161 7.06811,1.3211 l 2.90203,0.67179 -0.95225,-1.61446 c -0.52374,-0.88796 -1.89232,-2.8573 -3.0413,-4.37631 -1.14898,-1.51902 -2.0881,-2.81943 -2.08694,-2.88982 0.001,-0.0704 3.10939,-0.18846 6.9072,-0.26239 7.17306,-0.13964 10.54656,0.51479 12.70014,2.46376 0.61606,0.55752 1.00256,0.6569 1.00256,0.2578 0,-1.24752 -2.29567,-5.52013 -3.64916,-6.79167 -2.02704,-1.90431 -1.69896,-2.37579 1.44312,-2.07387 l 2.80771,0.26979 -1.21838,-1.29691 c -1.88789,-2.00958 -4.24356,-2.48827 -11.41751,-2.32017 -3.64541,0.0854 -7.50542,-0.0391 -8.5778,-0.27671 -1.80649,-0.40028 -1.74508,-0.32063 0.83562,1.08386 3.46293,1.88461 2.37414,2.30841 -3.31743,1.29127 -4.14186,-0.74019 -7.16995,-1.91281 -10.32783,-3.9994 l -1.94655,-1.2862 1.36908,1.94979 c 0.753,1.07238 2.81507,3.40665 4.5824,5.18727 1.76732,1.78062 2.77924,3.10604 2.24871,2.94538 -0.53053,-0.16066 -1.96735,-0.52312 -3.19293,-0.80546 -1.22558,-0.28234 -2.72969,-0.67969 -3.34248,-0.883 -1.04786,-0.34766 -1.05402,-0.32663 -0.10361,0.35338 2.18948,1.56651 4.44908,3.78697 3.85373,3.78697 -0.34577,0 -2.70977,-0.6538 -5.25334,-1.4529 -7.27661,-2.28604 -12.312221,-4.98917 -15.842221,-8.50418 l -3.147709,-3.13433 2.113948,3.89957 c 1.162667,2.14476 2.615232,4.77697 3.227914,5.84936 0.914393,1.60046 0.39013,1.25113 -2.926209,-1.94979 l -4.040189,-3.89957 1.201456,2.50686 1.201448,2.50687 -2.955495,-3.072 c -1.625515,-1.68961 -3.663787,-3.94578 -4.529493,-5.01373 -1.383332,-1.70652 -1.524757,-1.77302 -1.167426,-0.54903 0.9161,3.13802 1.320837,5.39669 1.297729,7.24206 -0.02685,2.1428 0.10124,2.31508 -2.277756,-3.06395 l -1.231914,-2.78541 -0.308724,2.50525 -0.308724,2.50524 -1.841601,-4.00983 c -1.1989,-2.61043 -2.065715,-5.65333 -2.483763,-8.71912 l -0.642169,-4.7093 -1.553028,3.98556 c -0.854166,2.19205 -1.553942,4.47439 -1.555072,5.07186 -0.0036,1.67519 -0.823671,0.36796 -1.858425,-2.9608 -1.176669,-3.7853 -1.155281,-5.37275 0.109915,-8.15776 0.971388,-2.13824 4.555035,-5.84457 5.651118,-5.84457 0.677912,0 1.981579,2.56489 2.480019,4.87932 0.441583,2.05039 1.414468,1.90961 1.414468,-0.20468 0,-1.53521 1.443775,-4.67464 2.149793,-4.67464 0.247467,0 1.368739,1.94282 2.491732,4.31738 l 2.041799,4.31738 5.62e-4,-2.61326 c 5.54e-4,-1.43729 0.251779,-2.76819 0.558178,-2.95756 0.306391,-0.18936 0.557076,-0.0557 0.557076,0.29707 0,0.35275 0.508339,1.30761 1.129645,2.12193 1.540415,2.01895 8.515343,9.01227 8.752271,8.77534 0.104955,-0.10495 -0.319486,-1.05574 -0.943197,-2.11287 -0.623725,-1.05712 -1.293099,-3.08253 -1.487509,-4.5009 l -0.353473,-2.57887 3.693195,1.9611 c 2.031261,1.07859 3.693191,1.81015 3.693191,1.62568 0,-0.18446 -0.40486,-0.95329 -0.89969,-1.7085 -1.07121,-1.63488 -0.95458,-1.66563 1.51045,-0.39822 1.48509,0.76358 3.37539,0.98395 8.72037,1.01666 3.75333,0.023 6.82424,-0.16504 6.82424,-0.41781 0,-0.25277 -0.26818,-0.45957 -0.59597,-0.45957 -0.75935,0 -5.53149,-3.26618 -5.53322,-3.78707 -5.6e-4,-0.21508 1.89808,-0.30792 4.21953,-0.20632 l 4.22084,0.18473 -2.09055,-1.91584 -2.09056,-1.91585 3.02403,-0.72496 c 1.66321,-0.39873 4.52814,-1.41863 6.3665,-2.26646 l 3.34249,-1.54148 -2.50686,-0.0687 -2.50687,-0.0687 3.62103,-1.90177 c 1.99157,-1.04597 4.24775,-2.42646 5.01373,-3.06774 l 1.39271,-1.16596 -2.4582,0.374 -2.4582,0.374 1.42157,-2.43186 c 0.78186,-1.33754 2.85585,-5.06409 4.60887,-8.28123 5.14303,-9.43852 7.23415,-12.76936 12.79482,-20.38023 10.1177,-13.84803 12.33247,-20.40235 10.98272,-32.50179 -0.81153,-7.27466 -2.74242,-15.36244 -5.92818,-24.83086 -3.0458,-9.05248 -3.97606,-11.20764 -7.88847,-18.27558 -6.6515,-12.01621 -12.42075,-19.5741 -24.52644,-32.13032 -3.55012,-3.68223 -6.21089,-6.69497 -5.91285,-6.69497 0.29806,0 1.76872,0.92858 3.26816,2.06351 3.47708,2.63181 2.2907,0.95722 -2.78284,-3.92801 -2.17871,-2.09787 -3.58528,-3.62488 -3.12568,-3.39336 3.52863,1.77749 11.91216,8.39816 17.07545,13.48487 6.65781,6.55908 6.63875,6.57587 1.70461,-1.50139 -4.31319,-7.06076 7.82351,8.03557 14.74691,18.34305 5.52391,8.22394 5.84012,7.91312 1.27852,-1.25675 -3.74225,-7.52274 -8.5721,-14.26478 -14.97614,-20.90535 -6.34084,-6.57502 -11.04885,-10.41937 -17.17702,-14.02599 -7.23758,-4.25952 -13.35439,-6.23718 -20.339681,-6.57615 -3.140546,-0.15239 -5.710085,-0.12949 -5.710085,0.0509 0,0.18039 1.817477,0.90264 4.038842,1.605 l 4.038843,1.27702 -5.564744,0.16106 c -6.348476,0.18372 -8.721525,1.19445 -3.042172,1.29571 6.958918,0.12408 -0.234753,0.98326 -8.523348,1.018 -4.21293,0.0176 -7.659867,0.24393 -7.659867,0.50283 0,0.25889 2.820224,1.43484 6.267169,2.61321 3.446937,1.17836 8.021971,2.84231 10.166739,3.69765 l 3.89957,1.55517 -3.621032,-0.29541 c -1.991565,-0.16246 -4.498437,-0.43113 -5.570813,-0.59703 -2.36251,-0.36547 -1.788883,0.37621 1.020486,1.31946 1.957959,0.65739 1.896537,0.6751 -1.467806,0.42327 -4.283379,-0.32062 -4.132171,0.45716 0.336404,1.73039 5.222452,1.48805 4.654785,1.90499 -2.150829,1.57975 -7.716358,-0.36876 -13.43334,-1.56163 -24.934126,-5.20263 -12.464904,-3.94622 -14.323826,-4.43625 -19.903105,-5.24662 l -4.988159,-0.72451 2.745377,-0.94025 c 1.509963,-0.51714 3.515457,-0.98825 4.456653,-1.0469 0.941203,-0.0587 -0.670245,-0.24665 -3.580998,-0.41781 l -5.292275,-0.31117 2.122904,-1.31979 c 1.167598,-0.72588 3.298428,-1.64354 4.735199,-2.03924 l 2.612287,-0.71946 -4.271818,-0.0498 c -5.063942,-0.059 -7.248312,-0.64108 -4.641488,-1.23673 0.919181,-0.21003 -0.02088,-0.24497 -2.089054,-0.0776 -4.228336,0.34211 -4.523799,0.0166 -2.699871,-2.97452 1.488459,-2.44098 4.824308,-5.09792 8.409956,-6.6984 l 3.063949,-1.36763 -3.621032,0.30113 -3.621032,0.30112 2.56237,-1.35874 c 2.322706,-1.23166 5.065418,-1.77301 13.871538,-2.73796 1.072384,-0.11751 -0.996275,-0.18298 -4.597013,-0.14547 -3.600752,0.0375 -6.546319,-0.0607 -6.545707,-0.2182 0.0014,-0.41472 4.290989,-2.2105 5.436457,-2.27601 0.617966,-0.0353 0.464655,-0.20234 -0.421633,-0.4593 -1.293236,-0.37492 -1.153985,-0.52551 1.949781,-2.10841 1.838376,-0.93755 5.849359,-2.36755 8.913307,-3.17776 3.063948,-0.81021 6.603796,-2.15529 7.866328,-2.98906 1.262525,-0.83377 3.883012,-2.58917 5.823298,-3.90089 1.940278,-1.31172 4.865739,-2.7739 6.501015,-3.24929 1.635277,-0.47538 3.652499,-1.45825 4.482714,-2.18414 l 1.509481,-1.31979 -3.063948,0.80217 c -1.685174,0.44119 -4.138189,0.80514 -5.451144,0.80878 -2.247749,0.006 -2.350883,-0.0613 -1.765572,-1.15491 0.341897,-0.63883 1.666823,-1.63608 2.944279,-2.21609 l 2.322648,-1.05457 -1.949781,-0.0183 c -1.072384,-0.01 -3.180393,-0.39158 -4.68446,-0.84786 -1.504074,-0.45627 -3.634911,-0.81667 -4.735198,-0.80088 l -2.000513,0.0287 2.089054,0.8665 c 2.068824,0.85811 2.673313,1.99173 1.461434,2.74072 -0.345194,0.21334 -2.413357,0.36371 -4.595919,0.33415 -2.645561,-0.0358 -3.590479,0.10359 -2.834803,0.41829 0.623423,0.25962 1.468857,0.8761 1.878727,1.36997 1.189433,1.43318 -0.211047,1.16837 -8.988997,-1.69968 -7.225239,-2.36074 -8.432907,-2.59649 -13.242551,-2.58517 -3.500556,0.008 -6.921159,0.41617 -10.103604,1.20492 -6.029308,1.49433 -9.133424,1.51714 -11.483306,0.0844 -0.995784,-0.60713 -1.810516,-1.22782 -1.810516,-1.3793 0,-0.79687 4.722883,-2.45465 8.606556,-3.02101 3.467324,-0.50564 6.066783,-1.42017 11.977254,-4.21381 4.151846,-1.96236 8.050184,-3.68217 8.662974,-3.82177 0.918108,-0.20914 0.869097,-0.26967 -0.278538,-0.34399 -1.08175,-0.0701 -0.58421,-0.46578 2.228327,-1.77241 1.991564,-0.92523 4.989799,-2.04181 6.662749,-2.48131 3.293921,-0.86532 11.866994,-1.01708 13.670728,-0.24199 l 1.11416,0.47878 -1.11416,0.0477 c -0.612789,0.0263 -1.403856,0.23186 -1.757934,0.45697 -0.35407,0.2251 1.414727,0.32288 3.930663,0.21729 4.741555,-0.19901 4.310088,-0.30958 14.26118,3.65433 1.699089,0.67681 -2.499645,-2.33786 -5.789988,-4.15719 l -3.401864,-1.88098 3.008386,0.23929 c 2.949778,0.23463 2.983578,0.22057 1.734738,-0.72143 -1.569196,-1.18365 -0.993151,-1.61304 2.760387,-2.05758 1.981989,-0.23474 3.534916,-0.0484 5.339392,0.64075 2.673717,1.0211 4.01135,0.71791 2.312664,-0.52419 -0.924912,-0.67632 -0.861272,-0.81432 0.868506,-1.88339 5.22464,-3.229 12.398975,-3.40535 17.096051,-0.42024 3.77358,2.39821 14.49704,10.55865 14.50435,11.03768 0.004,0.2159 -0.84577,0.55236 -1.88684,0.74766 -2.97631,0.55837 -7.82125,-0.72393 -11.06322,-2.92807 -4.890373,-3.32485 -7.431872,-4.20505 -12.979569,-4.49524 -3.806932,-0.19911 -5.450164,-0.0598 -6.63856,0.56286 -1.546239,0.81016 -1.490915,0.83317 2.641523,1.09837 5.304095,0.3404 9.213405,2.15714 13.820876,6.42283 1.83316,1.69719 3.25098,3.16784 3.15071,3.26811 -0.10028,0.10028 -1.40122,-0.18451 -2.891,-0.63286 -1.489779,-0.44836 -4.486315,-0.78393 -6.658986,-0.7457 l -3.950302,0.0695 2.84892,0.41751 c 5.57545,0.81707 4.700212,1.39233 -2.199336,1.44554 -3.72762,0.0287 -7.4042,0.32622 -8.170185,0.66104 -1.347949,0.58921 -1.328814,0.60991 0.595238,0.64408 1.093369,0.0194 3.349549,0.45606 5.013737,0.97028 2.60565,0.80515 2.832405,0.97947 1.633081,1.25549 -2.047983,0.47133 -6.142388,2.74289 -8.236337,4.5695 -2.173758,1.89623 -2.264848,1.88131 3.12979,0.51295 6.289234,-1.59527 9.453163,-1.88166 13.186384,-1.1936 3.376656,0.62233 9.189696,3.09965 9.189696,3.91633 0,0.2438 -1.50411,1.0956 -3.34249,1.89288 -1.83837,0.79728 -3.34249,1.56752 -3.34249,1.71165 0,0.14413 1.7427,0.11595 3.87266,-0.0626 3.45456,-0.28961 4.20636,-0.16141 6.96352,1.18754 1.69998,0.83173 3.09087,1.74448 3.09087,2.02833 0,0.28387 -0.94008,0.53034 -2.08906,0.54772 -1.79246,0.0271 -1.29814,0.31054 3.48176,1.99624 3.06395,1.08055 7.53999,2.71121 9.94676,3.6237 2.40677,0.91249 4.46084,1.57418 4.5646,1.47042 0.10377,-0.10376 -0.0549,-1.27266 -0.35258,-2.59756 -0.76258,-3.39402 -1.49174,-8.98106 -1.1721,-8.98106 0.47337,0 6.17141,3.9069 6.51951,4.47014 0.18478,0.29898 0.59292,0.54359 0.90698,0.54359 0.31405,0 -0.23234,-1.0143 -1.2142,-2.25401 -0.98187,-1.23971 -1.67933,-2.35991 -1.5499,-2.48933 0.12942,-0.12942 2.16514,0.75773 4.52381,1.97145 2.35867,1.21372 4.28152,2.02057 4.273,1.79298 -0.008,-0.22758 -0.75937,-1.39688 -1.66852,-2.59842 -1.61425,-2.13341 -1.83688,-3.27383 -0.41851,-2.14383 0.39041,0.31103 1.96325,1.0917 3.49522,1.73483 1.92223,0.80696 2.35382,0.88294 1.39271,0.24516 -0.76599,-0.5083 -3.02217,-2.56336 -5.01374,-4.5668 -2.77769,-2.79427 -3.39398,-3.68768 -2.64613,-3.83608 0.53619,-0.10638 0.97489,-0.3965 0.97489,-0.64469 0,-0.2482 0.48515,-0.57813 1.07811,-0.7332 0.77867,-0.20363 0.99272,-0.60849 0.77065,-1.45768 -0.1691,-0.64666 -0.16133,-1.17574 0.0173,-1.17574 0.1786,0 1.89997,1.02361 3.82528,2.2747 3.33815,2.16918 3.66854,2.26483 7.12158,2.06187 2.64604,-0.15552 4.59379,-0.693 7.23377,-1.99616 1.987,-0.98083 4.41641,-1.78333 5.39866,-1.78333 0.98227,0 1.92561,-0.22599 2.0963,-0.50219 0.44895,-0.72639 9.35951,1.34086 13.03757,3.02473 1.7139,0.78466 4.50298,2.45486 6.19791,3.71156 l 3.08172,2.28491 -2.20212,-2.30972 c -1.66885,-1.75038 -1.96352,-2.30972 -1.21683,-2.30972 0.54192,0 1.4702,0.25951 2.06285,0.57668 2.30365,1.23288 0.90496,-0.001 -2.56009,-2.25873 -2.0007,-1.30351 -3.56749,-2.41943 -3.48176,-2.47983 0.43059,-0.30339 11.11378,0.80046 13.27024,1.37115 1.36616,0.36154 3.81943,1.37444 5.45172,2.2509 4.15653,2.23183 2.61543,0.68306 -3.1344,-3.15001 -5.48524,-3.65668 -12.00615,-6.62021 -19.27633,-8.7604 -2.72734,-0.80288 -5.05755,-1.55853 -5.17825,-1.67923 -0.51557,-0.51557 7.37795,-0.96776 10.69413,-0.61263 1.99157,0.21328 3.62104,0.25338 3.62104,0.0891 0,-0.16427 -1.31611,-0.72325 -2.92469,-1.24218 -1.60857,-0.51893 -3.43585,-1.26227 -4.06062,-1.65188 -1.89216,-1.17994 -9.54149,-2.63472 -14.08396,-2.67854 -3.11923,-0.0301 -5.14556,0.28708 -7.48117,1.17103 -1.76177,0.66678 -3.20321,0.9605 -3.20321,0.65274 0,-1.43388 7.18847,-7.62112 11.14162,-9.58979 4.52677,-2.25431 4.35126,-2.50932 -0.87813,-1.27598 -3.13051,0.73834 -17.54042,7.35344 -18.83223,8.64525 -0.31207,0.31207 -0.81485,0.5674 -1.11729,0.5674 -0.30244,0 0.18639,-0.78504 1.0863,-1.74455 0.89991,-0.95951 1.38552,-1.64845 1.07913,-1.53098 -2.51947,0.96594 -7.4005,3.82124 -9.27477,5.42554 -2.13744,1.82957 -2.26011,1.86863 -1.88361,0.59986 1.73583,-5.84971 5.71524,-11.77796 9.9323,-14.79646 3.90271,-2.7935 4.27357,-3.16363 2.49848,-2.49358 -4.071,1.53673 -9.33806,4.74972 -12.27477,7.4878 -1.91317,1.78378 -1.92431,1.42321 -0.056,-1.81199 l 1.47597,-2.55581 -4.12211,3.87142 c -2.26716,2.12928 -4.55524,4.38546 -5.08462,5.01374 l -0.9625,1.14231 -0.0124,-1.15232 c -0.0237,-2.19961 1.65727,-6.75625 3.39447,-9.20179 l 1.74661,-2.45877 -2.43747,2.26279 c -2.19672,2.0393 -7.2985,5.96156 -9.3681,7.20219 -0.47388,0.28407 -0.2672,-0.38532 0.50449,-1.63393 l 1.30723,-2.11515 -3.28989,2.51516 c -1.80944,1.38334 -4.17684,2.8233 -5.26088,3.1999 -1.77305,0.61597 -2.25211,0.54227 -4.77019,-0.73373 -3.91859,-1.9857 -4.415,-2.7079 -2.86153,-4.1631 0.68557,-0.6422 1.97063,-1.44203 2.85572,-1.77741 2.54802,-0.9655 1.4203,-1.16276 -1.9115,-0.33435 -1.67213,0.41576 -4.15422,0.91764 -5.51575,1.1153 l -2.47551,0.35937 1.06517,-1.177 c 0.58584,-0.64735 2.26387,-1.95373 3.72895,-2.90307 1.46506,-0.94934 2.66376,-1.80298 2.66376,-1.897 0,-0.19393 -0.40013,-0.0391 -8.077689,3.12563 -3.063948,1.26297 -6.69891,2.44801 -8.077685,2.63342 l -2.506865,0.33711 1.061233,-1.19754 c 1.358797,-1.53335 1.236903,-1.51888 -3.913385,0.46431 -2.373697,0.91404 -4.396693,1.58099 -4.495543,1.48214 -0.09886,-0.0988 0.323173,-0.63486 0.937841,-1.19113 1.382749,-1.25137 1.470736,-2.17255 0.142685,-1.49386 -1.509538,0.77145 -4.595926,1.24081 -4.595926,0.69893 0,-0.65927 3.558364,-3.73907 5.439071,-4.70756 0.838443,-0.43177 3.529942,-1.42083 5.981101,-2.19791 2.451158,-0.77709 6.335912,-2.08812 8.632788,-2.91342 3.492934,-1.25504 12.586484,-2.71683 13.302624,-2.13839 0.11507,0.093 -0.5849,0.83721 -1.5555,1.65391 -0.9706,0.81671 -1.63485,1.61479 -1.47612,1.77353 0.15874,0.15873 0.66168,-0.021 1.11767,-0.39946 0.9375,-0.77805 10.53588,-5.58791 10.74124,-5.38255 0.0733,0.0733 -0.47759,2.11284 -1.22411,4.5324 -0.74651,2.41957 -1.27418,4.48234 -1.17258,4.58392 0.10159,0.1016 0.65469,-0.55152 1.2291,-1.45137 1.80898,-2.83387 6.38825,-6.15469 13.23657,-9.59897 3.64175,-1.83158 6.7414,-3.21012 6.88808,-3.06342 0.1467,0.1467 -0.39237,1.44598 -1.19795,2.88731 -0.80557,1.44133 -1.35598,2.72928 -1.22314,2.86213 0.13285,0.13284 0.51453,-0.26855 0.84818,-0.89198 0.9963,-1.8616 8.23331,-7.18973 12.54407,-9.23537 4.78559,-2.270948 17.57905,-5.973156 17.57905,-5.087062 0,0.115451 -0.81473,0.759305 -1.81052,1.430781 -0.99578,0.671476 -1.30914,1.0516 -0.69635,0.844721 0.61279,-0.206886 3.37034,-0.955255 6.1279,-1.663043 9.17352,-2.354591 15.86263,-4.24416 17.97036,-5.076362 3.45212,-1.363001 0.90222,0.334065 -8.09838,5.389815 -4.40751,2.475758 -7.92933,4.58571 -7.82625,4.68878 0.28502,0.28502 9.60836,-1.73913 14.94525,-3.244702 2.60437,-0.734713 7.36741,-2.345693 10.58455,-3.579954 3.21715,-1.234262 6.35074,-2.42494 6.96353,-2.645936 2.42465,-0.874461 -8.72196,5.630925 -14.48413,8.453212 l -6.12789,3.00144 3.34249,-0.30838 c 22.8957,-2.1124 24.3466,-2.3805 37.88154,-6.99997 10.99993,-3.754271 15.66223,-5.150525 23.37689,-7.000866 l 5.59135,-1.341067 -8.63476,0.313231 c -5.33668,0.193596 -10.28381,0.701049 -12.95215,1.328568 -2.37456,0.55843 -4.31497,0.859465 -4.31202,0.668964 0.0133,-0.861329 5.8863,-8.053043 8.5076,-10.417928 2.63474,-2.376994 2.72447,-2.530801 0.95743,-1.641057 -3.51929,1.772037 -8.58017,4.903425 -11.69871,7.238499 -4.6157,3.456102 -4.65963,3.451739 -2.77796,-0.275831 2.94134,-5.826739 9.49772,-11.384651 18.14046,-15.377842 15.28589,-7.06252 44.56234,-7.036303 65.766,0.05889 5.51256,1.844623 16.02343,6.386376 15.6482,6.761597 -0.0946,0.09457 -2.54246,-0.591034 -5.43977,-1.523555 -11.76396,-3.786337 -22.42894,-5.222232 -35.593,-4.792115 -13.23722,0.432512 -23.10144,2.583658 -32.56095,7.100747 -4.78865,2.286675 -11.41494,6.377351 -9.53449,5.886038 6.40954,-1.674678 8.65212,-2.1269 14.09485,-2.842297 10.84488,-1.425454 20.29443,-0.911262 31.3073,1.703559 4.62234,1.097494 16.15537,4.989196 16.15537,5.45146 0,0.05327 -3.69763,0.111607 -8.21696,0.12959 -7.62294,0.03038 -8.94183,0.201646 -18.24441,2.369594 -5.51511,1.285288 -12.65968,3.068375 -15.87683,3.962432 l -5.84936,1.625543 5.01374,0.136977 c 2.75755,0.07534 8.77404,0.09338 13.36995,0.04003 8.66041,-0.100419 8.87415,0.04449 2.78541,1.888813 -1.83837,0.556853 -5.67178,1.995236 -8.5187,3.196406 l -5.17622,2.18395 -3.18,-1.14525 c -5.349,-1.9264 -9.54943,-2.553338 -17.10705,-2.553338 -8.19165,0 -10.53976,0.417758 -22.28327,3.964428 -4.59592,1.38802 -10.36172,3.11626 -12.81287,3.84053 l -4.45666,1.31684 6.40644,-0.30722 c 5.94651,-0.28515 20.78578,0.88149 21.60267,1.69837 0.17007,0.17007 -2.30211,0.31426 -5.49372,0.32043 -7.70224,0.0149 -19.26936,1.71674 -18.63579,2.74189 0.15047,0.24346 1.77875,0.61295 3.61839,0.82108 1.83965,0.20813 4.67754,0.83695 6.30643,1.39737 3.53559,1.21642 7.85422,3.35937 7.49467,3.71892 -0.14109,0.14109 -1.99805,-0.0137 -4.12658,-0.34394 -2.12854,-0.33025 -5.73502,-0.52585 -8.01442,-0.43465 l -4.14435,0.16583 2.78541,1.03809 c 2.76679,1.03116 10.0938,5.13139 10.58241,5.92198 0.1404,0.22717 -1.43115,-0.20362 -3.49233,-0.9573 -2.71763,-0.99371 -5.27864,-1.4401 -9.31841,-1.62423 l -5.57082,-0.2539 2.97351,1.11658 c 3.00212,1.12733 12.00143,6.15237 11.64914,6.50467 -0.10469,0.10468 -1.55745,-0.17349 -3.22838,-0.61816 -1.83347,-0.48793 -5.46772,-0.79494 -9.16594,-0.77429 l -6.1279,0.0342 4.93644,1.35412 c 8.25724,2.26507 16.43497,6.56088 23.10962,12.13961 2.59268,2.16698 2.65585,2.73824 0.10168,0.91952 -1.81761,-1.29426 -12.47602,-6.44651 -14.49924,-7.00891 -0.84641,-0.23529 0.0276,0.65675 2.22833,2.27417 4.94606,3.63516 7.44118,5.92627 11.49168,10.55212 3.47379,3.96722 8.16804,7.20275 23.883,16.46146 2.75755,1.62465 6.48687,3.97999 8.28738,5.23409 1.80051,1.25409 3.80601,2.64176 4.45666,3.08372 1.38539,0.94102 -1.07761,-1.90858 -6.59296,-7.62781 -2.14217,-2.22136 -3.6755,-4.03884 -3.40738,-4.03884 0.83886,0 9.30939,5.58771 13.96874,9.21469 5.40705,4.209 11.76629,10.70463 14.13221,14.4353 0.95954,1.51305 1.74462,2.56711 1.74462,2.34237 0,-1.71386 -5.81452,-14.80639 -7.87058,-17.72213 -1.79588,-2.54676 -1.14406,-2.50593 1.4919,0.0934 6.93157,6.83535 18.0774,21.01456 18.0774,22.99724 0,0.31815 0.14631,0.43214 0.32513,0.25332 0.44295,-0.44295 -3.36595,-9.88848 -5.78447,-14.34468 -7.89256,-14.54225 -22.53202,-30.45376 -36.7396,-39.93197 -2.52775,-1.68633 -4.59592,-3.15477 -4.59592,-3.2632 0,-0.10843 1.30098,0.18921 2.89105,0.66141 13.3973,3.97857 23.33176,9.09429 33.04072,17.0142 l 2.22832,1.81773 -2.42197,-2.77248 c -1.33209,-1.52486 -3.83895,-4.0927 -5.57082,-5.70632 -2.65318,-2.47203 -2.89236,-2.84106 -1.51948,-2.34436 0.89615,0.32422 3.27767,1.49395 5.29227,2.59941 11.42402,6.26862 19.75977,12.60961 29.86123,22.71539 15.85808,15.86485 26.74955,33.05976 32.8988,51.93893 2.10456,6.46133 4.77492,17.31768 4.65288,18.91628 -0.0197,0.25826 -0.98059,-2.32479 -2.1353,-5.74014 -4.59611,-13.59427 -15.04946,-31.67916 -25.55185,-44.20617 -6.21514,-7.41327 -14.40207,-15.59013 -21.48667,-21.46024 -7.24775,-6.00528 -8.40442,-6.72803 -6.15264,-3.84447 10.47516,13.41416 23.13236,46.36609 28.55014,74.32789 2.2572,11.64967 3.44411,23.60519 3.34597,33.70343 l -0.0649,6.68498 -0.96236,-6.68498 c -1.84142,-12.79128 -6.62258,-29.40031 -12.1075,-42.05966 -2.70371,-6.24023 -8.38903,-17.8266 -8.74735,-17.8266 -0.11851,0 0.27343,1.56679 0.87097,3.48176 1.52376,4.88321 4.75401,21.36929 5.45339,27.83212 1.27003,11.73618 0.6115,27.71818 -1.60499,38.95182 l -1.02973,5.21885 -0.0612,-5.88478 c -0.0336,-3.23662 -0.4351,-8.71971 -0.8921,-12.18462 -3.60345,-27.32098 -15.35835,-50.03292 -40.62939,-78.50102 -3.08721,-3.47777 -5.98912,-6.85532 -6.44872,-7.50568 -0.7959,-1.12626 -0.72968,-1.11868 1.39271,0.15951 8.29949,4.99825 14.58922,9.98397 22.29266,17.67087 l 5.48066,5.46889 -2.70977,-3.89957 c -11.94245,-17.18615 -35.0194,-37.85833 -50.09977,-44.87904 -4.41761,-2.05663 -13.78133,-5.53684 -14.89721,-5.53684 -0.31372,0 0.20809,0.88665 1.15959,1.97035 1.73184,1.97246 4.00069,6.0344 4.78815,8.57225 0.35343,1.13905 0.13791,1.03048 -1.37509,-0.69273 -2.27776,-2.59422 -6.09074,-5.62998 -6.52541,-5.1953 -0.18273,0.18272 0.0169,0.75306 0.4435,1.2674 0.72225,0.8707 0.66051,0.87571 -0.89551,0.0726 -0.91918,-0.47441 -3.92743,-1.52577 -6.68498,-2.33637 -2.75755,-0.81058 -5.51511,-1.75279 -6.1279,-2.09378 -0.61279,-0.34098 -0.026,0.56535 1.30394,2.01408 1.32995,1.44873 2.27609,2.77607 2.10252,2.94964 -0.17358,0.17357 -0.68603,0.008 -1.13878,-0.36761 -0.45276,-0.37576 -2.02562,-1.02987 -3.49523,-1.45359 l -2.67202,-0.7704 1.94978,1.48038 c 2.56472,1.94727 8.91331,8.42363 8.91331,9.0927 0,0.28831 -1.08383,-0.30311 -2.40853,-1.31427 -2.20834,-1.68567 -8.79352,-5.39623 -9.57675,-5.39623 -0.18271,0 0.94178,1.29423 2.49886,2.87608 2.97096,3.01818 5.77477,8.1738 7.05051,12.96438 1.17649,4.41791 0.93892,4.56694 -1.70975,1.07254 -1.36092,-1.79548 -2.80237,-3.52641 -3.20322,-3.84652 -0.40084,-0.3201 -2.18,-1.76155 -3.9537,-3.20322 -1.7737,-1.44166 -3.35738,-2.6212 -3.5193,-2.6212 -0.16192,0 -0.12402,0.56405 0.0842,1.25343 0.31361,1.03815 0.005,0.89463 -1.79646,-0.83562 -2.91249,-2.79728 -3.4971,-2.64911 -1.09895,0.27854 2.32579,2.83933 5.35343,8.70209 7.29889,14.13371 1.91192,5.33796 1.79513,5.56793 -0.66661,1.31263 -1.34089,-2.31784 -4.26939,-5.74382 -8.18825,-9.57926 -6.08549,-5.95593 -7.6745,-7.08102 -5.30901,-3.759 1.94162,2.72675 3.34857,8.07821 3.65247,13.89244 l 0.27743,5.30785 -1.3943,-2.70785 c -2.20928,-4.29059 -5.59475,-8.42071 -9.07926,-11.07628 -4.09275,-3.11912 -5.22718,-3.78406 -3.93642,-2.30734 1.06102,1.21389 2.31695,4.07578 2.90562,6.62108 0.34014,1.47066 -0.20391,1.08619 -4.53279,-3.20321 -2.70563,-2.68096 -5.08829,-4.87447 -5.29479,-4.87447 -0.20651,0 0.085,1.06542 0.64777,2.3676 2.09067,4.83741 2.06123,5.33732 -0.17471,2.96653 -1.11394,-1.18112 -2.02534,-2.31941 -2.02534,-2.52954 0,-0.21012 -0.68939,-0.98979 -1.53198,-1.73259 l -1.53197,-1.35054 1.25343,1.42861 c 1.87236,2.13403 1.52656,2.39917 -1.11416,0.85429 -2.64608,-1.548 -10.55411,-4.86663 -10.86234,-4.5584 -0.10924,0.10924 0.66378,0.73162 1.71783,1.38306 1.05406,0.65144 2.258,1.60092 2.67544,2.10994 0.66913,0.81593 0.62708,0.88469 -0.35518,0.58081 -5.12954,-1.58688 -10.68373,-3.16371 -11.14163,-3.1631 -0.3064,4.1e-4 0.63092,0.61107 2.08293,1.35703 2.99152,1.53686 8.48348,5.47362 9.12512,6.54111 0.34046,0.56641 0.24894,0.56532 -0.45582,-0.006 -0.485,-0.39278 -3.47869,-1.67463 -6.65264,-2.84856 -3.17396,-1.17394 -6.27221,-2.33416 -6.885,-2.57828 -1.08117,-0.43071 -1.07952,-0.40409 0.0557,0.89878 0.64343,0.73846 1.92881,2.47125 2.85641,3.85066 1.258,1.87072 3.31867,3.53773 8.10969,6.5604 8.8776,5.60094 15.8449,11.08918 22.41825,17.65919 7.2262,7.22252 10.02066,11.08126 3.93535,5.43415 -4.6491,-4.31433 -15.14549,-12.45455 -20.66295,-16.02467 -6.27886,-4.06278 -9.35837,-5.85025 -9.62302,-5.58559 -0.1455,0.1455 0.41109,1.06749 1.23686,2.04885 1.45276,1.72651 5.33656,9.02045 7.23227,13.58249 l 0.92596,2.22833 -3.22852,-3.10111 c -1.77569,-1.7056 -6.13057,-5.63018 -9.67751,-8.72129 -5.40006,-4.70605 -6.7772,-6.24477 -8.46691,-9.46028 -1.99381,-3.79425 -4.00481,-6.22009 -4.63443,-5.59047 -0.17831,0.1783 0.20974,1.04636 0.86231,1.929 1.20541,1.6304 5.75862,12.43347 5.39405,12.79806 -0.56003,0.56014 -9.82493,-14.34359 -9.82493,-15.80447 0,-0.39234 -0.56405,-1.08137 -1.25343,-1.5312 -2.57257,-1.67858 -14.24522,-5.42794 -21.15287,-6.79447 l -7.14755,-1.41399 -5.974366,1.27241 -5.97437,1.27241 6.406442,0.67671 c 7.044114,0.74407 10.476814,1.64261 15.684934,4.10566 3.53492,1.67175 3.50931,1.86852 -0.32664,2.50981 -1.49707,0.25028 -1.95127,0.5135 -1.43581,0.83208 0.49781,0.30765 -0.42014,0.69698 -2.70169,1.14585 -1.90063,0.37392 -3.32336,0.81219 -3.16162,0.97393 0.16174,0.16174 2.56201,0.86737 5.33393,1.56807 23.19126,5.86237 47.77636,22.01455 63.49723,41.71711 5.34744,6.70178 4.8587,6.88798 -1.44012,0.54864 -7.73852,-7.78828 -15.83663,-14.83199 -22.52747,-19.59433 -5.41111,-3.85146 -9.95387,-6.56081 -10.3449,-6.16978 -0.14691,0.14691 0.68431,1.11745 1.84716,2.15674 1.95546,1.7477 4.86093,5.21463 6.0094,7.17067 0.62126,1.0581 -1.26138,-0.48428 -10.09029,-8.26666 -6.17528,-5.4433 -8.03722,-6.73927 -13.31632,-9.2686 -10.80503,-5.17691 -18.5175,-7.1801 -31.420642,-8.161 -8.907166,-0.67713 -18.591108,-0.17863 -26.803725,1.37979 -3.582985,0.6799 -3.48934,0.69438 8.913307,1.3786 13.828574,0.76289 17.910755,1.47175 21.065483,3.65798 1.265657,0.8771 2.883332,1.46935 4.033134,1.47657 4.313733,0.0271 20.373313,4.64481 24.481653,7.03939 l 1.3927,0.81174 -1.3927,-0.32171 c -0.76599,-0.17693 -3.64889,-0.91023 -6.40644,-1.62953 -8.47665,-2.21112 -8.58801,-2.19177 -3.62103,0.62922 20.62586,11.71446 36.24765,28.33994 45.05233,47.94697 2.88023,6.41393 6.75625,16.54358 6.75625,17.65686 0,0.45544 1.59383,2.56483 3.54183,4.68754 5.45935,5.94894 9.40686,14.77334 11.55459,25.8295 1.04245,5.36634 1.28983,12.44081 0.54963,15.7178 -0.32361,1.43268 -0.43139,1.19412 -0.75503,-1.67125 -0.78049,-6.91008 -1.85018,-9.68809 -9.49202,-24.65086 -2.61814,-5.12635 -3.90663,-6.87864 -2.39142,-3.25222 1.72447,4.12725 2.74259,10.64535 2.79215,17.87562 0.0273,3.98313 -0.16573,7.99411 -0.42894,8.9133 -0.41401,1.44581 -0.72969,0.5648 -2.34023,-6.53131 -1.02392,-4.5114 -2.35713,-9.27444 -2.96269,-10.58455 -1.01408,-2.19393 -1.07701,-2.24049 -0.79699,-0.58972 0.36176,2.13269 -0.26228,6.84249 -0.90662,6.84249 -0.24932,0 -0.64603,-0.81473 -0.88157,-1.81052 -0.32557,-1.3764 -0.59703,0.0595 -1.1322,5.98863 -0.7955,8.81365 -2.53701,17.05903 -4.46658,21.14761 -0.71743,1.52016 -1.24493,2.82341 -1.17222,2.89611 0.44211,0.44213 6.96227,-8.51831 8.46176,-11.62874 l 1.8032,-3.74038 1.52865,2.90476 c 0.84076,1.59762 1.72755,3.53148 1.97066,4.29747 l 0.44201,1.3927 0.0479,-1.4991 c 0.0686,-2.14852 0.76981,-2.32163 3.91807,-0.96729 5.03224,2.16481 9.03257,7.81497 10.54135,14.88887 0.8133,3.81311 0.77285,4.08471 -0.30705,2.06164 -1.65594,-3.10219 -4.16888,-5.85622 -6.69367,-7.33584 -3.36858,-1.97412 -11.37199,-3.86483 -10.51925,-2.48504 0.16491,0.26682 0.99444,0.62729 1.8434,0.80103 0.84897,0.17375 2.04494,0.71134 2.65773,1.19467 1.07124,0.84489 1.04977,0.86719 -0.55708,0.57885 -1.53304,-0.2751 -1.56275,-0.25246 -0.3594,0.27365 2.27299,0.99378 4.39808,2.73597 6.30957,5.17271 1.61399,2.05749 1.67197,2.23349 0.45626,1.38483 -4.9271,-3.43953 -9.23626,-3.9739 -15.50243,-1.92244 l -4.08228,1.33648 2.83209,0.33541 c 4.7689,0.56481 5.37309,1.46475 0.99656,1.48437 -2.90688,0.013 -4.41539,0.33951 -6.53754,1.41489 -2.74143,1.38918 -9.76548,7.9527 -9.15936,8.55882 0.17434,0.17434 0.49136,0.0671 0.7045,-0.23837 1.49629,-2.14426 9.45201,-6.6969 10.87434,-6.22279 0.31025,0.10341 -0.66527,0.90848 -2.16781,1.78902 -1.50254,0.88055 -3.96722,2.74662 -5.47707,4.14682 -2.78034,2.57843 -9.44397,11.17066 -9.0043,11.61035 0.13154,0.13153 1.19585,-0.50096 2.36514,-1.40554 2.54286,-1.96721 7.41823,-4.78618 7.41823,-4.28928 0,0.19401 -0.8774,1.37778 -1.94979,2.63062 -2.68403,3.1357 -2.45438,3.66327 0.34926,0.80234 1.8104,-1.8474 2.09431,-2.00613 1.3358,-0.7468 -0.52979,0.87957 -1.84746,3.13575 -2.92817,5.01373 -1.0807,1.87798 -3.12326,4.65454 -4.53901,6.17015 -2.9569,3.16543 -1.27234,2.02543 4.35919,-2.95003 1.855,-1.63889 3.37272,-2.81583 3.37272,-2.61541 0,1.18508 -4.01316,7.51349 -6.23268,9.8284 -3.16112,3.29699 -2.77251,3.39731 4.97937,1.28546 2.91697,-0.79465 6.14708,-1.34637 7.17801,-1.22601 2.29746,0.26821 2.33062,-0.0261 0.22967,-2.03895 -1.56844,-1.50267 -1.60673,-1.64934 -0.82521,-3.16066 2.13323,-4.1252 6.85495,-7.80665 10.92628,-8.51905 1.96257,-0.34342 6.91211,0.52569 7.38909,1.29748 0.1255,0.20305 -0.89733,0.41816 -2.27293,0.47804 -2.98355,0.12985 -7.14965,1.8688 -9.2146,3.84624 -3.15147,3.0179 -3.39383,6.95143 -0.63063,10.2353 l 1.45455,1.72865 -2.17308,-0.45882 c -1.19519,-0.25235 -4.30392,-0.45426 -6.90827,-0.44869 -5.68986,0.0122 -10.8368,1.5822 -19.09768,5.82556 -2.99706,1.5395 -6.0053,2.80912 -6.68498,2.82139 -1.11224,0.0201 -1.0687,0.11604 0.43545,0.95984 1.35493,0.7601 3.2728,0.9428 10.13298,0.96526 4.65395,0.0153 8.64405,0.21002 8.86688,0.43285 0.22283,0.22283 -0.45137,0.41378 -1.49822,0.42432 -1.04684,0.0105 -3.78351,0.76983 -6.08147,1.6873 -4.81548,1.92258 -9.90201,2.5914 -13.06009,1.71726 -1.20836,-0.33447 -2.27062,-0.53451 -2.36059,-0.44453 -0.09,0.09 1.75314,1.11134 4.09581,2.2697 2.64914,1.30991 6.27863,2.51231 9.60058,3.18057 6.04301,1.21563 9.18838,2.93465 10.37911,5.67245 l 0.77196,1.7749 0.01,-1.94978 c 0.0222,-4.53148 -3.79418,-9.16539 -8.13112,-9.87285 -1.98109,-0.32316 -2.03692,-0.38031 -0.74814,-0.76583 0.76598,-0.22914 3.08617,-0.92011 5.15597,-1.53548 l 3.76329,-1.11886 1.6966,1.4276 c 0.93314,0.78518 2.0444,2.20932 2.46948,3.16475 0.7405,1.6644 0.76001,1.59717 0.46601,-1.60534 -0.16876,-1.83837 -0.88506,-5.04854 -1.59176,-7.13371 l -1.2849,-3.79123 1.4869,-0.59507 c 0.8178,-0.3273 2.67766,-0.72131 4.13304,-0.87558 l 2.64614,-0.2805 v 3.87228 c 0,11.51854 -4.20947,24.00284 -10.83682,32.13943 l -2.38397,2.92688 3.08063,-1.0163 c 1.69435,-0.55897 3.19765,-0.89929 3.34068,-0.75627 0.14302,0.14302 -0.14176,1.85964 -0.63286,3.81468 -1.67051,6.65036 -5.7996,14.47507 -10.221,19.36903 l -2.1095,2.33496 3.61425,-1.8202 c 5.18199,-2.60975 8.07327,-4.68895 12.73288,-9.15653 4.61803,-4.42773 9.59716,-10.70329 12.31422,-15.52053 1.00156,-1.77571 1.89221,-3.1545 1.97924,-3.06395 0.29232,0.30416 -1.3562,8.85923 -2.53531,13.15714 -2.53434,9.23775 -8.72379,19.831 -15.49928,26.52703 -9.2854,9.1765 -19.02968,13.25222 -31.83887,13.31718 -9.08359,0.0461 -17.01806,-1.95481 -26.197416,-6.60634 -1.503592,-0.76192 -2.859006,-1.38532 -3.01205,-1.38532 -0.721906,0 9.504236,9.10928 12.541886,11.1721 6.5702,4.46174 16.81294,8.49013 25.58088,10.06077 5.96556,1.06863 18.64354,0.92841 24.75585,-0.27381 17.64229,-3.47001 36.9784,-14.0349 51.99709,-28.41027 l 2.38255,-2.28049 -1.0555,3.06785 c -2.22866,6.47771 -5.8665,12.43764 -10.62612,17.40891 l -2.5538,2.66736 3.34245,-0.37351 c 11.67257,-1.30438 23.58329,-6.62406 37.57604,-16.78258 1.28131,-0.93022 1.24686,-0.77403 -0.55709,2.52613 -6.49792,11.88735 -20.84405,26.14963 -33.70517,33.5082 -7.84508,4.48861 -22.90056,10.04754 -27.21217,10.04754 -0.79686,0 -1.44884,0.22818 -1.44884,0.50708 0,0.78672 9.02371,1.35011 16.14038,1.00771 8.53333,-0.41057 22.14135,-3.42549 27.59052,-6.11283 1.14501,-0.56468 -2.03039,2.97127 -6.32056,7.03822 -3.92661,3.7223 -14.45859,10.84855 -19.89899,13.46426 -2.77776,1.33551 -7.16477,3.05307 -9.74893,3.81679 l -4.69847,1.38857 4.73519,-0.0538 c 2.60435,-0.0296 5.48725,-0.14982 6.40644,-0.26717 z m 44.25866,-70.40857 c 9.88969,-12.79639 18.49468,-30.32057 22.54996,-45.92335 2.53059,-9.73649 3.31727,-16.84475 3.32886,-30.07879 0.0114,-13.03528 -0.76579,-19.46316 -3.77201,-31.19657 l -1.28457,-5.01373 -0.32445,11.69871 c -0.27924,10.0684 -0.55967,12.82511 -2.0123,19.7815 -2.04262,9.78172 -4.71192,17.70645 -8.74254,25.95517 -2.84442,5.82115 -9.05971,15.72333 -12.20307,19.44188 l -1.41272,1.67124 0.60193,-1.67124 c 1.14045,-3.16642 3.84131,-15.19705 4.95578,-22.07494 1.95015,-12.03525 2.81649,-21.57075 3.15694,-34.74739 0.4735,-18.32581 0.57993,-18.56302 3.35277,-7.4724 l 2.28605,9.14364 0.41753,-10.56016 c 0.25185,-6.3699 0.16967,-15.43293 -0.2071,-22.84035 -0.34353,-6.75409 -0.76395,-17.16857 -0.93425,-23.14327 -0.1703,-5.9747 -0.41939,-11.56493 -0.55352,-12.42275 -0.29907,-1.91263 0.59042,-1.51417 1.09339,0.48979 0.68602,2.73335 6.1301,14.44403 9.43207,20.28919 1.81738,3.21715 4.62059,8.18423 6.22934,11.03798 1.60876,2.85373 3.03231,5.29591 3.16346,5.42705 0.815,0.81501 -6.99202,-27.52188 -10.90957,-39.59806 -4.54648,-14.01495 -6.92232,-23.33918 -9.22289,-36.19616 -2.0252,-11.31804 -4.5771,-27.68724 -4.35151,-27.91283 0.12293,-0.12293 1.67314,4.72839 3.44489,10.78071 6.75062,23.06012 10.19801,30.32092 21.85787,46.03644 2.24716,3.0288 5.23646,7.35314 6.64288,9.60966 1.40643,2.25652 2.6206,4.10276 2.69816,4.10276 0.41094,0 -5.70312,-19.50092 -8.90767,-28.41116 -5.68456,-15.80592 -9.71089,-27.90656 -9.17539,-27.5756 0.75447,0.46628 10.60286,14.4542 14.31612,20.33354 1.83837,2.91075 4.81248,7.97555 6.60914,11.25511 1.79666,3.27955 3.35564,5.87383 3.46441,5.76507 0.24691,-0.24691 -7.15569,-18.44858 -11.00026,-27.04764 -8.12083,-18.16376 -23.24533,-43.05991 -31.38421,-51.66098 -0.93793,-0.99119 -1.58199,-1.92551 -1.43125,-2.07625 0.53801,-0.53801 14.46253,14.00687 18.64599,19.4767 9.73422,12.72742 15.45689,22.392 27.37866,46.23777 12.8629,25.72823 20.01664,43.82814 25.43066,64.34293 8.46643,32.08098 5.31676,61.1693 -9.86239,91.08284 -2.87396,5.66372 -6.42817,11.69014 -5.74963,9.74893 0.16066,-0.4596 1.66294,-4.34524 3.33842,-8.63477 7.99162,-20.45995 11.5674,-41.67346 9.85975,-58.49356 -1.28229,-12.63038 -4.30431,-22.72127 -10.7158,-35.78135 -3.3464,-6.81655 -13.54604,-24.56714 -14.92034,-25.96609 -0.25312,-0.25767 -0.0164,1.13217 0.52611,3.08853 1.29872,4.68357 3.63735,17.60069 5.07289,28.01942 1.48532,10.77999 2.06008,32.20855 1.07188,39.96278 -0.38048,2.98562 -0.87721,5.31379 -1.10385,5.17372 -0.22663,-0.14006 -0.56009,-2.58178 -0.74101,-5.42605 -0.68015,-10.6925 -3.02392,-20.02837 -9.1534,-36.46055 -2.07623,-5.56604 -3.85486,-10.04027 -3.95254,-9.94274 -0.0977,0.0975 0.0758,1.54791 0.38545,3.22307 0.30967,1.67515 0.86133,8.2866 1.22592,14.69212 2.1333,37.48054 -7.39096,71.19668 -28.04327,99.27401 -3.47197,4.72022 -13.48261,16.2397 -14.1126,16.2397 -0.14221,0 1.49886,-2.27396 3.64683,-5.05323 z m -31.73592,-73.56085 c 0.57711,-3.53783 1.5785,-11.17488 2.22532,-16.9712 0.64681,-5.79632 1.65115,-14.42441 2.23183,-19.17353 0.58069,-4.74912 1.45777,-12.64575 1.94907,-17.54806 0.4913,-4.90233 1.25899,-10.75761 1.70597,-13.01174 0.447,-2.25414 0.80501,-4.25963 0.79559,-4.45665 -0.009,-0.19703 -0.9778,1.89795 -2.15196,4.65551 -3.01146,7.07258 -6.16351,13.6485 -6.54215,13.6485 -0.1767,0 -0.15242,-0.43871 0.054,-0.9749 1.5193,-3.9472 6.399,-42.95198 5.77714,-46.17811 -0.10109,-0.52446 -0.88147,1.53508 -1.73417,4.57676 -1.55427,5.54425 -6.12418,15.34778 -9.41884,20.20563 -2.12736,3.13671 -4.69055,6.25828 -4.1886,5.10109 3.9074,-9.00818 8.60285,-21.62467 9.7444,-26.18284 1.30322,-5.20371 1.46203,-6.89469 1.43869,-15.31974 -0.0286,-10.31693 -0.92885,-15.82791 -4.11668,-25.2004 -0.8633,-2.53819 -1.35277,-4.48087 -1.08772,-4.31705 1.08844,0.67269 6.36775,9.19508 8.60741,13.89495 2.94607,6.18222 5.30118,12.67661 5.32383,14.68081 0.0127,1.11808 0.13886,1.28652 0.49693,0.66314 0.26399,-0.45958 0.78957,-4.47057 1.16793,-8.9133 0.74017,-8.69082 0.42157,-18.8676 -0.78914,-25.20794 -0.39492,-2.06817 -0.61772,-3.7603 -0.49511,-3.7603 0.5361,0 4.16088,8.79798 5.67446,13.77293 2.57877,8.47612 3.07893,11.58949 3.09875,19.28914 l 0.0184,7.15777 0.93481,-4.09383 c 3.00768,-13.17149 2.67583,-31.5331 -0.89958,-49.77451 -0.72066,-3.67674 -1.24501,-6.75523 -1.16523,-6.8411 0.38647,-0.41595 4.99875,11.78025 6.74257,17.82928 6.24088,21.64863 6.94496,50.41788 1.71477,70.06719 -5.07421,19.06333 -5.7665,22.25689 -7.60807,35.09614 -0.63724,4.44272 -1.34711,8.67645 -1.57749,9.40828 -0.64837,2.05957 -2.52182,-16.70309 -2.20841,-22.11715 0.14517,-2.50836 0.19527,-4.56066 0.11127,-4.56066 -0.23703,0 -2.80887,8.69061 -4.03904,13.6485 -1.29034,5.20042 -1.93831,9.3466 -3.13423,20.05494 -1.03214,9.24202 -2.66622,18.30457 -4.24192,23.52563 -1.38375,4.5851 -5.02405,14.19931 -5.27961,13.94375 -0.10147,-0.10147 0.28769,-3.07909 0.8648,-6.61693 z M 94.916062,358.16636 c 0.486108,-0.74189 1.57086,-1.70213 2.410563,-2.13384 1.521006,-0.782 12.995675,-3.27474 13.366665,-2.90376 0.24484,0.24485 -6.95916,3.21333 -10.886818,4.48602 -1.946873,0.63085 -3.364278,1.52295 -4.178108,2.62967 -1.158924,1.576 -1.242425,1.60392 -1.413906,0.47287 -0.100225,-0.66113 0.215496,-1.80906 0.701604,-2.55096 z m 306.703418,-9.36345 c -1.75408,-4.65823 -7.2123,-12.53863 -12.16587,-17.56467 -2.34318,-2.37746 -7.76994,-7.2872 -12.05946,-10.91055 -11.68933,-9.87391 -18.68001,-17.01465 -23.60928,-24.11604 -1.76269,-2.53944 -1.11071,-2.25892 2.29255,0.9864 1.61317,1.5383 4.68784,4.1464 6.83261,5.79578 5.33697,4.10427 16.99098,11.58168 16.99098,10.9017 0,-0.30449 -0.2156,-0.55362 -0.47909,-0.55362 -0.63594,0 -10.6425,-11.27956 -14.76357,-16.64173 -3.49789,-4.55132 -10.83401,-15.52099 -14.96019,-22.36991 -2.54766,-4.2288 -6.56453,-11.91489 -6.56453,-12.56093 0,-0.19189 1.75369,1.52895 3.89709,3.82408 6.18544,6.62332 15.63525,13.55916 25.90677,19.01475 l 5.01374,2.66297 -2.56794,-2.70216 c -6.28978,-6.61857 -10.99856,-16.82927 -11.92966,-25.86872 l -0.36806,-3.57338 1.91412,3.89957 c 9.14768,18.63617 27.5603,37.17162 46.65497,46.96623 6.56265,3.3663 6.53214,3.374 -4.73519,1.19466 -8.45037,-1.63448 -21.33468,-6.05671 -26.18284,-8.98663 -2.85301,-1.72419 -2.52754,-1.15913 1.90264,3.30321 4.74054,4.77496 11.13211,12.33068 13.93799,16.47664 6.4809,9.57611 10.08291,23.53822 9.22292,35.74976 -0.52382,7.4381 -0.8621,7.91359 -1.98164,2.78541 -0.53511,-2.45115 -1.52469,-5.92193 -2.19906,-7.71282 z m -320.871277,6.90031 -6.406441,-1.59636 3.380648,-0.049 c 3.766222,-0.0546 8.652644,1.18291 9.712227,2.45963 0.889658,1.07198 0.877269,1.07047 -6.686434,-0.81427 z m 143.473337,-5.30525 c 1.23873,-4.11603 2.89668,-14.58963 3.83762,-24.24319 0.4629,-4.74911 1.40714,-12.52041 2.09831,-17.26952 1.18251,-8.12517 1.28144,-8.47038 1.67628,-5.84936 0.23079,1.53197 0.6588,6.45456 0.95115,10.93909 0.7081,10.8622 0.0757,17.25028 -2.45687,24.81884 -1.76883,5.28608 -6.27194,14.98157 -6.74058,14.51293 -0.10202,-0.10203 0.18331,-1.41098 0.63409,-2.90879 z m -135.831359,1.18626 c -4.138816,-1.73942 -9.42202,-9.61769 -11.636164,-17.35176 -1.042738,-3.64232 -1.277902,-5.83084 -1.28698,-11.97726 -0.0065,-4.13633 0.205583,-8.27265 0.470435,-9.19184 0.457874,-1.58912 0.534421,-1.47961 1.557614,2.22832 2.422218,8.7779 10.635562,22.78757 17.309599,29.52533 3.480586,3.51382 3.569185,3.94036 1.135844,5.46877 -3.614711,2.27045 -4.76632,2.46849 -7.550348,1.29844 z m -0.121376,-6.48867 c -0.554571,-0.61279 -1.133655,-1.11416 -1.28685,-1.11416 -0.153196,0 0.175195,0.50137 0.729766,1.11416 0.554571,0.61279 1.133648,1.11416 1.286844,1.11416 0.153202,0 -0.175196,-0.50137 -0.72976,-1.11416 z m 16.780155,4.03884 c -0.16465,-0.84258 -0.46733,-3.2509 -0.67262,-5.35181 l -0.37327,-3.81985 1.39598,0.91467 c 1.31566,0.86205 1.50404,0.84706 3.27449,-0.26078 1.03319,-0.6465 4.76143,-2.95807 8.28497,-5.13683 9.9917,-6.17831 19.62055,-16.2407 25.18217,-26.316 2.29685,-4.16094 1.87378,-2.44301 -0.63061,2.5606 -3.51555,7.02385 -6.04276,10.4094 -12.85106,17.21579 -4.97447,4.97309 -7.63011,7.12757 -11.8695,9.62954 -3.0037,1.77269 -6.19996,3.37082 -7.10279,3.55139 -1.93413,0.38683 -2.03066,0.77834 -0.52736,2.13881 1.50468,1.36172 1.40312,3.38273 -0.25322,5.03906 -1.86108,1.86109 -3.4748,1.79223 -3.85718,-0.16459 z M 62.085796,338.18315 c -1.731399,-1.13445 -2.477961,-0.74652 -1.518868,0.78924 0.528078,0.84558 0.520073,1.01179 -0.03837,0.79748 -0.934753,-0.3587 -3.88122,-4.96812 -4.964064,-7.76573 -0.474366,-1.22558 -1.177108,-4.00689 -1.561645,-6.1807 -0.603279,-3.4104 -0.567306,-4.67085 0.262305,-9.19184 0.976233,-5.31999 1.920726,-8.08828 1.95454,-5.72871 0.03384,2.36118 2.8272,12.18693 4.451254,15.65745 0.915603,1.95661 3.05001,5.68265 4.74311,8.2801 1.693099,2.59745 3.078361,4.79962 3.078361,4.8937 0,0.52088 -5.145796,-0.72486 -6.406608,-1.55099 z m 4.178281,0.54518 c 0,-0.15321 -0.50137,-0.54688 -1.11416,-0.87483 -0.61279,-0.32795 -1.114167,-0.47094 -1.114167,-0.31774 0,0.15319 0.501377,0.54686 1.114167,0.87482 0.61279,0.32796 1.11416,0.47094 1.11416,0.31775 z m 25.799328,-13.01156 c -0.415211,-0.26402 0.712497,-1.13362 3.024743,-2.33247 7.694042,-3.98917 13.231162,-10.83877 20.038202,-24.78793 l 3.5424,-7.25918 -0.34065,3.34249 c -0.48465,4.75528 -1.30812,7.86731 -3.09557,11.69871 l -1.55935,3.34249 4.2888,-4.45889 c 4.20757,-4.37443 11.54926,-15.41153 14.12545,-21.23543 0.61575,-1.39199 1.20587,-2.44457 1.31138,-2.33905 0.35478,0.35478 -1.35509,7.59484 -2.70855,11.46875 -0.73772,2.11152 -1.9533,4.82222 -2.70129,6.02376 -0.74798,1.20155 -1.56743,2.53408 -1.821,2.96118 -0.70361,1.18513 2.7365,-0.95497 5.72567,-3.56195 l 2.55501,-2.22833 -1.0852,1.88725 c -1.54494,2.68678 -7.83807,8.99398 -11.0689,11.09365 -3.22562,2.09629 -3.1756,2.11323 2.00225,0.67838 5.49014,-1.5214 10.46588,-3.94677 13.24166,-6.45453 l 2.33734,-2.11164 -0.99824,2.18864 c -1.72618,3.78463 -4.38462,7.69344 -6.48612,9.53682 -1.68298,1.47627 -11.34343,6.60611 -14.31877,7.60349 -0.45959,0.15406 0.0543,0.2999 1.14202,0.32409 1.0877,0.0242 2.21579,-0.1773 2.50687,-0.44776 0.29107,-0.27045 1.89149,-0.61412 3.55648,-0.7637 l 3.02726,-0.27196 -1.91309,1.02821 c -3.21383,1.72734 -10.00285,3.67355 -15.28306,4.3812 -2.75755,0.36957 -5.38976,0.74631 -5.84936,0.83721 -1.84997,0.36589 -12.578736,0.24922 -13.196385,-0.1435 z m 86.025415,-56.6888 c -1.38728,-3.3846 -3.68206,-8.63559 -5.09951,-11.66885 -2.27349,-4.86514 -2.40983,-5.3578 -1.15699,-4.18082 1.5676,1.47268 7.56722,10.52493 9.59303,14.47399 l 1.29056,2.5158 -0.22265,-8.35623 c -0.14566,-5.46699 -0.52528,-9.3193 -1.09791,-11.14163 l -0.87525,-2.7854 1.16804,1.39269 c 3.67236,4.3787 6.32268,14.3064 5.72572,21.44765 -0.39684,4.74729 -1.76401,11.50205 -2.91176,14.3861 l -0.84779,2.13032 -1.52158,-6.02989 c -0.83686,-3.31644 -2.65662,-8.79911 -4.04391,-12.18373 z m 261.3793,-29.01261 c -3.1948,-2.16353 -8.56629,-5.64786 -11.93663,-7.74295 -7.55969,-4.69929 -12.60703,-8.38627 -18.34097,-13.39767 -4.3269,-3.78166 -12.2106,-12.48757 -11.73705,-12.96111 0.13202,-0.13203 1.74274,1.15117 3.57937,2.85157 1.83663,1.70039 4.78986,4.20496 6.56276,5.56571 3.31297,2.54278 17.30385,12.10627 17.71086,12.10627 0.12513,0 -1.05055,-1.19076 -2.61263,-2.64614 -2.79543,-2.60449 -8.93015,-10.23312 -8.54161,-10.62166 0.10942,-0.10941 2.41245,1.65402 5.11786,3.91874 2.70541,2.26474 7.55113,6.2114 10.76828,8.77037 6.94477,5.52398 15.7673,14.33801 20.12548,20.10611 5.40419,7.1525 5.4359,7.72037 0.15289,2.73775 -2.77192,-2.61432 -7.65379,-6.52346 -10.84861,-8.68699 z m -380.666016,9.19589 c -5.151418,-6.90013 -7.57399,-14.95547 -7.992009,-26.57441 -0.183921,-5.11222 -0.08105,-8.18446 0.286349,-8.55185 0.332553,-0.33256 1.328108,-0.40763 2.37022,-0.17875 1.796794,0.39465 1.796823,0.3947 1.474968,3.25958 l -0.321847,2.86493 0.823952,-1.91143 c 1.463522,-3.39512 1.688765,-3.47051 4.726696,-1.58204 4.22781,2.62816 4.179483,2.46 2.53993,8.83822 -2.15643,8.38898 -2.813616,14.54936 -2.142917,20.08758 0.309724,2.55754 0.74225,5.08877 0.961158,5.62496 0.776187,1.90114 -0.627223,0.93511 -2.7265,-1.87679 z M 24.2115,240.71221 c -2.201856,-4.97878 -4.540666,-18.73168 -3.185497,-18.73168 0.775783,0 1.001386,0.77655 2.336096,8.04121 0.938424,5.10775 2.561232,11.72924 3.757007,15.32966 0.597125,1.79788 -1.637919,-1.7682 -2.907606,-4.63919 z m 14.217143,-24.55492 c -1.085551,-1.16047 -1.248465,-1.66834 -0.775913,-2.41875 1.083139,-1.72002 2.390118,-1.45635 3.27465,0.66062 0.453806,1.08612 0.825111,2.49301 0.825111,3.12643 0,0.92562 -0.191336,1.04851 -0.974895,0.62612 -0.536191,-0.28904 -1.593219,-1.18653 -2.348953,-1.99442 z m -6.703619,-2.50271 c 0,-1.58404 1.474573,-2.55824 2.537281,-1.67628 1.397161,1.15954 1.821473,2.39216 1.299557,3.77521 l -0.488146,1.29357 -1.674346,-1.19224 c -0.920894,-0.65573 -1.674346,-1.64585 -1.674346,-2.20026 z m -11.123919,1.15495 c 0.01487,-0.7617 0.148498,-0.73378 0.835625,0.17468 1.064565,1.40749 1.053299,2.31436 -0.01771,1.42551 -0.459594,-0.38143 -0.827651,-1.10152 -0.817908,-1.60019 z m 6.163722,-0.62814 c -0.242197,0 -0.666689,0.5064 -0.943305,1.12534 -0.468571,1.04843 -0.588594,1.06531 -1.756372,0.24695 -1.457842,-1.02164 -1.568131,-1.85237 -0.445383,-3.35487 0.791996,-1.05987 0.826407,-1.05565 1.731319,0.21273 l 0.92327,1.29411 1.246025,-1.17058 c 2.312735,-2.17271 4.472513,0.24251 2.300446,2.57252 -1.097659,1.17747 -1.139953,1.18063 -1.869353,0.13926 -0.410461,-0.586 -0.944442,-1.06546 -1.186647,-1.06546 z m -13.399434,-11.2105 c -0.371462,-2.27955 -0.295309,-3.39005 0.318818,-4.64834 l 0.806877,-1.65327 -1.689016,1.61822 -1.689071,1.61822 0.02395,-1.6362 c 0.01337,-0.89991 0.232192,-2.71168 0.486388,-4.02614 0.45664,-2.36182 0.448952,-2.37821 -0.65095,-1.39271 -1.0954456,0.98142 -1.1066985,0.96631 -0.710948,-0.95255 0.221162,-1.07238 0.888713,-2.79499 1.483508,-3.82802 0.887543,-1.5417 0.925481,-1.81845 0.211636,-1.54451 -0.738858,0.28353 -0.770945,0.1471 -0.213028,-0.90717 2.22905,-4.21227 2.241028,-4.21212 3.624094,0.0477 0.697689,2.14873 1.438443,6.15793 1.646123,8.90932 0.35798,4.7415 0.294585,5.17845 -1.214218,8.37376 -0.875564,1.85417 -1.67169,3.29148 -1.769123,3.19402 -0.09749,-0.0975 -0.396865,-1.525 -0.665322,-3.1723 z m 95.575447,-32.03986 c -3.21028,-1.28191 -2.50392,-1.34842 1.88977,-0.17793 1.07238,0.28568 2.70185,1.16071 3.62103,1.94451 l 1.67125,1.42508 -1.88977,-0.91651 c -1.03938,-0.50407 -3.4209,-1.52789 -5.29228,-2.27515 z m 1.33269,-13.93035 -4.17811,-2.51504 2.50687,0.38164 c 4.40379,0.67041 8.87645,3.46568 11.83797,7.39838 1.45538,1.93264 2.64615,3.75104 2.64615,4.04088 0,0.28984 -1.94283,-1.11953 -4.31738,-3.13192 -2.37456,-2.0124 -6.19754,-4.79067 -8.4955,-6.17394 z m 271.57727,-7.71562 c -5.82151,-4.35935 -13.21676,-9.63059 -16.43391,-11.71386 -6.71469,-4.34812 -7.55672,-5.02024 -5.57081,-4.44677 3.12199,0.90154 15.10241,7.09801 20.05493,10.37273 5.64844,3.73487 17.05792,14.65233 20.60511,19.71655 l 1.94287,2.77379 -5.00682,-4.38817 c -2.75375,-2.4135 -9.76986,-7.95491 -15.59137,-12.31427 z m -64.03653,15.42066 c 0.29108,-0.24887 2.2309,-1.8045 4.31071,-3.45694 2.07982,-1.65245 4.39076,-3.80327 5.13544,-4.7796 l 1.35396,-1.77514 -2.75795,1.04795 c -1.51688,0.57637 -4.20385,1.20392 -5.97107,1.39456 l -3.21311,0.34662 2.78124,-1.80671 c 6.1876,-4.01949 9.92362,-8.20625 13.36292,-14.97514 0.90679,-1.78463 0.79914,-1.73131 -1.84713,0.91496 -5.00673,5.00673 -11.88922,7.96294 -18.43697,7.9192 l -3.6592,-0.0245 2.09803,-0.74861 c 5.65297,-2.01707 11.98643,-7.20766 19.36086,-15.8672 2.07584,-2.43759 2.61775,-3.34572 1.70501,-2.85724 -1.54074,0.82459 -10.62956,3.82892 -10.62956,3.51364 0,-0.56957 4.05749,-9.9663 4.5016,-10.42521 1.21316,-1.25364 0.28727,-1.24965 -2.93374,0.0127 l -3.44587,1.35042 1.60417,-1.67439 c 1.79218,-1.87062 6.59012,-4.45172 8.27521,-4.45172 0.60369,0 0.95161,-0.14601 0.77315,-0.32448 -0.48115,-0.48115 -11.39852,1.35624 -13.65135,2.29753 -2.42675,1.01397 -2.66946,1.01454 -1.83107,0.004 1.06487,-1.28309 6.56615,-4.20404 7.95289,-4.22266 2.16544,-0.0291 -0.11471,-0.99197 -4.56658,-1.92845 -9.37696,-1.9725 -16.92752,-0.69857 -24.8387,4.19081 l -2.05336,1.26905 0.71618,-1.3382 c 1.3025,-2.43373 6.9461,-7.59225 10.0295,-9.16745 1.66873,-0.85249 4.41284,-1.99626 6.09801,-2.54172 4.14393,-1.3413 2.46134,-1.29427 -4.51836,0.12631 -9.58254,1.95033 -17.04165,5.33732 -24.03207,10.91234 -2.06817,1.64941 -3.7603,2.82377 -3.7603,2.60968 0,-0.63659 2.76987,-4.2023 5.51458,-7.09902 l 2.5631,-2.70506 -3.34249,1.83594 c -7.84401,4.30849 -20.54098,12.30678 -21.18135,13.3429 -0.18058,0.29221 -0.85799,0.81474 -1.50534,1.1612 -1.07697,0.57637 -1.04318,0.39909 0.39748,-2.08606 5.50564,-9.49724 12.60985,-15.60335 23.54422,-20.23641 5.10531,-2.1632 13.84605,-4.788745 19.91409,-5.981792 6.22586,-1.224075 24.29728,-1.446511 25.43077,-0.313007 0.55709,0.557076 0.35967,0.696349 -0.98707,0.696349 -0.92588,0 -2.91883,0.434196 -4.4288,0.964873 l -2.74537,0.964877 4.7352,0.37382 c 5.49939,0.43416 10.54799,1.64797 14.64789,3.52175 l 2.90017,1.32545 -2.94945,0.0456 c -1.62221,0.0251 -4.613,0.46351 -6.6462,0.97423 l -3.69673,0.92859 3.30371,0.91835 c 4.0732,1.13225 5.96475,2.11155 9.47854,4.90721 2.60901,2.07571 9.1449,8.34428 9.1449,8.77078 0,0.11109 -0.94008,-0.19336 -2.08906,-0.67657 -2.60621,-1.09605 -8.77976,-1.18836 -11.00236,-0.16453 l -1.67124,0.76985 1.7983,0.19943 c 1.5833,0.17558 1.87324,0.47773 2.42512,2.52726 0.773,2.87071 0.76952,9.8443 -0.006,13.30772 -2.2845,10.19392 -7.85852,19.22586 -14.63115,23.70777 -2.70533,1.79031 -8.4716,3.8795 -6.82729,2.47362 z m -4.62378,-59.52418 c -0.38299,-0.15454 -1.00971,-0.15454 -1.3927,0 -0.38299,0.15453 -0.0696,0.28098 0.69635,0.28098 0.76599,0 1.07935,-0.12645 0.69635,-0.28098 z M 36.109875,156.52688 c -1.948616,-0.24236 -4.253878,-0.08 -6.609916,0.46541 -1.989765,0.46064 -3.717628,0.73768 -3.839681,0.61562 -0.376553,-0.37655 1.172868,-1.95449 2.689015,-2.73853 3.872509,-2.00254 9.750843,-1.48106 13.263925,1.17669 2.436545,1.8433 2.284378,2.54492 -0.350341,1.61534 -1.188476,-0.41932 -3.50733,-0.92986 -5.153002,-1.13453 z m 111.465915,-5.02865 c -0.90096,-0.46591 -2.13672,-1.82448 -2.74615,-3.01903 l -1.10803,-2.17193 7.36973,0.30751 c 4.05336,0.16914 7.47519,0.4006 7.60406,0.51437 0.43632,0.38517 -2.45103,3.0881 -4.41243,4.13061 -2.39725,1.27416 -4.55595,1.35092 -6.70718,0.23847 z m 65.83088,-76.554806 c 5.69825,-10.365126 17.38047,-20.079782 31.12352,-25.881581 16.36748,-6.909733 45.28525,-10.308359 64.9,-7.627521 l 2.78541,0.380698 -4.45665,0.441543 c -15.92187,1.577454 -28.20127,5.383397 -49.58755,15.369435 -6.57093,3.068205 -14.36686,6.256979 -17.77173,7.269185 -10.3189,3.06762 -20.55765,7.668921 -26.50897,11.91316 -1.07238,0.764775 -2.02942,1.402798 -2.12676,1.417822 -0.0973,0.01505 0.64189,-1.462212 1.64273,-3.282741 z m 43.65785,423.101246 c 10.56056,-3.19069 15.1315,-5.29828 22.68775,-10.46094 2.67363,-1.8267 5.93255,-4.31212 7.24207,-5.52315 l 2.38092,-2.20186 -2.22833,1.33456 c -3.75131,2.24668 -30.47881,15.84676 -33.14636,16.86626 -1.37877,0.52695 -2.74501,1.17107 -3.03609,1.43139 -0.69614,0.62259 -0.93451,0.6791 6.10004,-1.44626 z m -99.2843,-15.95616 c 10.12112,-1.06983 21.49435,-5.55785 29.56287,-11.66588 4.71665,-3.57059 5.27569,-4.5604 1.31239,-2.32366 -8.36446,4.72061 -26.14041,11.33675 -35.48667,13.208 -2.60436,0.52143 -4.83965,1.04698 -4.96731,1.1679 -0.35122,0.33265 4.70651,0.12865 9.57872,-0.38636 z M 495.16764,285.28078 c 0.0673,-5.99553 -1.37026,-15.14916 -3.34973,-21.32866 -2.07935,-6.49129 -9.57569,-21.38346 -10.36605,-20.59311 -0.13428,0.13429 0.1347,0.97678 0.59773,1.8722 2.43076,4.70056 9.59485,28.01185 11.77256,38.30684 l 1.29624,6.12789 z M 71.660932,166.27739 c 1.589484,-0.56526 4.785743,-1.44952 7.102791,-1.965 2.31704,-0.5155 4.212807,-1.04608 4.212807,-1.17908 0,-1.0462 -11.645156,1.85796 -13.706364,3.41822 -1.328453,1.00558 -1.150364,0.98516 2.390766,-0.27414 z M 50.325038,147.43226 c 0.35957,-0.58179 5.558035,-2.00441 10.368226,-2.83739 2.803422,-0.48546 2.581202,-0.52193 -2.61349,-0.42889 l -5.677438,0.10167 1.218265,-1.39271 c 0.670051,-0.76598 1.72078,-1.84823 2.334952,-2.40498 1.113274,-1.0092 1.113094,-1.01053 -0.06033,-0.4391 -1.975857,0.96218 -6.855792,6.9742 -6.196266,7.63373 0.164016,0.16402 0.445764,0.0595 0.626108,-0.23233 z"
     id="path1" /></svg>
