<?xml version="1.0" encoding="UTF-8" standalone="no"?>
<svg
   width="500"
   height="512"
   version="1"
   id="svg1"
   xml:space="preserve"
   xmlns="http://www.w3.org/2000/svg"
   xmlns:svg="http://www.w3.org/2000/svg"><defs
     id="defs1" /><path
     style="fill:#00512c;stroke-width:0.566536;fill-opacity:1"
     d="m 291.76067,497.05507 c 16.38892,-3.97852 34.37019,-13.13785 49.572,-25.25109 20.07222,-15.99412 42.02221,-44.16446 55.73403,-71.52833 10.82897,-21.61075 19.14962,-47.14252 21.09714,-64.73623 0.37711,-3.40675 0.44888,-3.55523 0.95852,-1.98288 1.02977,3.17703 0.77179,22.61633 -0.38344,28.8934 -2.6704,14.50983 -9.32563,32.38678 -16.55647,44.47315 -1.93177,3.22897 -1.47867,2.75715 4.35579,-4.53564 15.29287,-19.11539 25.67914,-40.60786 32.16753,-66.56477 2.72711,-10.90985 3.5031,-16.35133 3.878,-27.19378 0.34108,-9.8644 0.37743,-10.10509 1.11249,-7.36498 2.47314,9.21925 3.13789,23.87724 1.58,34.83948 -3.26465,22.97196 -16.73372,52.41757 -34.72681,75.91853 -3.38108,4.41608 -12.36598,15.2994 -15.43453,18.69572 -4.46959,4.94702 -4.45129,4.91084 -1.37757,2.72172 1.55798,-1.1096 4.33831,-3.06642 6.17854,-4.3485 10.07613,-7.02001 27.68852,-24.06583 37.26224,-36.06355 19.62283,-24.59122 32.87619,-54.75614 37.3329,-84.97041 2.30014,-15.59379 2.15118,-41.45297 -0.30756,-53.39067 -0.40111,-1.94747 -0.63724,-3.54086 -0.52475,-3.54086 1.00152,0 5.6635,12.15367 7.4974,19.54554 3.66511,14.77285 3.10037,33.77354 -1.55098,52.18279 -2.84648,11.26587 -9.04155,28.44959 -13.31845,36.94238 -1.12734,2.2386 -1.94672,4.07019 -1.82085,4.07019 0.32526,0 7.68109,-11.42093 10.3993,-16.14631 11.21331,-19.49344 18.87459,-42.78466 21.95265,-66.73876 1.08027,-8.40676 1.1026,-27.24674 0.0428,-36.08774 -1.93611,-16.15114 -7.7269,-33.05261 -15.59048,-45.50371 -1.25889,-1.9933 -2.28888,-3.80926 -2.28888,-4.03547 0,-1.35851 9.62323,7.99714 12.75108,12.39654 2.51683,3.53997 5.93576,10.14596 7.20105,13.91376 l 1.04669,3.11682 -0.31155,-3.39922 c -1.82967,-19.96326 -10.0502,-38.92901 -23.34642,-53.863 -4.65856,-5.23237 -4.73867,-5.36924 -2.63085,-4.49453 8.99432,3.73252 18.41435,11.81575 22.45271,19.26646 1.76859,3.26302 2.08329,3.61439 1.77593,1.98289 -0.20546,-1.09059 -1.00823,-4.02242 -1.78393,-6.51518 -3.82097,-12.27878 -11.18113,-23.47469 -21.49884,-32.70294 -5.17079,-4.62481 -7.66533,-6.4047 -12.45863,-8.88944 l -3.48913,-1.8087 5.79899,-5.77651 c 3.18944,-3.17707 6.82492,-7.30616 8.07883,-9.17573 8.71064,-12.98744 12.64777,-27.105315 11.06149,-39.664649 -1.04021,-8.235841 -3.27682,-13.003983 -7.91916,-16.882542 -5.75571,-4.808767 -13.13074,-5.783884 -28.93284,-3.825459 -14.8149,1.836084 -29.82231,1.635092 -42.86159,-0.574016 -3.89039,-0.659109 -17.48059,-3.5559 -22.94476,-4.890751 -4.9902,-1.219058 -6.96592,-2.279917 -15.86304,-8.517609 -14.58282,-10.223895 -22.92688,-13.171972 -43.0568,-15.212611 l -9.34785,-0.947625 -5.38211,-3.561076 c -11.9721,-7.921361 -23.85319,-11.202291 -40.79067,-11.26423 -9.62846,-0.03518 -14.15488,0.519961 -21.2192,2.602563 -3.8593,1.137749 -4.05672,1.141449 -9.65965,0.181077 -7.17279,-1.229459 -18.11057,-0.926362 -23.22545,0.643597 -2.41012,0.739774 -4.47072,0.965369 -7.08171,0.775318 -7.48536,-0.544856 -20.66706,-0.256278 -23.79456,0.520914 -4.231,1.051419 -9.6601,3.246744 -14.19815,5.741225 -3.57726,1.966335 -4.11779,2.090459 -10.50796,2.41291 -21.4287,1.081298 -39.99764,9.559129 -52.65972,24.042323 -3.97025,4.541266 -11.295529,14.905258 -14.576559,20.623292 -1.36799,2.38405 -1.75023,2.661084 -4.17296,3.0244 -6.48179,0.972 -14.67615,4.40665 -21.4411,8.986983 -1.86958,1.265826 -6.79901,4.991618 -10.95429,8.279527 -19.09293,15.107459 -33.52958,25.321419 -40.19071,28.435039 -8.1251102,3.79791 -11.2478002,7.84285 -12.63180025,16.36248 -1.09438,6.73713 1.65009005,14.24825 7.56475005,20.70303 l 3.3957602,3.70591 0.10158,9.45973 c 0.0787,7.32622 0.38365,10.7724 1.35233,15.28001 1.7312,8.05625 3.8127,14.4543 6.17531,18.9815 2.23792,4.28826 7.9006,10.71906 11.32546,12.86168 1.9665,1.23028 2.32659,1.79547 2.89393,4.54221 0.69512,3.36547 2.91579,6.39388 5.37381,7.32841 1.26395,0.48056 1.40828,0.92728 1.78366,5.52086 0.77021,9.42501 5.01696,22.9372 9.76145,31.05869 6.20317,10.61841 15.87975,20.00965 22.7656,22.09428 1.25923,0.38122 1.32367,0.29823 0.94046,-1.21138 -1.77155,-6.97878 -3.22317,-17.91336 -3.48679,-26.265 l -0.29507,-9.34787 1.47375,2.77019 c 4.5284,8.51202 11.60773,16.55733 19.1366,21.74775 3.89299,2.68385 11.529549,6.20655 12.137249,5.59886 0.13064,-0.13063 -0.91683,-3.95561 -2.32769,-8.49996 -3.372789,-10.86367 -4.857649,-19.18421 -5.259409,-29.47175 l -0.32888,-8.42146 1.35932,0.3912 c 2.87456,0.82727 13.930119,5.0336 16.089269,6.12151 9.37109,4.72172 15.09118,11.62831 18.40896,22.22748 1.59858,5.10686 2.18374,16.96185 1.15289,23.35655 -1.59459,9.8918 -5.59757,19.12272 -10.6684,24.60151 -2.56842,2.77504 -3.44903,3.34514 -6.07496,3.93279 -2.72785,0.61046 -3.1397,0.89505 -3.68458,2.54606 -1.20581,3.65363 -6.5319,7.29471 -14.430399,9.86505 -5.39833,1.75673 -9.00581,3.63545 -10.41101,5.42189 l -1.17493,1.49368 -2.75466,-2.02211 c -2.35699,-1.73019 -7.43004,-4.32692 -8.45322,-4.32692 -0.76991,0 0.50969,12.09645 1.81304,17.13932 1.62589,6.29075 5.25081,14.42812 8.79542,19.7443 1.32889,1.99309 4.41481,5.66332 6.85759,8.15608 4.24107,4.32787 4.45821,4.67662 4.81413,7.73186 0.33915,2.91128 0.2608,3.25947 -0.86955,3.86441 -0.68325,0.36566 -1.98999,1.84387 -2.90387,3.28489 -1.86621,2.9427 -2.23957,7.23045 -0.84841,9.74303 0.7243,1.30815 0.61918,1.56729 -1.66754,4.11067 -2.81118,3.12669 -4.08908,6.40447 -4.56502,11.70902 l -0.33612,3.74602 1.37126,-2.83269 c 0.75419,-1.55798 1.83532,-3.2151 2.40253,-3.68249 0.96692,-0.79676 1.00594,-0.74372 0.62515,0.8498 -0.2234,0.9348 -0.55005,5.28319 -0.72593,9.66311 -0.27664,6.88958 -0.15969,8.60856 0.8673,12.74708 1.09689,4.42011 5.8422,14.90606 7.0964,15.68119 0.32702,0.20212 0.37129,-0.0958 0.11117,-0.74862 -0.99934,-2.50804 -1.01421,-7.56726 -0.035,-11.92056 l 1.00327,-4.46033 1.26765,5.12274 c 1.417709,5.72911 3.530669,10.27467 7.889379,16.97221 2.63067,4.04225 9.90742,12.99179 10.25439,12.6117 0.0742,-0.0813 -0.21508,-1.80499 -0.64293,-3.83038 -0.83023,-3.93027 -1.08358,-11.91532 -0.37659,-11.87007 0.23369,0.0149 1.44466,1.45255 2.69104,3.19467 5.81701,8.13068 15.46095,15.68296 24.89148,19.49281 2.82425,1.14096 5.23965,1.97973 5.36757,1.86392 0.12792,-0.1158 -0.19075,-0.67834 -0.70817,-1.25008 -0.51742,-0.57174 -0.94076,-1.20255 -0.94076,-1.40181 0,-0.19927 -1.00063,-2.40993 -2.22362,-4.9126 -1.22298,-2.50265 -2.0708,-4.55029 -1.88402,-4.55029 0.18675,0 3.29065,1.2598 6.89753,2.79957 3.60689,1.53977 7.27663,2.97401 8.15499,3.18717 1.58372,0.38437 1.59367,0.36983 1.19644,-1.74756 l -0.40055,-2.13516 2.48603,1.70551 c 3.94543,2.70669 11.72168,6.73629 16.63655,8.62091 2.48566,0.95314 4.6012,1.73298 4.70121,1.73298 0.1,0 -0.69872,-0.90666 -1.77492,-2.0148 -1.07623,-1.10814 -2.87825,-3.76841 -4.00452,-5.91172 -2.12295,-4.03998 -5.06066,-11.33573 -4.56445,-11.33573 0.70811,0 5.54383,3.87861 10.33123,8.28645 3.74305,3.44628 5.08501,4.41323 4.69268,3.3813 -0.30222,-0.79488 -0.83753,-3.17167 -1.18958,-5.28179 -0.91875,-5.50657 -2.13725,-9.59955 -3.96356,-13.31365 l -1.59576,-3.24519 5.48875,2.74871 c 4.79711,2.40235 15.76539,6.85763 16.88255,6.85763 0.21769,0 0.002,-0.44615 -0.47818,-0.99143 -2.26318,-2.56731 -7.9469,-17.17939 -7.03647,-18.08983 0.48358,-0.48355 5.57994,2.5246 8.48705,5.00954 1.4938,1.27685 3.59277,3.62349 4.66438,5.21475 1.07162,1.59126 1.9484,2.75549 1.9484,2.58718 0,-0.16831 -0.8774,-2.91141 -1.94979,-6.09577 -2.12909,-6.32218 -5.00132,-11.51075 -8.44362,-15.25313 l -2.21471,-2.40778 h 2.32683 c 4.79399,0 8.42951,2.55004 10.05549,7.05315 0.61056,1.69092 0.64413,1.6403 1.55798,-2.34943 1.18388,-5.16866 1.19691,-13.23838 0.0296,-18.37034 -0.49739,-2.18673 -0.76699,-4.11321 -0.59916,-4.28104 0.57293,-0.57293 3.59249,2.03351 5.83382,5.03568 1.23085,1.64867 4.09178,5.47559 6.35762,8.50427 4.44604,5.94285 10.40008,11.80534 15.37271,15.13631 3.9473,2.64414 8.49805,5.26823 8.49805,4.90022 0,-0.15511 -0.57609,-1.13094 -1.28023,-2.16854 -2.96637,-4.37117 -11.18359,-22.43991 -11.18359,-24.5914 0,-0.32079 12.05589,12.27223 15.80888,16.51323 5.90909,6.67743 12.59551,17.07243 14.85181,23.08929 l 1.11428,2.97141 -0.27243,-9.0646 c -0.34952,-11.6293 -2.71471,-22.16669 -7.67599,-34.19791 -0.91703,-2.22384 -1.49059,-4.04315 -1.27457,-4.04292 0.43106,4.6e-4 6.65084,7.69126 9.85042,12.18013 4.93718,6.92664 9.23765,16.56688 10.67608,23.93225 1.08265,5.54361 0.46758,14.82483 -1.32371,19.97437 l -1.47804,4.24904 1.41262,-1.69963 c 5.54678,-6.67367 9.82267,-16.77783 11.48278,-27.13435 l 1.00848,-6.29133 0.74388,4.24181 c 1.15562,6.58974 0.53479,14.96454 -1.59647,21.53562 -2.49224,7.68407 -5.13484,11.86445 -11.68069,18.47789 -6.10779,6.17086 -6.06263,6.23361 1.69276,2.35208 15.53547,-7.77541 27.85262,-23.18053 34.26115,-42.85055 l 2.14688,-6.58953 0.45964,2.83268 c 0.25279,1.55798 0.43868,5.63705 0.41307,9.0646 -0.14598,19.53992 -9.55723,37.30777 -25.29487,47.75513 -4.84306,3.21505 -4.80191,3.28869 1.04448,1.86944 z M 141.29649,457.27042 c -2.14182,-1.55784 -5.04664,-4.1498 -6.45512,-5.75991 -3.08893,-3.5311 -3.44461,-2.4517 -0.867,2.63107 l 1.67954,3.31186 -2.33069,-2.10564 c -8.37304,-7.56453 -15.32896,-20.93534 -16.79226,-32.2784 l -0.43851,-3.39922 -1.09948,3.96576 c -0.60489,2.18185 -1.10521,5.78735 -1.11221,8.0153 -0.007,2.22723 -0.18445,3.9451 -0.39432,3.81746 -1.18154,-0.71861 -2.43519,-6.55781 -2.44284,-11.37818 -0.004,-2.86594 -0.17971,-5.03294 -0.38926,-4.81557 -0.74721,0.7751 -2.16944,7.40889 -2.22781,10.3914 l -0.0594,3.03418 -0.74687,-2.26614 c -1.19663,-3.63084 -1.04147,-12.18222 0.28513,-15.71534 1.09943,-2.92806 1.09972,-2.95552 0.0165,-1.56405 -1.82086,2.33896 -4.64922,7.9379 -5.70555,11.29453 l -0.99199,3.15216 -0.0393,-3.96575 c -0.0275,-2.77575 0.28873,-4.68828 1.0537,-6.37354 0.6011,-1.32429 1.01574,-2.40779 0.92138,-2.40779 -0.42247,0 -3.631559,3.37791 -5.397599,5.68155 -1.06812,1.39328 -2.09989,2.7237 -2.2928,2.95647 -0.19292,0.23278 -0.16626,-1.50828 0.0593,-3.86905 0.67027,-7.01708 4.840189,-14.40621 10.124249,-17.9403 1.36092,-0.9102 1.31657,-0.91756 -1.13307,-0.18798 -1.40218,0.41762 -3.0593,0.96064 -3.68248,1.20673 l -1.133079,0.44743 1.133079,-1.29037 c 4.41513,-5.02808 14.5444,-5.51984 23.62622,-1.14706 1.77699,0.8556 3.30923,1.32065 3.40496,1.03345 0.21467,-0.644 9.76012,3.94884 13.37263,6.43431 l 2.64589,1.82042 -2.12097,-2.58835 c -1.16652,-1.42358 -2.12095,-2.73543 -2.12095,-2.91521 0,-0.17977 1.54098,0.29929 3.4244,1.06459 1.88341,0.76531 7.41239,2.54649 12.28661,3.95819 4.87422,1.41171 9.13316,2.71715 9.46432,2.901 2.77937,1.54298 -6.25055,-4.9488 -12.30349,-8.84524 -2.11255,-1.35991 -3.73167,-2.58189 -3.59804,-2.71551 0.13362,-0.13364 1.22472,0.0194 2.42466,0.34017 2.9388,0.78551 7.99037,0.88923 17.40818,0.35745 l 7.86151,-0.4439 -4.95655,-1.91624 c -2.72611,-1.05394 -6.56775,-2.34557 -8.53701,-2.87029 l -3.58044,-0.95406 3.87477,-1.50757 c 6.05168,-2.35454 11.62552,-6.40627 19.01187,-13.82011 8.08604,-8.11612 15.07021,-17.40477 21.53653,-28.64268 2.59975,-4.51812 5.9004,-10.25432 7.33477,-12.74708 1.53967,-2.67576 5.04427,-7.20108 8.55565,-11.04747 6.3883,-6.99783 9.89615,-11.80852 13.33769,-18.29142 2.39622,-4.51382 2.77598,-4.05761 1.10132,1.32308 -0.60392,1.94038 -0.87729,3.30153 -0.6075,3.0248 0.98713,-1.01254 4.70588,-7.96062 6.03054,-11.26736 l 1.36169,-3.39922 -0.33381,2.54941 c -0.61449,4.69295 -2.56165,10.96064 -4.62487,14.88696 -1.53103,2.91355 -3.83719,5.69427 -9.18329,11.07302 -3.92636,3.95035 -7.75148,8.07473 -8.50026,9.16532 l -1.36142,1.98288 1.93513,-1.71074 c 1.06432,-0.9409 2.66754,-2.34308 3.56271,-3.11595 l 1.62758,-1.40521 -1.28021,2.54941 c -1.68741,3.36031 -4.13717,6.97076 -7.20256,10.61512 l -2.49554,2.96687 7.51705,-3.7701 c 6.48663,-3.2533 8.10993,-4.35894 11.84219,-8.06571 4.30202,-4.27263 7.7702,-8.90557 10.10735,-13.50183 0.67338,-1.32427 1.32688,-2.40777 1.45222,-2.40777 0.60511,0 -2.60709,8.851 -4.38814,12.09121 -4.6098,8.38652 -9.6581,13.32853 -22.20676,21.73925 -4.11367,2.75719 -8.42049,6.23793 -10.90583,8.81401 -3.88144,4.02314 -5.60586,6.46726 -2.83269,4.01492 3.88263,-3.43345 11.81925,-5.89467 18.7591,-5.81737 l 4.61055,0.0514 -5.24046,1.7343 c -2.88226,0.95386 -5.24047,1.89352 -5.24047,2.08814 0,0.19461 1.0835,0.26725 2.40779,0.1614 2.09615,-0.16753 1.01467,0.51782 -8.35643,5.29561 -5.92031,3.01843 -11.90843,6.41254 -13.3069,7.54246 -4.36432,3.5262 -5.9005,5.38492 -3.26431,3.94969 2.45166,-1.33476 8.2405,-0.80444 13.02933,1.19364 4.44505,1.85464 6.47493,3.30152 3.44771,2.45751 -0.883,-0.24618 -4.28233,-0.44755 -7.55408,-0.44748 -5.26105,10e-5 -6.30881,0.17273 -9.0646,1.49343 -1.71377,0.82133 -3.62583,1.89391 -4.24903,2.38352 -1.06042,0.83313 -0.94999,0.86943 1.72241,0.56624 7.69486,-0.873 18.26655,4.39536 22.6309,11.27809 1.2112,1.9101 0.68492,1.93967 -2.25835,0.12685 -2.61748,-1.61214 -3.20737,-1.73244 -2.75843,-0.56252 0.22188,0.57821 -0.97243,0.24587 -3.8419,-1.06908 -3.696,-1.69369 -11.04438,-3.78129 -13.05705,-3.70934 -0.40587,0.0145 0.45547,0.64784 1.91412,1.4074 3.82972,1.99424 3.8589,2.66894 0.0575,1.32845 -1.84551,-0.65077 -5.37894,-1.27437 -8.09167,-1.42804 l -4.81556,-0.27278 2.26614,1.09495 c 6.60966,3.19362 10.92118,8.76398 15.80712,20.42233 1.61662,3.85743 1.80522,4.67833 1.0197,4.43842 -11.71605,-3.57827 -20.00937,-6.34372 -21.35911,-7.12233 -3.19318,-1.842 -3.96805,-1.81934 -1.6997,0.0497 1.24632,1.02695 3.67101,3.14188 5.38822,4.69986 1.71719,1.55797 4.13918,3.65031 5.3822,4.64962 l 2.26003,1.81692 -6.23191,-1.63718 c -5.45646,-1.43346 -10.10451,-2.90724 -13.47142,-4.27146 -0.55418,-0.22454 0.3683,1.00101 2.04993,2.72345 2.11824,2.16964 4.06513,5.10538 6.33742,9.55631 1.80395,3.53353 3.89042,7.39677 4.63662,8.58496 l 1.35672,2.16036 -1.30444,-0.68435 c -2.44796,-1.2843 -5.83299,-4.10138 -11.11822,-9.25281 l -5.28147,-5.14777 2.87369,4.71553 c 1.58053,2.59353 2.87369,4.84163 2.87369,4.99577 0,0.60777 -3.90593,-2.54532 -8.16182,-6.58871 -3.86476,-3.67178 -4.2823,-3.94474 -3.04335,-1.98951 1.70516,2.69098 7.99445,13.37389 8.30821,14.11223 0.57432,1.35153 -7.54213,-5.0061 -11.69138,-9.15787 -2.57066,-2.57222 -4.67392,-4.53918 -4.67392,-4.37101 0,0.59497 5.30637,9.66935 7.94113,13.58008 1.46952,2.18117 3.87674,5.30419 5.34938,6.94007 1.47264,1.63588 2.54009,2.97433 2.37212,2.97433 -0.63186,0 -7.04557,-3.96991 -10.38309,-6.42686 -4.1266,-3.03783 -8.91617,-8.62114 -10.76767,-12.55214 l -1.33419,-2.83268 0.3303,3.39922 c 0.47327,4.87056 2.29662,11.34814 4.43232,15.74612 1.01477,2.08967 1.66202,3.79941 1.43832,3.79941 -0.76655,0 -5.78913,-5.94799 -8.35754,-9.89741 -1.41239,-2.17182 -3.29486,-5.74101 -4.18326,-7.93152 l -1.61527,-3.98275 0.21332,4.67393 c 0.11732,2.57066 0.14392,4.67393 0.0591,4.67393 -0.0849,0 -0.84871,-1.27597 -1.69751,-2.83552 -2.40475,-4.41834 -2.21025,-2.94142 0.3348,2.54215 3.20903,6.91418 6.84835,12.33522 11.55667,17.21454 l 4.02779,4.17408 -4.16742,-2.08692 c -2.29209,-1.14781 -5.91985,-3.36152 -8.0617,-4.91937 z m 149.38267,-59.83683 c 10.82374,-16.34539 16.84768,-30.03799 19.87712,-45.18134 1.14116,-5.70429 1.32923,-21.75972 0.3086,-26.34396 l -0.5676,-2.54942 -0.0759,2.54942 c -0.10745,3.60763 -2.86114,14.77118 -3.94117,15.9775 -0.19585,0.21876 -0.26754,-2.16887 -0.15933,-5.30582 0.13336,-3.86543 -0.13276,-7.4627 -0.82574,-11.16195 l -1.02252,-5.45837 -0.43523,5.35017 c -0.95182,11.70027 -3.80585,21.86812 -9.47083,33.74088 -5.7676,12.08786 -14.87707,26.43745 -19.59956,30.87401 l -1.49425,1.40377 1.67124,-3.3918 c 4.35131,-8.83105 7.47152,-19.4148 8.91066,-30.22507 0.86842,-6.52318 1.1086,-19.66349 0.36779,-20.12133 -0.25109,-0.15518 -1.01086,2.44292 -1.68836,5.77357 -0.93066,4.57515 -1.94483,7.48089 -4.14811,11.8848 -1.60396,3.206 -2.99948,5.74588 -3.10119,5.64417 -0.1017,-0.1017 0.0532,-1.83248 0.34422,-3.8462 1.50224,-10.3945 -0.3042,-26.20771 -3.98922,-34.92074 l -1.15579,-2.73277 0.35248,2.26615 c 0.19387,1.24638 0.3448,5.49033 0.33541,9.43098 -0.0137,5.72496 -0.30084,8.28668 -1.42903,12.74709 -1.29698,5.12772 -4.63353,13.69645 -5.12837,13.17041 -0.11546,-0.12276 0.19908,-2.00777 0.69898,-4.18894 0.6744,-2.9425 0.91462,-7.03554 0.93099,-15.86304 0.0201,-10.85284 -0.11829,-12.59358 -1.57686,-19.8288 -1.67694,-8.31839 -3.08686,-13.83583 -6.2976,-24.64437 -1.06446,-3.58334 -1.63526,-6.05044 -1.26845,-5.48243 6.15197,9.52631 15.11363,21.69963 15.11363,20.53001 0,-0.19951 -0.49676,-1.33645 -1.10388,-2.52652 -1.22404,-2.39932 -5.31983,-15.91733 -4.93833,-16.29882 0.9754,-0.9754 13.0248,22.1291 15.26583,29.27193 1.52925,4.87421 2.8698,13.38771 2.26273,14.36998 -0.18187,0.29429 -0.0659,0.37136 0.25792,0.17129 1.13643,-0.70237 2.11547,-8.01339 2.02311,-15.1078 -0.10153,-7.79776 -1.42799,-15.17696 -3.77073,-20.97705 -0.76476,-1.89333 -1.18945,-3.36556 -0.94378,-3.2716 1.13047,0.43232 6.67486,7.79906 8.6029,11.43052 1.17876,2.22024 2.14992,3.86079 2.15812,3.64566 0.0823,-2.16074 -6.76758,-17.15698 -9.43328,-20.65191 -2.80991,-3.68396 -0.88312,-2.47906 3.56358,2.22847 5.23525,5.54234 16.01029,19.28291 19.05659,24.30138 1.16849,1.92496 2.12069,3.38997 2.11601,3.25559 -0.004,-0.13438 -0.6692,-2.28386 -1.47673,-4.77663 -1.63195,-5.03765 -2.37703,-14.75469 -1.65112,-21.53314 l 0.40061,-3.74085 1.95374,2.7226 c 2.68249,3.73813 5.22827,9.01312 5.82535,12.07046 0.27384,1.40217 0.52603,2.29448 0.56042,1.98287 0.0344,-0.31159 0.46409,-2.47859 0.9549,-4.81556 0.49081,-2.33696 1.08248,-6.28856 1.31482,-8.78133 0.40495,-4.34439 0.45261,-4.46183 1.14945,-2.83268 0.39984,0.93479 0.87035,3.35674 1.04558,5.3821 0.60942,7.04406 1.34579,0.97208 1.68333,-13.88016 l 0.32187,-14.16343 1.94051,4.24645 c 2.75862,6.03671 6.30935,16.46061 7.52716,22.09753 l 1.04038,4.81557 0.0386,-9.63114 c 0.0507,-12.6443 -1.82036,-30.69751 -4.25689,-41.07393 -0.49136,-2.09257 0.47669,-0.6414 3.40136,5.09883 4.85555,9.52996 9.1252,23.79656 10.5077,35.11044 1.32341,10.8304 0.47737,27.16232 -1.95891,37.81433 -5.63528,24.63877 -17.40806,46.90594 -33.40493,63.18245 -3.64308,3.70676 -13.70458,12.32551 -14.38877,12.32551 -0.11708,0 0.25137,-0.70109 0.81879,-1.55799 z M 99.704591,390.63391 c 2.351089,-1.31043 12.797549,-1.61301 18.129189,-0.52512 3.94279,0.8045 3.91327,0.80766 -5.09883,0.54444 -5.09637,-0.14885 -10.05665,-0.0187 -11.33075,0.29741 -3.275009,0.81239 -3.612569,0.7495 -1.699609,-0.31673 z m 44.189899,-2.95041 c 6.6158,-1.8648 11.25207,-3.4792 13.85026,-4.82278 2.94993,-1.52546 1.44552,0.0245 -1.82332,1.87857 -3.07082,1.74173 -9.4272,3.82206 -12.87675,4.21433 -4.67928,0.53211 -4.47829,0.23173 0.84981,-1.27012 z m -8.81289,-8.24541 c -9.28015,-6.7737 -17.78537,-27.61861 -18.4896,-45.31502 l -0.29309,-7.36499 3.75546,6.23192 c 5.30023,8.79534 13.73706,19.8972 20.20229,26.58378 3.03592,3.13986 5.42131,5.80881 5.30089,5.93101 -0.52822,0.536 -9.63752,-6.07225 -11.96326,-8.67863 -1.41065,-1.58087 -2.24462,-2.23693 -1.85326,-1.45794 1.8312,3.64492 5.36577,8.09041 9.59883,12.07258 2.54735,2.39635 4.38814,4.35699 4.09068,4.35699 -1.0694,0 -9.38979,-5.79517 -12.45401,-8.67424 -2.14042,-2.01108 -2.89772,-2.49234 -2.39725,-1.52342 1.33663,2.5878 6.26574,8.43247 9.51562,11.28314 1.76351,1.54688 3.07876,2.94016 2.92276,3.09615 -1.32302,1.32302 -11.14012,-6.77551 -14.9908,-12.36653 -1.19164,-1.73021 -2.24541,-3.14584 -2.3417,-3.14584 -1.14272,0 5.72206,11.57714 11.00182,18.55409 1.66802,2.20422 1.05967,2.36222 -1.60538,0.41695 z m -33.7409,-4.57566 c -0.45841,-1.82646 0.74521,-6.04779 1.63939,-5.74972 0.81801,0.27268 1.40944,2.30291 1.4836,5.09287 0.0505,1.89928 -0.0926,2.12451 -1.34907,2.12451 -1.03988,0 -1.50139,-0.38184 -1.77392,-1.46766 z m 17.14543,-0.96246 c -1.2172,-0.97402 -1.68183,-1.91315 -1.89056,-3.82131 -0.27108,-2.4779 0.4961,-5.64794 1.36583,-5.64373 0.2414,8.4e-4 0.92479,1.21214 1.51864,2.69105 0.59385,1.47891 1.80482,3.78522 2.69105,5.12511 0.88623,1.3399 1.61133,2.55087 1.61133,2.69106 0,0.8292 -3.92219,0.0574 -5.29629,-1.04218 z m -11.58527,-1.28658 c -0.12758,-1.73196 0.11421,-2.54662 0.99143,-3.3405 1.13852,-1.03035 1.16054,-1.02451 1.18024,0.31257 0.011,0.7494 0.38442,1.99989 0.82973,2.77887 1.05848,1.8516 1.04227,2.13162 -0.14163,2.44807 -2.11975,0.56659 -2.68827,0.12945 -2.85977,-2.19901 z m 5.0824,-0.45159 c -0.10183,-0.89039 0.14037,-2.40471 0.53821,-3.36518 l 0.72334,-1.7463 0.72558,2.79864 c 1.00915,3.89239 0.95393,4.32312 -0.52727,4.11275 -0.92654,-0.1316 -1.32528,-0.62322 -1.45986,-1.79991 z m -22.006999,-7.42389 c -4.59785,-6.09464 -10.38373,-20.19072 -10.38373,-25.29774 v -1.63787 l 1.86929,2.12615 c 1.02811,1.16937 2.73726,3.27338 3.79815,4.67556 3.7475,4.95316 8.41774,9.95716 12.66275,13.56768 2.362409,2.0093 4.201269,3.7473 4.086359,3.86221 -0.11492,0.11493 -1.57274,-0.50782 -3.239589,-1.38389 -4.4306,-2.32858 -4.44516,-2.31153 -1.04777,1.227 2.775939,2.89129 2.915869,3.14482 1.28235,2.32348 -1.00848,-0.50706 -2.77787,-1.74574 -3.93198,-2.75259 l -2.09836,-1.83066 1.09929,1.89316 c 0.6046,1.04124 1.94771,2.88957 2.98467,4.10739 1.03696,1.21783 1.57463,2.21425 1.1948,2.21425 -0.79305,0 -6.19615,-4.00087 -6.19615,-4.58811 0,-0.21423 -0.3856,-0.53748 -0.85691,-0.71833 -0.47131,-0.18086 0.421,1.56495 1.98288,3.87956 1.56189,2.31462 2.83979,4.39506 2.83979,4.62323 0,0.74342 -3.4381,-2.83381 -6.04584,-6.29048 z m 157.887679,2.92043 c 1.44629,-3.26955 3.74006,-12.58774 4.55941,-18.52204 0.99879,-7.23386 0.86336,-29.31942 -0.24143,-39.37432 -1.12866,-10.27208 -2.36904,-17.78543 -3.77069,-22.8402 -0.57508,-2.07391 -0.95131,-3.86503 -0.83608,-3.98027 0.33683,-0.33681 6.17354,11.62598 8.40179,17.22013 1.12377,2.8213 2.73651,7.92014 3.58386,11.33075 1.34626,5.41868 1.54337,7.34485 1.56221,15.26569 0.0311,13.06426 -1.54754,19.85584 -7.37435,31.72609 -2.94287,5.99515 -6.19092,11.61402 -6.71361,11.61402 -0.13769,0 0.23531,-1.09793 0.82889,-2.43985 z m -65.85349,-1.62774 c 0.92595,-1.34619 3.35149,-5.76184 5.3901,-9.81257 10.1342,-20.13685 14.97255,-35.0239 19.88566,-61.18602 l 0.85114,-4.5323 -0.2878,6.51519 c -0.6524,14.76925 -3.78048,27.79427 -10.40847,43.34008 -3.95237,9.2702 -7.99224,16.52541 -13.48709,24.22142 -3.23787,4.53493 -4.93706,5.80632 -1.94354,1.4542 z m -33.14855,-7.13628 c -2.30159,-2.51709 -3.55154,-4.61659 -4.37604,-7.35023 -0.50118,-1.66173 0.5656,-1.67025 5.3889,-0.043 2.87187,0.96885 4.34595,1.92626 6.90845,4.48697 1.79167,1.79042 3.25759,3.50318 3.25759,3.80611 0,0.30294 -0.93864,0.0723 -2.08587,-0.51265 -1.14723,-0.58488 -2.1858,-0.9635 -2.30792,-0.84137 -0.12214,0.12212 0.1857,1.01056 0.68407,1.9743 1.03401,1.99955 0.84801,2.13058 -1.15827,0.81602 l -1.4289,-0.93626 0.40883,1.62893 0.40884,1.62894 -1.65106,-1.01783 c -0.90807,-0.5598 -2.72995,-2.19775 -4.04862,-3.63988 z m 192.51307,-4.59023 c 3.76366,-10.63565 6.31975,-23.20827 7.328,-36.04406 1.53523,-19.54484 -2.22867,-42.71014 -9.70094,-59.7053 l -1.64738,-3.74686 1.72468,1.98289 c 3.39773,3.90638 6.95972,8.64986 8.83943,11.77144 1.05158,1.74633 1.91197,3.02646 1.91197,2.84472 0,-1.02492 -3.7571,-14.63399 -5.41667,-19.62036 -1.07157,-3.21969 -1.94831,-6.01033 -1.94831,-6.2014 0,-0.90437 4.35287,4.0014 6.843,7.7122 2.91632,4.34589 3.19376,4.59908 2.16121,1.9723 -2.73163,-6.9492 -10.23134,-30.821 -9.82139,-31.26178 0.36938,-0.39716 3.1105,3.08465 7.29927,9.27158 4.35543,6.43317 9.38015,16.26878 13.25486,25.94571 1.22232,3.05269 2.36947,5.69743 2.54924,5.8772 0.66578,0.66578 -2.58232,-18.27338 -3.89533,-22.71302 -0.4534,-1.53308 -0.74708,-2.86469 -0.65263,-2.95914 0.35846,-0.35846 4.70959,5.91109 6.74044,9.7123 1.16531,2.18117 2.12547,3.79715 2.13367,3.59109 0.008,-0.20607 -0.61274,-3.01043 -1.37986,-6.23191 -1.85609,-7.79455 -4.76129,-16.23967 -7.35628,-21.38395 l -2.11662,-4.19598 2.17623,1.7313 c 3.53966,2.81592 7.34293,6.77989 9.21103,9.6002 0.9606,1.45024 1.74655,2.4545 1.74655,2.23167 0,-1.09739 -4.41059,-12.00368 -6.67352,-16.50196 -2.68502,-5.33733 -8.13129,-18.52646 -7.79083,-18.86693 0.59497,-0.59495 12.81816,12.55031 14.90951,16.03424 1.30932,2.18117 2.38215,3.69718 2.38406,3.3689 0.007,-1.29201 -3.98059,-12.32932 -5.6222,-15.55981 -0.95662,-1.88252 -1.73932,-3.5469 -1.73932,-3.69863 0,-0.15174 1.637,1.01059 3.63778,2.58293 3.20331,2.51739 5.77968,5.1802 8.53411,8.82047 0.45234,0.5978 0.83053,0.91602 0.84045,0.70716 0.0424,-0.89549 -3.65086,-10.66237 -5.17376,-13.68173 -2.50434,-4.96526 -9.85931,-16.63149 -13.02903,-20.66627 l -2.80318,-3.56821 2.43884,1.23795 c 6.07538,3.08389 12.82083,9.37815 16.46063,15.35963 1.16848,1.92023 2.12451,3.23438 2.12451,2.92035 0,-0.31405 -0.75936,-3.27531 -1.68746,-6.58058 -2.85464,-10.1663 -7.92101,-20.68856 -12.73658,-26.45242 -1.10304,-1.32026 -2.00553,-2.51876 -2.00553,-2.66336 0,-0.14458 1.54692,0.56162 3.43761,1.56935 5.88122,3.13466 10.97028,8.37878 16.21529,16.70937 2.00366,3.18238 -2.2119,-7.98513 -5.47705,-14.50939 -2.97372,-5.94193 -9.58425,-17.0445 -13.48375,-22.64632 l -0.97537,-1.40117 2.26614,1.35262 c 6.39754,3.81854 10.11645,6.62015 13.28752,10.01003 l 3.50141,3.74302 -2.08644,-4.16878 c -2.94278,-5.87979 -6.70667,-11.40405 -10.62116,-15.58864 -1.84879,-1.97636 -3.20208,-3.59338 -3.00733,-3.59338 1.56589,0 13.53838,6.8298 18.18827,10.37564 l 2.26615,1.72809 -1.98288,-2.15044 c -1.09058,-1.18273 -5.48833,-5.19443 -9.77277,-8.91488 -4.28444,-3.72044 -7.78988,-6.89566 -7.78988,-7.05605 0,-0.42929 10.16589,5.11703 16.85409,9.19529 14.55774,8.87686 25.03046,18.66133 34.87828,32.58614 1.46036,2.06494 2.65519,3.93077 2.65519,4.14629 0,0.21553 -1.46591,-0.86372 -3.25758,-2.39833 -6.64753,-5.69377 -13.50071,-9.60694 -24.46786,-13.97114 -3.56417,-1.4183 -6.59775,-2.57873 -6.74131,-2.57873 -0.14354,0 1.49788,1.33089 3.64762,2.95755 12.18893,9.22304 25.01199,24.9335 30.64865,37.54985 2.49488,5.58422 4.96774,12.67097 4.56273,13.07598 -0.14108,0.14108 -1.33692,-1.41411 -2.65741,-3.45597 -3.13017,-4.8401 -10.31661,-13.36385 -14.45744,-17.14776 -2.97633,-2.71979 -9.86072,-7.84013 -14.18791,-10.55241 -1.08381,-0.67933 -0.33994,0.35495 2.05309,2.85462 12.90482,13.47988 21.97636,37.59021 23.95385,63.66445 0.26444,3.48683 0.21049,3.94416 -0.30078,2.54943 -4.94441,-13.48814 -9.32057,-21.68673 -17.23681,-32.29261 -2.55833,-3.42756 -5.23567,-6.7418 -5.94965,-7.36499 -1.43513,-1.25265 -1.30954,-0.98362 1.7854,3.82459 5.48233,8.51719 10.19192,24.37919 11.87366,39.99068 0.85636,7.94958 0.40525,24.86214 -0.86378,32.38397 -1.70236,10.0903 -6.80081,27.51829 -9.43144,32.2394 -0.62399,1.11985 -0.97141,1.52622 -0.77204,0.90303 3.88172,-12.13356 5.66304,-27.96544 5.19513,-46.17278 -0.50311,-19.57641 -2.30782,-30.29398 -7.27601,-43.20977 -1.29086,-3.35587 -2.41081,-6.03276 -2.48877,-5.94865 -0.078,0.0842 0.34623,2.0638 0.94261,4.39927 1.46787,5.74828 2.18781,12.53318 2.19338,20.6712 l 0.004,6.78832 -1.50347,-2.25602 c -3.11722,-4.67752 -11.31095,-13.93362 -13.30659,-15.0319 -0.66301,-0.36487 -0.45261,0.36949 0.73308,2.55863 2.37187,4.37918 4.90924,12.21573 5.87633,18.14876 1.09628,6.72562 1.07236,21.1943 -0.0484,29.29882 -2.66762,19.28949 -11.34586,44.34056 -23.11646,66.72922 -3.06464,5.82922 -5.25413,9.4604 -4.61165,7.64824 0.22095,-0.62318 0.89598,-2.53525 1.50007,-4.24902 3.03759,-8.6176 8.50865,-34.05489 9.596,-44.61596 1.2594,-12.23207 0.11116,-30.85509 -2.44895,-39.71898 -0.62792,-2.17405 -0.69087,-1.31356 -0.5249,7.17458 0.21413,10.94973 -0.46796,19.26473 -2.28224,27.8219 -1.46397,6.90494 -1.79271,6.44602 -2.45505,-3.42719 l -0.43172,-6.43748 -1.30843,7.08172 c -0.71964,3.89494 -1.71696,9.86239 -2.21628,13.261 -1.43,9.73327 -5.63272,21.0342 -11.98718,32.23304 -2.97247,5.23857 -9.8695,15.82863 -10.13551,15.56262 -0.0978,-0.0978 0.57436,-2.30299 1.49356,-4.90054 z m -235.7921,-0.1168 c -5.689559,-2.86948 -7.967289,-10.95275 -4.43326,-15.73282 1.40014,-1.89377 4.7506,-3.78593 7.77481,-4.39077 l 1.82765,-0.36553 v 3.38046 c 0,1.85926 -0.16721,6.86706 -0.37159,11.12844 -0.41721,8.69942 -0.12593,8.33634 -4.79761,5.98022 z m 62.23726,-2.35993 0.24802,-2.97432 -1.76143,2.54941 -1.76142,2.54943 0.15554,-4.24904 c 0.15174,-4.14581 0.19253,-4.2533 1.67917,-4.42498 3.46434,-0.40006 5.1215,4.45917 2.6868,7.87839 -0.64441,0.90499 -1.24434,1.64543 -1.33318,1.64543 -0.0888,0 -0.05,-1.33844 0.0865,-2.97432 z M 90.816131,340.43285 c -1.18508,-3.83078 1.13237,-6.2605 7.57068,-7.93746 3.703789,-0.96473 12.854029,-1.85149 12.225139,-1.18476 -0.23287,0.24685 -2.72161,1.0298 -5.53054,1.73985 -8.834889,2.23332 -11.313339,4.35023 -11.338049,9.68415 l -0.0126,2.71919 -1.11883,-1.41635 c -0.61536,-0.77899 -1.42347,-2.40106 -1.79581,-3.60462 z m 84.004159,-1.21094 c -0.75531,-3.37503 -1.55376,-4.03781 -1.87689,-1.55797 -0.18235,1.39941 -0.36183,1.2132 -1.76356,-1.82961 -1.4615,-3.1726 -1.49806,-3.43327 -0.57614,-4.1074 3.19906,-2.33921 9.37559,1.23589 9.22967,5.34233 -0.0241,0.67688 -0.34424,0.4007 -0.95259,-0.82167 -1.23555,-2.48259 -1.80019,-2.31944 -1.43353,0.4142 0.28867,2.15217 -0.65624,5.67608 -1.52199,5.67608 -0.22421,0 -0.72145,-1.40219 -1.10497,-3.11596 z m -39.84876,2.17421 c 0.38949,-0.15717 1.02685,-0.15717 1.41635,0 0.38948,0.15716 0.0709,0.28575 -0.70818,0.28575 -0.77898,0 -1.09767,-0.12859 -0.70817,-0.28575 z m 3.39922,-0.56654 c 0.3895,-0.15716 1.02685,-0.15716 1.41635,0 0.38949,0.15717 0.0709,0.28576 -0.70818,0.28576 -0.77899,0 -1.09766,-0.12859 -0.70817,-0.28576 z m 3.12776,-0.53361 c 0.18826,-0.18825 0.6769,-0.20839 1.08587,-0.0447 0.45194,0.18085 0.3177,0.3151 -0.34229,0.34229 -0.59723,0.0246 -0.93184,-0.10931 -0.74358,-0.29756 z m -9.79593,-0.52122 c -0.39416,-0.47492 -0.61657,-0.94322 -0.49428,-1.04067 0.1223,-0.0975 2.00697,-0.59756 4.18813,-1.11134 10.24934,-2.41426 17.98736,-8.38072 27.86695,-21.48704 3.22971,-4.28454 6.00917,-7.79006 6.17661,-7.79006 0.16744,0 -0.21289,0.95602 -0.84518,2.1245 -0.63228,1.16849 -2.14693,4.32315 -3.36588,7.01035 -5.26619,11.60937 -11.63192,17.7329 -21.94357,21.10867 -6.16099,2.01694 -10.52233,2.46336 -11.58278,1.18559 z m -6.16504,-8.27545 c -1.65446,-2.53365 -3.74335,-5.94636 -4.64198,-7.5838 l -1.63389,-2.97716 3.08873,-2.38293 c 4.28749,-3.30778 8.50425,-8.65472 13.63665,-17.29149 8.34271,-14.0391 12.41343,-19.51493 19.47158,-26.19269 3.54855,-3.35731 6.11306,-4.98197 3.59231,-2.2758 -1.39124,1.49357 -9.20781,13.98557 -9.20781,14.7154 0,0.27373 1.9925,-2.00108 4.42778,-5.05515 4.18469,-5.24797 11.43526,-12.26086 11.43526,-11.06039 0,0.30428 -0.42209,0.90312 -0.93796,1.33077 -1.5299,1.26824 -6.71935,7.96552 -9.42677,12.16578 -2.65578,4.12017 -11.17055,20.13369 -11.15396,20.97697 0.005,0.27167 2.76272,-3.71259 6.1275,-8.85391 10.86117,-16.59569 18.33106,-24.09882 29.27135,-29.40157 6.91839,-3.35334 7.93777,-3.34308 2.26615,0.0228 -3.66464,2.17483 -6.77565,4.70043 -11.06025,8.97901 -3.27877,3.27417 -6.57223,6.84533 -7.3188,7.93592 -0.74657,1.09058 1.17125,-0.50087 4.2618,-3.53654 7.10061,-6.97456 8.32964,-7.88129 15.25032,-11.25119 6.80286,-3.3125 8.4956,-3.57634 3.91196,-0.60968 -10.89791,7.05339 -18.28444,15.21043 -27.14845,29.98034 l -4.33825,7.22874 2.7399,-2.6066 c 2.91586,-2.77402 6.55649,-5.60819 7.20396,-5.60819 0.21526,0 0.12745,0.49312 -0.19511,1.09583 -1.12091,2.09445 -0.57458,1.92692 1.45729,-0.44686 1.76805,-2.06557 5.53879,-4.61474 6.82613,-4.61474 0.22934,0 -0.35744,0.82858 -1.30394,1.84126 -2.22325,2.37868 -6.21425,7.7312 -8.97658,12.0389 -7.06358,11.01526 -8.78965,13.38679 -12.21655,16.7849 -4.08358,4.04926 -9.72305,7.68768 -14.69967,9.4838 -7.12137,2.57018 -7.1938,2.55103 -10.7087,-2.83176 z m 58.97404,-5.02448 c 0.13524,-1.86958 0.18667,-3.39922 0.1143,-3.39922 -0.0723,0 -0.71095,0.93743 -1.41905,2.08319 -0.80815,1.30759 -1.36698,1.78218 -1.501,1.27471 -0.11744,-0.44467 -0.6147,-1.75865 -1.10506,-2.91998 -0.72377,-1.7142 -0.75677,-2.27385 -0.17544,-2.97431 1.16858,-1.40808 4.75516,-1.08796 6.76577,0.60387 1.55458,1.30809 2.50952,3.03961 1.24552,2.25842 -0.27365,-0.16912 -0.65397,0.47463 -0.84517,1.43059 -0.33173,1.65862 -2.35354,5.04195 -3.01297,5.04195 -0.17202,0 -0.20213,-1.52964 -0.0669,-3.39922 z m 6.35201,-11.33074 c 0.20668,-1.55798 0.24607,-2.83268 0.0875,-2.83268 -0.15852,0 -0.71655,0.8283 -1.24006,1.84067 l -0.95186,1.84068 -1.05369,-2.48102 c -1.23925,-2.91794 -0.71343,-4.03302 1.90183,-4.03302 2.06549,0 3.64819,0.81338 4.43182,2.27759 0.4894,0.91448 0.25919,1.57996 -1.26174,3.64742 -1.0232,1.39087 -1.95692,2.5388 -2.07497,2.55095 -0.11805,0.0121 -0.0456,-1.25262 0.16114,-2.81059 z m 34.88736,-12.03892 c 5.8863,-12.40728 7.10165,-18.38787 7.05172,-34.70039 -0.0361,-11.83198 -0.30409,-14.68764 -2.24249,-23.90816 l -0.33343,-1.58601 0.86112,1.41635 c 2.26145,3.71963 5.91629,17.06685 6.05019,22.09493 l 0.0679,2.54943 0.76703,-3.39923 c 0.42187,-1.86957 0.77815,-4.53371 0.79175,-5.92031 0.0184,-1.87936 0.18826,-2.35755 0.66719,-1.87862 0.95822,0.95823 1.34717,15.564 0.54068,20.30404 -1.90635,11.20425 -6.09369,20.35642 -12.21675,26.70183 -2.19357,2.27323 -4.16192,4.13315 -4.3741,4.13315 -0.21218,0 0.85396,-2.61314 2.36919,-5.80701 z m -36.25022,-0.16738 c 0,-1.27969 2.58749,-3.65674 3.98047,-3.65674 0.65961,0 1.54997,0.35068 1.97858,0.77928 0.66136,0.66136 0.58541,0.96143 -0.50189,1.98289 -1.55131,1.45738 -2.15149,1.54004 -1.64759,0.22691 0.31008,-0.80808 0.087,-0.76228 -1.29249,0.26532 -1.99287,1.48454 -2.51708,1.56833 -2.51708,0.40234 z m 32.30723,-14.44215 c 0.72534,-5.01881 0.6812,-11.62648 -0.11773,-17.6271 -0.80449,-6.04242 -1.57559,-5.51936 -1.58783,1.07709 -0.005,2.73248 -0.24399,4.67394 -0.57521,4.67394 -0.31159,0 -0.57206,-1.08351 -0.5788,-2.40779 -0.0447,-8.7716 -6.76644,-27.06751 -14.38138,-39.14452 -13.61011,-21.5851 -32.86991,-39.82777 -49.74463,-47.11756 -2.09115,-0.90335 -3.69599,-1.74856 -3.56634,-1.87822 0.40539,-0.40539 7.72937,1.1172 12.46725,2.59184 10.76108,3.34931 19.61533,9.03343 31.09883,19.96439 3.83168,3.6473 4.32618,3.97267 3.45547,2.27355 -5.13564,-10.02188 -20.7606,-23.94765 -33.44576,-29.80854 -2.3816,-1.10038 -4.22493,-2.10595 -4.09627,-2.23461 0.12866,-0.12865 2.12824,0.29046 4.44351,0.93139 22.86004,6.32809 40.5221,22.38049 50.5945,45.98351 3.70862,8.69056 3.86916,10.0177 0.63388,5.24031 -3.55459,-5.24888 -8.02173,-10.67843 -11.65289,-14.16342 -3.25727,-3.12615 -3.18868,-2.6885 0.31082,1.98289 3.73261,4.98255 5.70187,8.35177 9.28235,15.88118 9.79426,20.59643 12.87166,33.41356 10.81878,45.05914 -0.58399,3.31282 -3.4199,12.85161 -3.72895,12.54256 -0.0873,-0.0873 0.0793,-1.80632 0.3704,-3.82003 z M 57.997891,269.95343 c -7.34691,-10.62293 -13.06308,-28.796 -11.56659,-36.77296 0.37336,-1.99019 0.46248,-2.0727 1.17953,-1.09206 0.42662,0.58343 0.94893,2.23733 1.16068,3.67534 0.68865,4.67639 1.15209,5.05268 1.54877,1.2575 0.5841,-5.58833 1.28663,-5.92249 1.74604,-0.83046 0.40391,4.47677 2.29669,15.15174 3.04631,17.18064 0.22114,0.59853 0.31419,-2.02019 0.20678,-5.81938 -0.1074,-3.79917 0.0608,-7.7999 0.37381,-8.89049 l 0.56909,-1.98287 0.0626,2.54942 c 0.0976,3.96984 2.1445,18.74848 3.15043,22.74574 1.11656,4.43691 4.53727,13.48845 5.6567,14.96821 0.45512,0.60162 0.8356,1.33812 0.84551,1.63671 0.0351,1.06097 -5.1772,-4.57315 -7.97973,-8.62534 z m 223.745889,-4.72906 c -6.01974,-6.57895 -12.16676,-13.27116 -13.66005,-14.87159 l -2.71506,-2.90988 1.50167,2.49364 c 1.18935,1.97501 4.21173,9.2635 4.21173,10.1566 0,0.10525 -0.70109,-0.34635 -1.55797,-1.00352 -0.8569,-0.65719 -4.9997,-3.54554 -9.20624,-6.41856 -8.22859,-5.62005 -14.29484,-10.466 -16.74156,-13.37377 -0.84074,-0.99915 -1.66068,-1.68457 -1.82211,-1.52315 -0.16144,0.16144 -0.0245,0.61834 0.30426,1.01537 0.80497,0.97209 4.20397,9.58407 3.90187,9.88615 -0.13168,0.13169 -1.44753,-2.00388 -2.92414,-4.7457 -6.09723,-11.3217 -16.25052,-24.08112 -31.39619,-39.45495 -14.87878,-15.10292 -19.27989,-18.51001 -32.33356,-25.03097 -5.88693,-2.94082 -15.87212,-6.50078 -18.23376,-6.50078 -0.6714,0 -1.10172,-0.11899 -0.95627,-0.26444 0.41413,-0.41414 24.33369,1.36838 26.55164,1.97867 2.75674,0.75854 4.6974,0.71087 4.1944,-0.10303 -0.3021,-0.48878 1.30629,-0.56657 6.3401,-0.3066 6.46594,0.33392 6.65117,0.31262 4.47873,-0.51502 -6.21813,-2.36894 -16.13587,-4.80222 -21.44841,-5.26227 -10.31169,-0.89298 -36.49392,0.71549 -59.34386,3.6457 -10.25188,1.31468 -21.329189,3.37995 -33.364959,6.22059 -6.0761,1.43407 -14.48918,3.33603 -18.69572,4.22658 l -7.64825,1.61917 4.81557,0.18733 c 2.64855,0.10303 9.65945,0.0196 15.57977,-0.18545 21.995409,-0.76175 50.997789,-1.07205 49.855259,-0.53341 -2.14659,1.012 -33.851309,3.81546 -56.936969,5.03459 l -7.64825,0.4039 9.91438,1.5193 c 10.15302,1.55589 26.841179,4.9708 26.408059,5.40391 -0.13281,0.13283 -3.00593,-0.15766 -6.384679,-0.64551 -3.37877,-0.48785 -12.13434,-1.52689 -19.45683,-2.30896 -20.85948,-2.22788 -29.31725,-3.85826 -35.02849,-6.75237 -3.65247,-1.85084 -7.77812,-6.37842 -8.63084,-9.47169 -1.3303,-4.82557 0.94821,-12.71503 5.96328,-20.64818 2.82517,-4.469 5.57598,-7.26684 9.49201,-9.65429 4.48099,-2.73188 6.77402,-5.64421 9.53496,-12.11015 4.59195,-10.75407 9.41339,-15.01977 24.55998,-21.72912 11.73713,-5.1991 13.61918,-5.88696 18.944929,-6.9241 5.18949,-1.01062 6.71398,-0.9999 3.83266,0.027 -1.21428,0.43274 -2.55759,1.1366 -2.98513,1.56415 -0.65877,0.65877 -0.27879,0.71825 2.49105,0.38999 2.90009,-0.34371 11.85836,0.22833 12.42332,0.7933 0.11905,0.11904 -1.63716,0.35712 -3.9027,0.52904 -11.24151,0.85309 -20.279829,5.20118 -31.359029,15.08598 -2.88332,2.57249 -2.05151,2.34086 2.86055,-0.79655 7.45083,-4.75896 17.598319,-8.79173 25.659599,-10.1975 2.64924,-0.46199 7.65149,-0.80646 11.11613,-0.76551 5.93419,0.0702 6.08587,0.0997 2.61684,0.51005 -14.59072,1.72591 -28.587139,9.87888 -48.940249,28.50786 l -1.76483,1.61532 1.69961,-1.02462 c 10.53648,-6.35202 27.657679,-15.25942 34.590909,-17.99614 12.66238,-4.99815 23.33791,-4.90972 32.79862,0.27162 l 3.37083,1.84611 -3.08755,0.98719 c -1.69816,0.54294 -5.1271,1.61785 -7.61987,2.38865 -12.01461,3.71516 -21.19811,8.54544 -52.901169,27.82475 -4.47961,2.72415 -10.72569,6.35513 -13.88016,8.06886 -3.15448,1.71374 -5.31923,2.98476 -4.81053,2.82451 0.50868,-0.16024 2.67568,-0.82987 4.81556,-1.48806 10.22543,-3.14517 17.14684,-5.99115 42.363869,-17.41942 21.16518,-9.59202 26.08644,-11.50326 28.09492,-10.91098 0.77899,0.2297 3.20094,1.23341 5.38211,2.23047 3.95658,1.80863 3.97559,1.8112 8.21478,1.10943 6.88307,-1.13942 6.83274,-0.99987 1.71785,-4.7623 -2.5028,-1.84102 -4.55053,-3.58607 -4.55053,-3.87788 0,-0.9318 5.72191,0.1796 9.75039,1.89388 2.12384,0.90376 4.9471,2.39011 6.27391,3.30299 l 2.41238,1.65975 8.76921,-1.0214 c 10.75313,-1.2525 39.6383,-3.20419 39.07895,-2.64047 -0.66375,0.66895 -9.57239,2.08972 -20.11206,3.20753 -13.14785,1.39442 -37.6408,4.72988 -45.99454,6.26357 -6.89735,1.26631 -17.5796,4.11092 -29.85039,7.94897 -14.31785,4.47832 -19.74759,6.49193 -37.462499,13.8929 -6.54351,2.73376 -15.339,6.18497 -19.54553,7.66938 -4.20653,1.4844 -7.01089,2.71073 -6.23191,2.72519 2.21931,0.0411 16.90895,-3.10302 27.19378,-5.82057 31.416609,-8.30116 42.423209,-10.72355 51.838149,-11.40879 l 3.96575,-0.28863 -4.24902,1.13933 c -10.76351,2.88613 -15.59228,4.25484 -23.22803,6.58399 -9.56913,2.91888 -10.11073,3.13091 -7.08171,2.77215 27.87144,-3.30099 46.80523,-4.83671 64.8685,-5.2615 18.74672,-0.44086 17.5358,-0.86765 -4.5323,-1.59742 l -13.88016,-0.45901 7.08172,-0.74107 c 3.89494,-0.4076 10.32829,-0.89497 14.29634,-1.08307 l 7.21461,-0.34197 -7.21461,-2.53189 c -3.96805,-1.39253 -9.5091,-3.12831 -12.31346,-3.8573 -3.79873,-0.98747 -4.73769,-1.40195 -3.68249,-1.62558 0.77898,-0.16509 3.20094,-0.68853 5.3821,-1.16322 2.18117,-0.47468 4.47155,-0.93929 5.08974,-1.03246 0.95332,-0.14368 0.67375,-0.63652 -1.84124,-3.24577 -1.63087,-1.69202 -2.96523,-3.15522 -2.96523,-3.25159 0,-0.57543 5.65653,-0.0251 7.01294,0.68228 1.44285,0.75248 1.54979,0.75286 0.92763,0.003 -0.57014,-0.68698 -0.53474,-0.91194 0.18705,-1.18892 1.28495,-0.49308 4.67685,0.72755 8.58522,3.08951 l 3.39923,2.05427 18.41246,0.0561 c 10.45507,0.0319 20.86088,0.35102 24.07782,0.73843 6.67834,0.80425 14.27566,2.1561 15.20521,2.70557 0.36181,0.21387 -0.43804,-0.81257 -1.77745,-2.28099 -2.19021,-2.40118 -3.77862,-5.22732 -4.86195,-8.65045 -0.36421,-1.15089 -0.27905,-1.17639 2.10632,-0.63053 7.55741,1.72938 10.67768,-2.88218 8.72608,-12.89656 -1.31992,-6.77305 -4.09344,-13.80318 -7.47096,-18.93694 -1.65648,-2.51782 -2.80838,-4.57785 -2.55979,-4.57785 0.24862,0 2.3446,1.26584 4.65776,2.81297 4.99087,3.3381 11.44522,9.95929 14.83419,15.21765 4.39396,6.81768 7.85739,14.69844 4.276,9.72968 -2.6259,-3.64311 -3.23832,-4.08371 -1.57497,-1.13307 2.20913,3.91878 8.09159,17.56266 7.57202,17.56266 -0.12395,0 -2.0791,-2.29016 -4.34478,-5.08924 -2.2657,-2.79908 -4.18602,-5.02267 -4.26738,-4.9413 -0.0813,0.0813 0.0868,1.16055 0.37375,2.39819 0.72489,3.12653 0.67291,9.57961 -0.13576,16.8521 -0.70882,6.37464 -0.75945,5.76319 1.6053,19.39036 0.25169,1.45036 0.0547,1.28419 -1.34296,-1.13307 -0.90085,-1.55797 -2.20074,-3.72498 -2.88864,-4.81555 l -1.25074,-1.98289 0.36653,2.38415 c 0.4163,2.70785 -0.46119,9.50712 -2.14164,16.59485 -0.66774,2.81632 -1.03772,5.90572 -0.89119,7.44142 l 0.25056,2.62586 -2.67679,-1.92309 c -3.0173,-2.16787 -13.0074,-6.9247 -13.0074,-6.19367 0,0.12267 0.84558,0.74563 1.87904,1.38436 1.0335,0.63871 2.95089,2.43243 4.2609,3.98603 l 2.38184,2.82472 -3.26945,-1.45589 c -1.79819,-0.80075 -6.45621,-2.54006 -10.35115,-3.86514 -3.89495,-1.32508 -8.10149,-2.85205 -9.34786,-3.39327 -1.24639,-0.54124 -2.13869,-0.85387 -1.98289,-0.69476 0.8547,0.87287 8.07853,5.95946 10.75909,7.57592 1.71659,1.03515 2.72119,1.88274 2.23245,1.88354 -1.40677,0.002 -6.83863,-1.7191 -9.16741,-2.90522 -1.16849,-0.59517 -2.12452,-0.94944 -2.12452,-0.78732 0,0.16212 0.95603,1.25429 2.12452,2.42699 1.16847,1.17273 4.88543,5.92632 8.25987,10.56351 5.72434,7.86644 5.99003,8.34616 3.96576,7.16075 -1.19327,-0.6988 -5.5563,-3.85898 -9.69559,-7.02264 -9.1307,-6.97859 -12.7197,-9.48982 -13.0667,-9.14282 -0.1442,0.14419 0.98846,1.6204 2.51701,3.28046 1.52855,1.66007 4.07951,4.53435 5.6688,6.38731 5.29422,6.17252 24.76576,20.15041 39.12183,28.08412 4.10313,2.26754 4.31957,2.01717 0.86708,-1.003 -2.90824,-2.54404 -3.55411,-3.72144 -1.4128,-2.57543 0.58046,0.31066 4.23522,1.23102 8.12167,2.04526 10.36752,2.17208 15.96787,5.2934 18.11926,10.0987 l 0.96069,2.14575 0.33716,-3.55724 c 0.78314,-8.26249 1.30588,-9.45545 7.89684,-18.02169 3.78077,-4.91382 5.04938,-9.20607 5.39057,-18.23836 0.14976,-3.96476 0.0702,-8.42624 -0.17686,-9.91441 l -0.44913,-2.70575 -0.40879,3.00285 c -2.12572,15.61495 -15.16839,23.15992 -25.2797,14.62389 -2.81702,-2.37815 -4.32232,-7.01477 -3.97528,-12.24464 0.28966,-4.3653 2.54286,-11.23704 3.5534,-10.83707 0.29239,0.11572 0.99658,1.45684 1.56487,2.98028 0.97253,2.60709 7.11946,9.9894 6.37355,7.65449 -0.71997,-2.25374 0.8568,-5.61198 4.33618,-9.2354 l 3.43082,-3.57282 -0.32469,-3.14581 c -0.21428,-2.07615 -1.15589,-4.82463 -2.76922,-8.08308 -1.34451,-2.71549 -2.54015,-5.19219 -2.65698,-5.50379 -0.38676,-1.03152 5.69996,5.06602 6.78639,6.79845 0.65802,1.04929 1.06665,1.34988 1.06795,0.78559 0.002,-0.98539 -5.58301,-12.40763 -8.55647,-17.49844 l -1.81997,-3.11596 2.14367,1.9829 c 1.17902,1.09059 2.91012,3.00264 3.84693,4.24902 1.41697,1.88528 1.6489,2.0281 1.37986,0.8498 -0.17789,-0.77899 -0.6065,-4.60311 -0.9525,-8.49805 -1.37311,-15.4576 -7.11064,-31.08336 -14.52575,-39.55995 -1.36154,-1.55644 -2.47552,-2.94731 -2.47552,-3.09083 0,-0.34584 7.52003,1.68161 10.12749,2.73044 2.00023,0.80457 1.97288,0.75327 -1.06289,-1.99344 C 270.44,107.35487 260.2884,102.29328 240.56452,95.711274 l -12.64872,-4.220959 3.87885,-1.26735 c 6.43817,-2.103541 13.95259,-5.970509 17.0986,-8.799042 3.72913,-3.352817 5.46826,-6.315209 6.64572,-11.320192 1.37986,-5.865309 0.56743,-15.069985 -1.5894,-18.007467 -0.59963,-0.816676 -0.71729,-0.360734 -0.73773,2.858867 -0.0133,2.106774 -0.38734,4.977733 -0.83104,6.379908 l -0.80673,2.549417 -0.17292,-1.982875 c -0.68469,-7.8512 -3.60644,-16.438535 -7.56739,-22.241331 -2.31396,-3.389959 -2.31829,-3.405947 -0.58735,-2.173417 3.51733,2.504558 8.08582,7.06833 9.51235,9.502514 0.80567,1.374783 1.58733,2.377125 1.73702,2.227441 0.14968,-0.149691 -0.17189,-1.627117 -0.71461,-3.283184 -4.15024,-12.66391 -12.7155,-20.096128 -26.32246,-22.840451 l -3.68249,-0.742701 3.39922,-0.04578 c 4.60988,-0.0621 12.80103,1.726334 17.27939,3.77275 5.01133,2.289962 10.1898,6.235286 13.35019,10.17115 2.99696,3.732317 6.89061,11.481819 7.55574,15.038137 l 0.44889,2.400091 0.48965,-1.699608 c 0.26931,-0.934783 0.49956,-3.934559 0.5117,-6.66615 0.0189,-4.256842 0.12958,-4.823534 0.77456,-3.965759 1.52399,2.02675 2.95102,5.290759 3.58743,8.205417 0.63773,2.920625 0.66535,2.951917 1.14202,1.293417 0.70783,-2.462717 0.63625,-9.446809 -0.12581,-12.276902 -1.66069,-6.167329 -6.22152,-11.990911 -12.12127,-15.477273 -3.63191,-2.146212 -3.33715,-2.463405 1.0519,-1.131952 8.512,2.582174 16.05301,11.125202 19.6031,22.207859 3.66034,11.426843 2.49554,21.867818 -3.1986,28.671352 -4.71308,5.631359 -21.80622,15.502926 -28.81295,16.639968 -1.96757,0.319283 -2.2408,1.307817 -0.3615,1.307817 1.99272,0 15.24374,4.73765 21.43987,7.665418 3.49575,1.651796 8.19859,4.235726 10.4507,5.742076 4.2479,2.84122 13.22962,11.01531 15.30274,13.92673 l 1.18796,1.66837 -1.8964,-0.98068 c -1.44394,-0.7467 -11.00301,-4.22738 -11.60973,-4.22738 -0.0596,0 1.86467,1.97579 4.27612,4.39066 6.89069,6.90046 10.84538,14.13597 11.69982,21.406 l 0.36856,3.1358 -2.48808,-0.34302 -2.48807,-0.34302 3.52723,1.81487 c 6.67859,3.43634 12.28854,9.47993 16.56879,17.84948 2.7487,5.3748 2.91647,6.45119 0.47501,3.04754 -5.5253,-7.70282 -10.44978,-12.20936 -17.62583,-16.12995 l -3.85324,-2.1052 5.63484,5.59174 c 6.90113,6.84836 11.53674,13.8288 15.10503,22.74562 1.42929,3.57165 2.49677,6.59585 2.37218,6.72043 -0.12459,0.12461 -0.88529,-0.76891 -1.69042,-1.98554 -2.28933,-3.45944 -8.22618,-10.38294 -10.51083,-12.25765 l -2.07125,-1.69962 1.75322,2.26615 c 3.0925,3.99723 5.78912,9.47901 8.08772,16.44095 1.23247,3.73289 2.40722,7.67937 2.61057,8.76996 0.34628,1.85735 0.25429,1.78563 -1.45334,-1.13308 -3.12127,-5.33497 -7.61084,-10.94964 -10.51699,-13.1526 l -1.61426,-1.22365 1.22936,1.38112 c 0.67615,0.75961 2.27289,3.32209 3.54832,5.69439 6.7779,12.60686 9.47247,28.67171 6.89473,41.10602 -1.87261,9.03293 -2.09329,8.96283 -2.22845,-0.70791 -0.13547,-9.69277 -1.17573,-18.61678 -2.90571,-24.92717 -1.22723,-4.47651 -3.43435,-10.61314 -3.71589,-10.3316 -0.10061,0.10061 0.41345,2.64988 1.14237,5.66503 2.38127,9.84999 3.12009,22.01688 1.93739,31.90494 -0.8985,7.51203 -4.75884,18.24491 -8.45639,23.5113 -0.54695,0.77898 -1.89581,3.11877 -2.99752,5.19952 l -2.00309,3.78318 -0.7329,-2.93338 c -0.40308,-1.61336 -0.74277,-5.02172 -0.75484,-7.57415 -0.0121,-2.55241 -0.19051,-4.46448 -0.39649,-4.24903 -0.206,0.21547 -1.06493,2.6235 -1.90874,5.35122 -1.3306,4.30135 -1.50034,5.65456 -1.27913,10.19766 0.24147,4.95921 1.00494,7.67315 4.22286,15.01097 0.17081,0.38949 0.17343,0.70817 0.006,0.70817 -0.16762,0 -5.23,-5.38277 -11.24972,-11.96171 z m -44.32243,-83.49978 c -0.22541,-0.62319 -0.91903,-2.66272 -1.54136,-4.5323 -0.62234,-1.86957 -2.40963,-5.72174 -3.97177,-8.56038 l -2.84026,-5.16116 -4.28932,-0.36258 c -5.50514,-0.46535 -13.41532,-0.46434 -16.8186,0.002 l -2.66071,0.3647 1.63404,1.75982 c 2.12387,2.28737 4.8106,6.62178 6.56857,10.59685 1.09502,2.47603 1.81324,3.33128 3.28825,3.91559 1.03795,0.41119 2.33335,1.12755 2.87864,1.59192 1.5799,1.34545 1.1487,0.1476 -0.70817,-1.96727 -2.45321,-2.79405 -2.231,-3.19199 1.55798,-2.78985 8.20152,0.8705 12.93586,2.31721 15.66717,4.78748 1.40585,1.2715 1.58571,1.3232 1.23554,0.35506 z m -5.72681,-21.33156 c -2.52268,-2.03812 -7.71185,-5.86455 -9.44977,-6.96815 -1.23528,-0.78444 -3.42656,-1.03338 -11.33074,-1.28723 -5.38961,-0.1731 -12.56731,-0.1252 -15.95047,0.10644 l -6.15115,0.42118 5.30135,2.93985 c 2.91575,1.6169 6.01334,3.41155 6.88353,3.98808 1.40533,0.93109 3.03283,1.0648 14.56209,1.19629 7.13897,0.0814 14.06932,0.33208 15.40076,0.55703 l 2.42082,0.409 z m 10.87533,-1.81372 c -2.35115,-2.14488 -4.79244,-3.46811 -7.4629,-4.04504 -1.15951,-0.25052 -0.61942,0.20648 1.69961,1.43806 1.86957,0.9929 4.03657,2.24392 4.81556,2.78004 2.70928,1.86458 3.1026,1.79276 0.94773,-0.17306 z M 65.145821,158.28344 c 8.0362,-3.06511 17.46127,-7.88278 30.99079,-15.84111 6.450689,-3.79443 14.353879,-8.19539 17.562659,-9.77992 3.65021,-1.80251 5.09186,-2.73127 3.85124,-2.48107 -3.55244,0.71639 -14.30485,4.84571 -20.678599,7.9413 -7.73573,3.75708 -20.42599,11.00818 -22.12142,12.63997 -0.69647,0.67032 -1.46125,1.21878 -1.69952,1.21878 -0.23826,0 -1.30703,0.66651 -2.37504,1.48112 -1.06801,0.8146 -4.27884,2.72177 -7.13519,4.23814 -2.85634,1.51638 -4.93841,2.75403 -4.62682,2.75033 0.3116,-0.004 3.11595,-0.97907 6.2319,-2.16754 z m 52.121429,-5.97781 c 4.67392,-1.659 9.13541,-3.30418 9.9144,-3.65596 2.57727,-1.16389 -2.01732,-0.0964 -8.23145,1.91261 -5.13771,1.66092 -12.15354,4.76992 -10.74755,4.76265 0.3116,-0.002 4.39066,-1.3603 9.0646,-3.0193 z m 12.85331,-4.67701 c -0.40897,-0.16365 -0.89761,-0.14352 -1.08587,0.0447 -0.18825,0.18826 0.14636,0.32216 0.74358,0.29756 0.65999,-0.0272 0.79423,-0.16143 0.34229,-0.34228 z M 84.479191,263.9164 c -5.19033,-6.09659 -10.51216,-15.89178 -13.33464,-24.54331 -3.97752,-12.19197 -5.32,-30.22832 -2.52827,-33.96754 0.62193,-0.83301 1.37021,-1.59466 1.66286,-1.69254 0.31346,-0.10485 0.48569,2.20809 0.41921,5.62965 l -0.11287,5.80762 0.73284,-3.11595 c 0.88502,-3.76316 2.25482,-7.07933 3.1537,-7.63486 0.47327,-0.2925 0.57271,0.12949 0.35083,1.48882 -0.40355,2.47223 -0.52765,4.82376 -0.38412,7.27911 0.1108,1.89578 0.16182,1.83923 1.16125,-1.28779 0.98523,-3.08258 3.79493,-7.59673 4.37027,-7.0214 0.1448,0.14481 0.0119,1.24507 -0.29529,2.445 -0.30723,1.19993 -0.70604,3.58388 -0.88627,5.29766 l -0.32769,3.11595 0.75012,-2.26615 c 1.03896,-3.13872 1.97685,-4.83872 3.67258,-6.65681 1.74226,-1.86799 2.85323,-1.95226 4.86591,-0.36908 l 1.51146,1.18891 -2.50739,2.35195 c -3.59161,3.36899 -4.05212,5.91148 -4.01737,22.18075 0.0245,11.48995 0.17285,13.58254 1.25459,17.70132 1.63555,6.22737 4.19072,12.50715 7.25174,17.82249 1.38232,2.40034 2.51332,4.52112 2.51332,4.71284 0,0.64673 -6.80771,-5.56648 -9.27677,-8.46664 z M 60.998101,252.825 c 0.007,-2.76354 0.12598,-2.44315 1.04473,2.83268 1.30758,7.50867 1.29348,9.39271 -0.0318,4.24903 -0.56198,-2.18117 -1.01781,-5.36794 -1.01294,-7.08171 z m 398.737019,6.37354 c 2.34833,-7.57083 4.07145,-19.89324 4.37702,-31.30118 0.38971,-14.54891 -0.70166,-24.47797 -3.88237,-35.32121 -0.62573,-2.13311 -1.03425,-3.98182 -0.90783,-4.10823 0.12641,-0.12643 1.66557,2.63862 3.42035,6.14454 4.81177,9.61357 5.75546,14.09369 5.75813,27.33627 0.002,12.29858 -0.68955,16.80625 -4.21052,27.4262 -2.09378,6.31522 -4.85279,13.0812 -5.33422,13.0812 -0.12706,0 0.22369,-1.46592 0.77944,-3.25759 z m -256.58901,-0.70817 c 0.0205,-0.56034 0.197,-0.46385 0.51804,0.28326 0.66927,1.55748 0.66927,2.45197 0,1.41634 -0.30205,-0.46738 -0.53517,-1.23221 -0.51804,-1.6996 z m -2.5654,-6.51517 c -2.7031,-6.57535 -2.92328,-7.29326 -1.38997,-4.5323 1.95591,3.52192 4.79448,11.09905 3.69647,9.86719 -0.11571,-0.12984 -1.15365,-2.53054 -2.3065,-5.33489 z M 86.882551,246.87636 c -1.46402,-6.548 -1.94182,-18.11224 -0.92458,-22.37822 0.71278,-2.98923 0.7449,-2.73579 0.78962,6.23191 0.0445,8.93197 0.24999,10.72241 2.79535,24.3611 0.63039,3.3778 -1.62682,-3.59206 -2.66039,-8.21479 z m 351.594369,-9.63363 c 6.36895,-22.0222 6.16279,-43.91445 -0.60402,-64.13966 -1.09513,-3.27326 -1.90495,-6.03759 -1.7996,-6.14295 0.33024,-0.33024 8.17238,11.7629 9.97449,15.38133 5.17979,10.4005 6.87892,21.99285 4.89286,33.38176 -1.22523,7.02599 -1.92674,7.83812 -1.95196,2.25976 -0.0174,-3.84622 -1.79378,-16.98321 -2.37479,-17.56228 -0.10372,-0.10337 -0.20859,3.29596 -0.23304,7.55407 -0.0455,7.92729 -0.9019,13.57079 -3.19517,21.05568 -1.13573,3.70686 -5.45471,13.3062 -5.82168,12.93923 -0.10842,-0.10843 0.39238,-2.23555 1.11291,-4.72694 z m 33.51955,-12.92518 c -0.85371,-11.43946 -7.8871,-36.05422 -13.37689,-46.8151 -0.67422,-1.32155 -1.09901,-2.52967 -0.94399,-2.68469 0.46793,-0.46793 5.56687,6.35991 8.45318,11.31942 6.26022,10.75684 9.08257,26.42303 7.47062,41.46763 -0.52066,4.85946 -1.08066,3.71104 -1.60292,-3.28726 z M 171.6548,213.94213 c -3.55398,-2.8957 -12.97626,-9.37878 -15.49077,-10.65857 -1.04165,-0.53015 -1.76884,-1.08898 -1.61598,-1.24183 0.43282,-0.43284 7.97037,3.45059 12.18207,6.27633 4.63003,3.10641 10.77095,8.64807 14.54868,13.12896 l 2.81116,3.33439 -4.80123,-4.26564 c -2.64068,-2.34611 -6.07595,-5.30425 -7.63393,-6.57364 z m -69.68405,7.72333 c -2.885659,-2.92971 -3.009329,-4.02807 -0.14451,-1.2834 l 1.6171,1.54929 -0.34141,-4.76791 c -0.18779,-2.62237 -0.50432,-5.0404 -0.70342,-5.37342 -0.1991,-0.33302 0.10975,-0.22308 0.68633,0.24431 1.74237,1.4124 3.10914,5.15281 3.12249,8.54527 0.0192,4.86227 -0.4089,4.97197 -4.23658,1.08586 z M 38.801851,217.9136 c 0,-3.53367 0.81896,-3.9859 1.66983,-0.92208 1.04332,3.75684 0.62486,5.87308 -0.90953,4.59965 -0.46356,-0.38472 -0.7603,-1.82006 -0.7603,-3.67757 z m 81.954129,2.15021 c -1.35356,-0.59875 -3.13841,-1.81915 -3.96633,-2.71203 -1.67271,-1.80395 -2.0709,-3.17225 -0.51281,-1.76221 0.54587,0.494 1.70767,1.1701 2.5818,1.50244 1.70149,0.64692 1.68665,0.24046 -0.0658,-1.80009 -1.27052,-1.47943 -0.39,-1.2019 2.24677,0.70816 2.49142,1.80478 3.60068,2.15232 3.16441,0.99144 -0.14638,-0.38948 -0.45445,-1.34552 -0.68461,-2.12451 -0.3739,-1.26549 -0.2357,-1.20515 1.29755,0.56654 0.94381,1.09058 2.28324,2.97902 2.97649,4.19653 l 1.26048,2.21365 -2.91848,-0.34564 c -1.60517,-0.19011 -4.02594,-0.83553 -5.37951,-1.43428 z m 22.76393,-1.3721 c -1.14081,-0.62925 -2.64126,-1.9111 -3.33434,-2.84853 -1.24788,-1.68786 -0.6905,-1.64698 1.38357,0.10142 1.02035,0.86014 1.04055,0.84174 0.40498,-0.36945 -1.11757,-2.1297 0.097,-1.44135 3.35606,1.90201 2.51958,2.58476 2.83268,3.10049 1.68026,2.76767 -0.77899,-0.22498 -2.34973,-0.92389 -3.49053,-1.55315 z M 42.754771,218.24225 c -0.72891,-1.362 -0.52109,-5.18951 0.29612,-5.45363 0.62202,-0.20103 2.54941,4.05167 2.54941,5.6252 0,1.38453 -2.07983,1.25913 -2.84553,-0.17157 z m 86.072509,-4.64995 c -0.91407,-1.79166 -1.43301,-3.25758 -1.15318,-3.25758 0.27983,0 1.43073,1.02049 2.55757,2.26777 1.5999,1.7709 2.04487,2.73292 2.03079,4.39067 -0.0172,2.02788 -0.0574,2.07217 -0.89563,0.98981 -0.48268,-0.62319 -1.62547,-2.59899 -2.53955,-4.39067 z m 207.98579,-1.29915 c 0.70579,-6.71041 0.6885,-20.80036 -0.0333,-27.16933 -1.53375,-13.53293 -9.32199,-36.50678 -16.56615,-48.86706 -1.14034,-1.9457 -1.90047,-3.53763 -1.68918,-3.53763 1.17572,0 9.35202,9.9614 11.24904,13.70499 2.39457,4.72544 2.25969,3.53699 -0.49589,-4.36974 -2.09942,-6.02397 -4.09374,-9.92613 -7.2684,-14.22152 -3.40163,-4.60249 -10.89933,-12.35286 -15.10801,-15.61715 -1.6438,-1.27495 -2.88792,-2.4189 -2.76471,-2.54211 0.37232,-0.37232 5.86506,1.9611 8.43456,3.58315 2.13581,1.34827 1.83059,0.88567 -2.70331,-4.0972 -6.18404,-6.79644 -10.94304,-12.367038 -12.59987,-14.74868 -1.43383,-2.061066 -1.47167,-2.00815 3.9834,-5.566942 3.88614,-2.535225 4.2767,-3.017716 2.19563,-2.712275 -1.89975,0.278817 -6.30408,-0.83205 -6.30408,-1.590009 0,-0.299583 0.49032,-0.544708 1.0896,-0.544708 1.99989,0 4.51825,-2.743725 5.44528,-5.932566 0.69935,-2.405676 0.75714,-3.724876 0.29099,-6.642826 -1.3228,-8.280434 -6.68159,-20.006559 -12.31169,-26.940568 -2.38228,-2.933992 -2.01041,-3.055416 1.22868,-0.401225 2.6889,2.203342 7.61552,8.981143 9.32218,12.825001 1.50866,3.397892 1.42013,1.612575 -0.24723,-4.98615 -2.43458,-9.635009 -5.29605,-15.447282 -10.11573,-20.547204 l -2.35034,-2.487013 1.98289,1.07067 c 3.09346,1.670339 10.82093,9.745413 13.2229,13.817746 1.19462,2.025375 1.99246,3.045142 1.773,2.26615 -0.84159,-2.98705 -4.18929,-9.623141 -6.32445,-12.536813 -3.35728,-4.581404 -3.45702,-4.909225 -0.87067,-2.862072 5.03764,3.98743 8.51056,9.052799 11.51918,16.801185 2.62424,6.758409 4.61396,10.418009 7.96549,14.650551 l 3.02427,3.819258 0.45359,-3.845783 c 0.24948,-2.115176 0.37695,-6.8293 0.28327,-10.475825 -0.0937,-3.646534 -0.0294,-6.450892 0.1429,-6.231909 0.17228,0.218975 1.39919,1.844533 2.72648,3.61235 5.20174,6.928176 23.91427,19.232026 34.91829,22.95946 l 3.96576,1.343341 -4.24903,-0.331241 c -6.86979,-0.535542 -13.77375,-2.465133 -18.54154,-5.182167 -2.84906,-1.623609 -3.91952,-2.037176 -3.20684,-1.238958 1.42136,1.59195 6.18564,5.10725 9.0038,6.643392 l 2.26365,1.233891 -1.98289,-0.338792 c -6.27515,-1.072158 -15.54904,-5.20095 -19.38476,-8.630209 l -2.36041,-2.110275 1.90921,2.832684 c 4.25941,6.319684 14.8155,19.448068 20.61287,25.635809 4.05732,4.330526 2.79981,3.854051 -5.02593,-1.904308 -3.83418,-2.821283 -10.61102,-9.475608 -13.20603,-12.967293 -1.15883,-1.559266 -1.13974,-1.418925 0.23138,1.699609 0.82202,1.869576 1.95198,4.609242 2.51104,6.088159 0.55908,1.478908 1.64225,3.808516 2.40706,5.176908 l 1.39056,2.487992 -6.01487,-3.872325 c -3.30818,-2.129783 -7.37413,-5.033017 -9.03545,-6.451634 -1.66131,-1.418608 -3.11595,-2.579292 -3.2325,-2.579292 -0.4526,0 7.67014,11.835826 10.88656,15.863035 5.16355,6.465181 16.11317,17.053481 20.83459,20.147061 2.97603,1.94997 0.86193,1.3857 -4.04896,-1.0807 -6.85541,-3.44298 -14.40596,-8.57979 -19.43707,-13.22344 l -4.18209,-3.860037 2.39917,3.545767 c 1.31955,1.95017 4.18156,5.32814 6.36003,7.50661 2.17847,2.17847 3.88833,3.96078 3.79969,3.96068 -0.55888,-5.6e-4 -11.61391,-4.1459 -13.08927,-4.90809 -0.99103,-0.51198 6.6112,7.42441 16.89386,17.63644 16.06982,15.95944 18.25807,18.32691 15.57977,16.85579 -1.71377,-0.94134 -7.25708,-4.00416 -12.31844,-6.80628 -5.06138,-2.80212 -9.04019,-4.83211 -8.84179,-4.51111 0.19839,0.321 1.60136,2.22277 3.11771,4.22615 7.04975,9.314 13.52599,28.57227 12.839,38.17902 l -0.17858,2.49715 -1.05904,-4.13423 c -0.58247,-2.27381 -1.16294,-4.03032 -1.28992,-3.90334 -0.12698,0.12698 0.15736,2.62474 0.63187,5.55056 1.03904,6.40684 1.11773,15.19552 0.18164,20.28652 l -0.68564,3.72889 -0.65751,-7.39866 c -0.73227,-8.23982 -1.83331,-14.2397 -3.95957,-21.577 -1.36444,-4.70841 -3.01498,-8.57538 -2.26212,-5.29983 2.54316,11.06474 3.00547,28.1871 1.04787,38.80779 -1.06549,5.78062 -4.03469,16.42859 -4.46198,16.0013 -0.10294,-0.10294 0.053,-2.47064 0.34654,-5.26154 z M 47.671771,217.2748 c -0.792,-1.28673 -0.94961,-5.60461 -0.2395,-6.56159 0.71108,-0.9583 0.88752,-0.82214 2.30177,1.77628 1.85799,3.41377 1.87641,3.7377 0.25692,4.51875 -1.57675,0.76045 -1.98621,0.8075 -2.31919,0.26656 z m 7.75221,-1.54354 c -1.70683,-1.1955 -2.21901,-5.23062 -1.02052,-8.03985 l 0.92675,-2.17226 0.94204,2.26615 c 0.51814,1.24639 1.67284,3.34333 2.56604,4.65989 0.89462,1.31869 1.4751,2.78171 1.29248,3.2576 -0.42411,1.10522 -3.146,1.1217 -4.70679,0.0285 z m -31.34193,-16.98791 c -2.49788,-5.5673 -5.00803,-13.87634 -5.9539,-19.70841 -0.91666,-5.65198 -1.12812,-12.08774 -0.41171,-12.5305 0.67028,-0.41425 6.2346,8.10043 7.54177,11.54064 0.68249,1.79615 1.25974,4.99541 1.42245,7.88351 0.26237,4.65687 0.23718,4.78936 -0.60091,3.16098 -0.82058,-1.59436 -0.85441,-1.28294 -0.54615,5.02905 0.18074,3.70076 0.46295,7.07874 0.62714,7.50662 0.16419,0.42788 0.13311,0.77795 -0.0691,0.77795 -0.20217,0 -1.10651,-1.64693 -2.00964,-3.65984 z M 11.410401,151.44778 C 7.6649708,147.4436 6.5369308,144.7093 6.5216908,139.59779 c -0.0125,-4.10961 0.007,-4.16401 1.33521,-3.83057 2.1286,0.53424 6.3047702,-1.0231 11.0194702,-4.10927 2.39013,-1.56454 5.49295,-3.36841 6.89513,-4.00859 1.40218,-0.64017 1.91207,-1.01026 1.13308,-0.8224 -0.77899,0.18786 -3.32841,1.38311 -5.66537,2.6561 -9.02819,4.91786 -11.5157302,5.87176 -12.9693502,4.97338 -0.64693,-0.3998 -0.59799,-0.85326 0.28797,-2.66747 0.93495,-1.91463 1.8994302,-2.6075 7.7741002,-5.58501 7.03971,-3.56799 21.20352,-13.18015 33.20773,-22.53615 12.40762,-9.670423 13.26454,-10.324132 17.11117,-13.053323 4.52882,-3.2132 11.95945,-6.769801 16.62419,-7.956992 9.14649,-2.327826 23.685399,-2.689742 28.326859,-0.705142 2.12096,0.906883 12.99373,8.785225 12.62845,9.1505 -0.0918,0.09183 -3.09826,-0.572091 -6.68097,-1.475374 -11.17482,-2.817417 -21.344169,-3.344934 -30.591839,-1.586901 -2.82434,0.536917 -13.5969,5.126384 -13.5969,5.792734 0,0.1524 1.48699,-0.30565 3.30443,-1.0179 5.61057,-2.198767 8.90943,-2.750092 14.76737,-2.468008 5.71978,0.275424 7.2439,0.796791 14.085179,4.818275 l 2.68505,1.578349 -13.030359,0.363284 c -19.05611,0.531285 -23.71275,1.347852 -33.56732,5.886198 -4.53141,2.08684 -5.43928,2.9515 -1.72192,1.63994 2.21376,-0.78107 12.34021,-2.13391 12.76833,-1.70579 0.10469,0.10469 -1.50165,0.78768 -3.56967,1.51775 -2.06801,0.73007 -3.51341,1.40961 -3.21198,1.51009 0.30144,0.10047 4.34093,-0.45512 8.97667,-1.23466 4.63574,-0.77953 10.85056,-1.59473 13.81072,-1.81154 l 5.3821,-0.3942 -3.68249,2.97161 c -5.36105,4.32615 -7.39671,5.37266 -15.57977,8.00948 -7.25139,2.33661 -13.4538,5.04439 -14.15559,6.1799 -0.1969,0.31859 -0.61372,0.57922 -0.92627,0.57922 -0.97804,0 3.02409,-5.08055 6.74617,-8.56401 1.95887,-1.83329 3.41463,-3.33326 3.23502,-3.33326 -0.17962,0 -1.28618,0.48955 -2.45904,1.08791 -4.21894,2.15233 -16.32895,6.79996 -18.71049,7.18079 -2.49551,0.39905 -2.25248,1.33604 0.35112,1.35375 0.7011,0.004 1.27461,0.19988 1.27448,0.43358 -1.4e-4,0.23369 -3.12316,0.44434 -6.94008,0.4681 -3.81691,0.0237 -7.5772,0.32628 -8.35619,0.67226 -1.26206,0.56054 -1.08097,0.63297 1.66246,0.66497 4.52019,0.0528 9.4572,1.61253 11.65018,3.68077 3.29473,3.10735 3.88229,9.05323 1.0763,10.89178 -1.24543,0.81605 -1.59388,0.70328 -6.40236,-2.07185 -5.8061,-3.3509 -9.85631,-4.13096 -13.93522,-2.68389 -4.15101,1.47266 -7.5482,8.81394 -6.747,14.58021 0.36453,2.62359 2.32227,6.61022 3.88167,7.90441 1.49606,1.24162 0.974,1.91495 -0.67552,0.87123 -3.60725,-2.28243 -5.75852,-6.45656 -5.83673,-11.32507 l -0.0546,-3.39922 -1.367,3.91322 c -0.75184,2.15229 -1.79216,4.38303 -2.31178,4.95721 -1.3542,1.49637 -3.4264,1.28832 -5.11957,-0.51401 l -1.4636502,-1.55797 0.9968902,1.98287 c 0.54829,1.09059 2.16178,3.35729 3.58563,5.03712 3.17131,3.74152 1.36326,2.94775 -2.36537,-1.03843 z m 21.57367,-25.9197 c -0.55123,-0.14364 -1.31605,-0.13419 -1.69961,0.021 -0.38357,0.15519 0.0674,0.27271 1.00222,0.26118 0.93479,-0.0116 1.24861,-0.13853 0.69739,-0.28217 z m 161.615489,5.44873 -7.64825,-2.46346 -9.0646,-0.0168 c -7.76487,-0.0143 -10.17477,0.21163 -16.80736,1.57576 -4.25852,0.87587 -8.55613,1.51101 -9.55023,1.41143 -1.52478,-0.15272 -0.97841,-0.46392 3.49375,-1.98994 15.1639,-5.1743 25.75924,-7.45039 37.81874,-8.12422 7.88997,-0.44084 9.02611,-0.63905 11.89728,-2.07558 3.61267,-1.80752 6.24094,-5.07684 6.82903,-8.49467 l 0.37133,-2.15811 1.21952,2.26615 c 1.08237,2.01132 1.22157,2.10688 1.23783,0.8498 0.0102,-0.77898 -0.34774,-2.81851 -0.79512,-4.53229 l -0.81344,-3.11596 1.38369,1.69962 c 0.76103,0.93478 1.74734,2.71937 2.19178,3.96576 1.22386,3.43213 1.05376,0.88616 -0.21265,-3.18279 -0.61059,-1.96187 -1.03394,-3.64326 -0.94075,-3.73645 0.38488,-0.38488 2.09699,2.04697 2.90354,4.12412 l 0.86533,2.22858 -0.28732,-2.54942 -0.28734,-2.54942 1.61378,1.86478 c 6.8612,7.92834 7.12277,20.43115 0.5257,25.12866 -3.24075,2.30763 -5.44324,2.77295 -12.06408,2.5488 -5.473,-0.18527 -7.16329,-0.51096 -13.88016,-2.67443 z m 215.56737,0.60925 c -1.65652,-0.42152 -1.64333,-0.43418 0.52053,-0.49952 3.47467,-0.1049 13.23881,-2.82998 17.60866,-4.91442 7.12944,-3.40077 14.21166,-10.19166 15.65582,-15.01181 1.00265,-3.34655 0.1912,-6.13168 -2.5541,-8.7664 -3.04222,-2.919713 -5.66896,-3.676121 -12.60091,-3.628663 -5.30024,0.03634 -5.66426,0.252684 -2.26097,1.344013 2.22634,0.71392 0.47369,0.71896 -3.62194,0.0104 -2.33697,-0.404288 -8.56797,-1.016695 -13.84667,-1.360921 -9.44929,-0.616183 -12.81034,-1.154016 -7.35126,-1.176341 1.53201,-0.0067 4.37014,-0.24061 6.30696,-0.520768 3.89051,-0.562759 16.77603,-4.003534 16.40026,-4.379301 -0.13044,-0.130441 -2.84843,0.294975 -6.03998,0.945376 -9.11253,1.857016 -7.92075,1.006158 1.92717,-1.375867 7.44974,-1.801959 16.20976,-5.035209 15.51756,-5.727409 -0.10079,-0.10079 -1.90045,0.292908 -3.99923,0.874884 -2.09879,0.581974 -3.81598,0.966616 -3.81598,0.854758 0,-0.547851 12.06764,-6.565075 15.24844,-7.603242 7.27174,-2.373392 14.0086,-1.031933 18.07467,3.599058 2.23864,2.549667 2.05164,3.060317 -0.54169,1.479275 -1.04783,-0.638824 -2.28756,-1.161491 -2.75495,-1.161491 -0.46739,0 -0.085,0.4666 0.84981,1.036883 2.00408,1.222642 4.61689,4.823875 5.69713,7.852375 0.83236,2.33355 1.00401,7.706541 0.30345,9.498371 -0.34363,0.87891 -0.51668,0.60144 -0.82417,-1.32154 -1.1326,-7.082864 -5.90817,-11.830698 -12.82467,-12.750172 l -2.54941,-0.338918 1.76663,0.813243 c 7.56099,3.480625 7.04817,15.118997 -1.17389,26.641177 -5.73756,8.04047 -15.19895,13.82968 -25.37169,15.52434 -3.66946,0.61129 -11.44998,0.64672 -13.74558,0.0625 z m 38.68894,-21.51108 c 2.27035,-3.65224 3.77052,-8.97503 3.27456,-11.618666 -0.50978,-2.717393 -3.22586,-5.678035 -6.27852,-6.843852 -3.12816,-1.194658 -8.04157,-0.905101 -11.60715,0.684033 l -2.54942,1.136251 2.54942,0.04491 c 6.45944,0.113783 11.24747,4.451886 12.43403,11.265584 0.36476,2.09463 0.49828,4.78462 0.2967,5.97776 -0.20158,1.19313 -0.25474,2.16933 -0.11812,2.16933 0.13661,0 1.03593,-1.2669 1.9985,-2.81535 z m -299.65374,11.22447 c -4.31142,-5.14952 -12.75781,-12.22482 -17.11508,-14.33682 -3.17425,-1.53858 -3.62469,-1.89303 -2.07272,-1.63106 3.51805,0.59386 13.18069,4.63429 18.10498,7.57059 5.47491,3.26464 12.61668,8.54642 12.16576,8.99733 -0.49241,0.49242 -6.08734,2.20032 -7.41486,2.26346 -0.81724,0.0389 -2.03212,-0.90953 -3.66808,-2.8635 z m 250.76713,-0.98324 c -6.48034,-1.34376 -14.47856,-4.42553 -20.83088,-8.0263 -4.7205,-2.67577 -10.61193,-6.61405 -10.61193,-7.09383 0,-0.12264 1.42343,0.40653 3.16316,1.17592 1.73973,0.7694 6.64737,2.83724 10.90584,4.59521 4.25848,1.75796 9.78221,4.09258 12.27498,5.18805 2.49276,1.09545 6.6993,2.7113 9.34786,3.59077 3.92435,1.3031 4.44859,1.60166 2.83269,1.61326 -1.09058,0.007 -4.27736,-0.46157 -7.08172,-1.04308 z m 9.30457,-3.14692 c -7.74353,-1.03096 -11.98672,-2.15337 -18.01158,-4.76446 -5.35545,-2.32098 -14.91653,-8.11035 -18.48677,-11.194 l -2.26615,-1.9573 4.5323,2.06743 c 11.35137,5.17799 28.49411,11.28882 41.23005,14.69717 2.79894,0.74905 5.22604,1.49897 5.39355,1.66648 0.5729,0.57289 -6.39398,0.28316 -12.3914,-0.51532 z m -239.80949,0.3758 c -0.15095,-0.24424 1.36912,-0.91478 3.37792,-1.49007 2.00881,-0.5753 3.8162,-1.31108 4.01644,-1.63508 0.21623,-0.34986 0.0173,-0.45602 -0.48984,-0.2614 -1.8859,0.72369 -7.44962,1.10524 -10.52089,0.72151 l -3.25743,-0.40699 4.59731,-1.5425 c 4.74878,-1.59333 10.41279,-4.74115 17.78253,-9.88277 5.06596,-3.534359 11.59904,-6.370837 15.87612,-6.892962 3.07283,-0.375108 3.08809,-0.369574 1.68457,0.610934 -0.77898,0.544217 -3.20093,2.719769 -5.3821,4.834558 -2.18116,2.1148 -5.70932,4.8485 -7.84035,6.0749 l -3.87461,2.22982 5.57422,-0.2316 c 5.49132,-0.22815 5.54893,-0.2172 3.87459,0.73624 -8.17326,4.65421 -24.17564,9.14636 -25.41848,7.13541 z m 249.76719,-2.97489 c -5.54186,-0.7879 -12.47786,-2.62667 -16.06933,-4.26004 -3.30238,-1.50189 -9.88226,-5.36961 -9.5997,-5.64281 0.97895,-0.94654 31.47426,8.14689 33.57222,10.01093 0.72044,0.64012 -2.99841,0.58926 -7.90319,-0.10808 z m 1.69961,-4.546 c -6.80269,-1.25357 -11.33652,-2.44726 -15.43814,-4.06464 -5.28204,-2.08286 -7.10064,-3.2669 -5.01771,-3.2669 0.43412,0 4.41853,-0.383 8.85426,-0.8511 7.13845,-0.75335 8.70891,-0.75484 13.6704,-0.013 5.68552,0.85011 7.00622,1.30085 9.5452,3.2577 1.27478,0.9825 3.95557,4.75926 3.96286,5.58295 0.002,0.18057 -1.46302,-0.3734 -3.25469,-1.23103 -1.79167,-0.85763 -4.27735,-1.71259 -5.52374,-1.8999 -2.2043,-0.33128 -2.17145,-0.29387 1.20373,1.37071 1.90843,0.9412 3.82049,2.13567 4.24902,2.65436 0.70412,0.85225 0.61548,0.90901 -0.92045,0.58934 -0.93478,-0.19456 -6.03362,-1.15239 -11.33074,-2.12852 z m -265.77835,-0.922 -2.19371,-0.95545 3.12423,-0.42386 c 4.40768,-0.59799 7.38105,-2.03413 13.87189,-6.70012 3.11595,-2.239931 7.23411,-4.955708 9.15145,-6.03505 3.31399,-1.865566 9.5997,-3.641042 12.66022,-3.576041 1.22928,0.02608 1.15037,0.128075 -0.59751,0.771999 -4.20558,1.549376 -6.94276,3.312092 -10.89736,7.017819 -6.7492,6.324463 -10.00682,8.532263 -14.8491,10.063663 -3.22911,1.02124 -7.71463,0.95006 -10.27011,-0.16296 z m 2.62186,-7.4548 c 0,-0.2633 0.46985,-0.90395 1.04414,-1.42366 0.57428,-0.519718 1.75191,-2.343826 2.61696,-4.05357 0.86506,-1.70975 1.77793,-3.108633 2.0286,-3.108633 1.16172,0 6.20758,1.367166 6.20758,1.681934 0,0.585458 -4.09455,4.336401 -6.45261,5.911109 -2.09848,1.40137 -5.44467,2.01153 -5.44467,0.99282 z m -9.43448,-16.234113 c 0.37826,-4.034709 2.08571,-9.480201 4.43032,-14.129401 0.97141,-1.926233 1.32207,-3.053967 0.82007,-2.637333 -1.96826,1.633499 -7.27738,9.174367 -8.23462,11.696133 l -1.02519,2.700759 -0.40644,-3.252975 c -0.76915,-6.156142 0.98369,-12.956859 4.54058,-17.616651 l 1.92501,-2.521901 -2.80207,2.013101 c -1.54114,1.1072 -3.83896,3.251525 -5.10625,4.765166 -2.42829,2.900334 -6.23534,10.469659 -6.23534,12.397351 0,2.065059 -0.99823,1.799717 -1.92284,-0.511108 -1.148,-2.869142 -1.17973,-9.068068 -0.0656,-12.819676 0.46432,-1.563533 1.62271,-3.917467 2.57419,-5.23095 1.56827,-2.164933 1.6047,-2.306084 0.38986,-1.510092 -0.73705,0.482942 -2.43735,2.216984 -3.77845,3.853426 -2.67839,3.268241 -2.71184,2.638224 -0.1666,-3.138425 3.88263,-8.811976 18.45097,-15.809468 26.07405,-12.523934 1.88111,0.81075 1.98517,0.957924 0.97324,1.376516 -1.10173,0.455742 -1.09961,0.469809 0.0765,0.508525 2.15005,0.07075 3.32705,2.672242 3.22205,7.121534 -0.0946,4.009434 -2.72499,12.83495 -5.37144,18.022393 -0.61713,1.209716 -1.02717,2.294374 -0.9112,2.410358 0.50204,0.502034 6.41701,-5.340943 9.69869,-9.580651 9.65215,-12.469934 11.48266,-19.018542 6.61149,-23.652384 -2.38496,-2.268767 -5.56557,-3.315996 -10.31934,-3.397702 l -3.00672,-0.05166 3.39923,-1.164541 c 2.55805,-0.876358 4.94137,-1.179014 9.63113,-1.223029 5.75567,-0.05405 6.48121,0.06393 9.4942,1.543452 4.51103,2.215137 6.26503,4.654162 6.53603,9.088629 0.18763,3.0705 -0.0182,3.932308 -1.77656,7.438609 l -1.98877,3.965758 2.82285,-3.11595 c 4.23824,-4.678308 6.14571,-8.246901 6.15207,-11.509618 0.006,-3.03 -0.56693,-4.453522 -2.72177,-6.763769 l -1.45558,-1.560544 2.79951,0.952388 c 5.99326,2.038906 11.78619,6.417509 13.89497,10.50255 0.59679,1.156067 1.10633,3.323076 1.1323,4.815568 l 0.0472,2.713617 1.50816,-3.115959 c 1.25595,-2.595078 1.5085,-3.892312 1.51066,-7.760187 l 0.002,-4.644228 1.67909,1.52827 c 3.61238,3.287924 5.3449,6.483408 5.43605,10.026342 l 0.0584,2.266141 1.07234,-2.266141 c 4.914,-10.384434 -6.42505,-20.890906 -26.21375,-24.288985 l -4.12699,-0.708676 3.49966,-0.413362 c 5.13573,-0.606603 14.77279,0.544663 20.84717,2.490463 13.25297,4.245381 21.82572,14.462177 21.82572,26.011643 0,5.985276 -1.90674,9.348592 -7.42399,13.095293 -4.59599,3.121083 -21.00133,11.077384 -24.86863,12.060842 l -3.11595,0.7924 2.26615,0.6141 c 6.09372,1.651325 14.47254,3.536175 17.13774,3.8552 1.63589,0.195825 2.97433,0.6107 2.97433,0.921942 0,0.370875 -5.41794,0.456434 -15.72141,0.248258 -15.29792,-0.309074 -24.83076,-1.216842 -29.60156,-2.818808 -1.10095,-0.369675 -5.25864,-0.673592 -9.34787,-0.683292 -7.32842,-0.01741 -7.38276,-0.0075 -10.94889,1.92565 -3.59217,1.9476 -7.4189,5.698159 -7.51466,7.365076 -0.0281,0.4892 -0.31049,-0.0025 -0.62755,-1.093417 -0.31705,-1.090584 -0.43305,-3.512533 -0.25779,-5.3821 z m 25.01425,-7.673926 c 10.00804,-0.683425 15.91852,-2.641959 22.15857,-7.342575 3.79588,-2.859442 7.40895,-7.811459 9.26916,-12.704143 l 0.52632,-1.38435 -1.9753,1.340475 c -1.08641,0.737259 -4.45195,2.151467 -7.47897,3.142692 -6.73926,2.206834 -11.38892,4.661459 -17.68566,9.336542 -2.64935,1.967051 -6.96988,4.617542 -9.60117,5.890001 -3.59104,1.736591 -4.36775,2.292783 -3.11451,2.230241 0.91831,-0.04584 4.47401,-0.274825 7.90156,-0.508883 z m 199.48427,6.230758 c -7.75962,-1.092058 -16.86843,-3.865416 -10.25268,-3.121633 3.65881,0.41135 18.75165,-0.593275 26.05251,-1.734125 5.28297,-0.825534 9.17576,-1.610733 33.70896,-6.799284 22.88071,-4.839074 33.72721,-7.010642 34.80924,-6.969133 0.80748,0.03101 0.90464,0.137875 0.31606,0.347758 -0.46739,0.166659 -5.18381,2.162059 -10.48093,4.434209 -21.75722,9.332542 -34.79548,12.899126 -53.53776,14.645117 -3.64942,0.339975 -15.87908,-0.136342 -20.6154,-0.802909 z M 118.96685,81.598428 c -1.86957,-1.233334 -4.22778,-3.265325 -5.24046,-4.515526 -1.01269,-1.250199 -1.84125,-1.977916 -1.84125,-1.617149 0,0.996374 1.68308,4.115325 3.04059,5.634583 0.77354,0.8657 0.90261,1.234709 0.35863,1.025342 -0.46739,-0.179891 -3.0168,-1.016442 -5.66536,-1.858992 -2.64857,-0.842549 -5.05085,-1.743191 -5.33841,-2.001417 -0.79251,-0.71165 0.29705,-2.645975 3.80521,-6.755516 2.78303,-3.260109 8.58876,-8.566126 7.57099,-6.919359 -0.78439,1.269175 -1.36789,5.953025 -0.92445,7.420792 0.4458,1.475609 0.45558,1.468734 0.50333,-0.354625 0.0737,-2.816767 1.4427,-5.568518 4.89715,-9.844034 1.72254,-2.131967 3.20882,-3.876291 3.30283,-3.876291 0.094,0 -0.33517,1.465907 -0.95371,3.257583 -2.2735,6.585375 -1.81781,14.1121 1.2939,21.371392 l 1.10958,2.588567 -1.25967,-0.65645 c -0.69282,-0.361049 -2.78932,-1.66555 -4.6589,-2.8989 z M 99.810741,69.408611 c 4.851779,-7.696884 12.409269,-16.388776 18.295099,-21.041268 5.82643,-4.605526 14.72042,-9.001744 23.23923,-11.486944 5.6337,-1.643524 16.07668,-3.307919 20.59327,-3.282142 l 4.05109,0.02312 -6.41288,1.676067 c -6.80336,1.778121 -18.91782,6.146043 -26.46685,9.542735 -11.89104,5.350392 -20.27795,11.363567 -28.80094,20.64946 -2.76484,3.012316 -5.128919,5.476941 -5.253529,5.476941 -0.12461,0 0.21537,-0.701091 0.75551,-1.557983 z M 357.59009,68.04811 c -5.59095,-1.549332 -9.09845,-3.563092 -13.172,-7.562458 -3.28837,-3.228492 -7.08051,-9.106926 -7.8576,-12.18055 l -0.35809,-1.416343 0.99936,1.416343 c 2.08955,2.961433 7.36876,8.150583 10.36282,10.186016 8.21903,5.587526 14.60553,7.343043 28.61012,7.864351 l 10.19768,0.379609 -5.38211,1.260299 c -2.96016,0.693167 -6.2744,1.363334 -7.36498,1.489267 -3.72843,0.430509 -11.95835,-0.306775 -16.0352,-1.436534 z"
     id="path1" /></svg>
