<?xml version="1.0" encoding="UTF-8"?>
<svg xmlns="http://www.w3.org/2000/svg" xmlns:xlink="http://www.w3.org/1999/xlink" width="57.091pt" height="26.309pt" viewBox="0 0 57.091 26.309" version="1.1">
<defs>
<clipPath id="clip1">
  <path d="M 0 12 L 57.089844 12 L 57.089844 14 L 0 14 Z M 0 12 "/>
</clipPath>
<clipPath id="clip2">
  <path d="M 16 0 L 45 0 L 45 26.308594 L 16 26.308594 Z M 16 0 "/>
</clipPath>
<clipPath id="clip3">
  <path d="M 23 0 L 25 0 L 25 26.308594 L 23 26.308594 Z M 23 0 "/>
</clipPath>
</defs>
<g id="surface1">
<g clip-path="url(#clip1)" clip-rule="nonzero">
<path style="fill:none;stroke-width:0.3985;stroke-linecap:butt;stroke-linejoin:miter;stroke:rgb(0%,0%,0%);stroke-opacity:1;stroke-miterlimit:10;" d="M 0.00021875 0.00165625 L 24.093969 0.00165625 M 32.597875 0.00165625 L 56.695531 0.00165625 " transform="matrix(1,0,0,-1,0.199,13.154)"/>
</g>
<g clip-path="url(#clip2)" clip-rule="nonzero">
<path style="fill:none;stroke-width:0.797;stroke-linecap:butt;stroke-linejoin:miter;stroke:rgb(0%,0%,0%);stroke-opacity:1;stroke-miterlimit:10;" d="M 32.597875 12.755562 C 30.203344 8.599312 27.922094 4.618844 27.922094 0.00165625 C 27.922094 -4.619438 30.203344 -8.596 32.597875 -12.756156 " transform="matrix(1,0,0,-1,0.199,13.154)"/>
</g>
<g clip-path="url(#clip3)" clip-rule="nonzero">
<path style="fill:none;stroke-width:0.797;stroke-linecap:butt;stroke-linejoin:miter;stroke:rgb(0%,0%,0%);stroke-opacity:1;stroke-miterlimit:10;" d="M 24.093969 12.755562 L 24.093969 -12.756156 " transform="matrix(1,0,0,-1,0.199,13.154)"/>
</g>
<path style="fill:none;stroke-width:0.3985;stroke-linecap:butt;stroke-linejoin:miter;stroke:rgb(0%,0%,0%);stroke-opacity:1;stroke-miterlimit:10;" d="M 27.922094 0.00165625 L 32.597875 0.00165625 " transform="matrix(1,0,0,-1,0.199,13.154)"/>
</g>
</svg>
