<?xml version="1.0" encoding="UTF-8"?>
<svg xmlns="http://www.w3.org/2000/svg" xmlns:xlink="http://www.w3.org/1999/xlink" width="57.091pt" height="36.871pt" viewBox="0 0 57.091 36.871" version="1.1">
<defs>
<clipPath id="clip1">
  <path d="M 0 18 L 57.089844 18 L 57.089844 19 L 0 19 Z M 0 18 "/>
</clipPath>
<clipPath id="clip2">
  <path d="M 10 0 L 47 0 L 47 36.871094 L 10 36.871094 Z M 10 0 "/>
</clipPath>
</defs>
<g id="surface1">
<g clip-path="url(#clip1)" clip-rule="nonzero">
<path style="fill:none;stroke-width:0.3985;stroke-linecap:butt;stroke-linejoin:miter;stroke:rgb(0%,0%,0%);stroke-opacity:1;stroke-miterlimit:10;" d="M 0.00021875 0.00140625 L 7.086156 0.00140625 M 49.605688 0.00140625 L 56.695531 0.00140625 " transform="matrix(1,0,0,-1,0.199,18.435)"/>
</g>
<g clip-path="url(#clip2)" clip-rule="nonzero">
<path style="fill:none;stroke-width:0.797;stroke-linecap:butt;stroke-linejoin:miter;stroke:rgb(0%,0%,0%);stroke-opacity:1;stroke-miterlimit:10;" d="M 21.968969 0.00140625 L 34.406469 -9.018125 L 21.968969 -18.037656 L 21.968969 18.036562 M 34.726781 0.00140625 L 22.289281 9.017031 L 34.726781 18.036562 L 34.726781 -18.037656 " transform="matrix(1,0,0,-1,0.199,18.435)"/>
</g>
<path style="fill:none;stroke-width:0.3985;stroke-linecap:butt;stroke-linejoin:miter;stroke:rgb(0%,0%,0%);stroke-opacity:1;stroke-miterlimit:10;" d="M 21.968969 0.00140625 L 7.086156 0.00140625 M 34.726781 0.00140625 L 49.605688 0.00140625 " transform="matrix(1,0,0,-1,0.199,18.435)"/>
</g>
</svg>
