<?xml version="1.0" encoding="UTF-8"?>
<svg xmlns="http://www.w3.org/2000/svg" xmlns:xlink="http://www.w3.org/1999/xlink" width="57.091pt" height="27.39pt" viewBox="0 0 57.091 27.39" version="1.1">
<defs>
<clipPath id="clip1">
  <path d="M 0 14 L 57.089844 14 L 57.089844 15 L 0 15 Z M 0 14 "/>
</clipPath>
<clipPath id="clip2">
  <path d="M 21 1 L 36 1 L 36 27.390625 L 21 27.390625 Z M 21 1 "/>
</clipPath>
</defs>
<g id="surface1">
<g clip-path="url(#clip1)" clip-rule="nonzero">
<path style="fill:none;stroke-width:0.3985;stroke-linecap:butt;stroke-linejoin:miter;stroke:rgb(0%,0%,0%);stroke-opacity:1;stroke-miterlimit:10;" d="M 0.00021875 0.000625 L 11.340063 0.000625 M 45.355688 0.000625 L 56.695531 0.000625 " transform="matrix(1,0,0,-1,0.199,14.235)"/>
</g>
<path style="fill:none;stroke-width:0.797;stroke-linecap:butt;stroke-linejoin:bevel;stroke:rgb(0%,0%,0%);stroke-opacity:1;stroke-miterlimit:10;" d="M 10.941625 0.000625 L 14.20725 6.379531 L 19.941625 -6.378281 L 25.679906 6.379531 L 31.414281 -6.378281 L 37.148656 6.379531 L 42.886938 -6.378281 L 45.754125 0.000625 " transform="matrix(1,0,0,-1,0.199,14.235)"/>
<g clip-path="url(#clip2)" clip-rule="nonzero">
<path style="fill:none;stroke-width:0.797;stroke-linecap:butt;stroke-linejoin:bevel;stroke:rgb(0%,0%,0%);stroke-opacity:1;stroke-miterlimit:10;" d="M 21.383031 -12.757188 L 35.023656 12.231094 " transform="matrix(1,0,0,-1,0.199,14.235)"/>
</g>
<path style="fill:none;stroke-width:0.797;stroke-linecap:butt;stroke-linejoin:miter;stroke:rgb(0%,0%,0%);stroke-opacity:1;stroke-miterlimit:10;" d="M 0.000634725 3.090149 L -0.00083606 -3.08788 " transform="matrix(0.47906,-0.87772,-0.87772,-0.47906,35.31745,1.82858)"/>
</g>
</svg>
