<?xml version="1.0" encoding="UTF-8"?>
<svg xmlns="http://www.w3.org/2000/svg" xmlns:xlink="http://www.w3.org/1999/xlink" width="43.777pt" height="59.079pt" viewBox="0 0 43.777 59.079" version="1.1">
<defs>
<clipPath id="clip1">
  <path d="M 3 1 L 4 1 L 4 59.078125 L 3 59.078125 Z M 3 1 "/>
</clipPath>
<clipPath id="clip2">
  <path d="M 39 1 L 41 1 L 41 59.078125 L 39 59.078125 Z M 39 1 "/>
</clipPath>
<clipPath id="clip3">
  <path d="M 33 16 L 43.777344 16 L 43.777344 45 L 33 45 Z M 33 16 "/>
</clipPath>
</defs>
<g id="surface1">
<g clip-path="url(#clip1)" clip-rule="nonzero">
<path style="fill:none;stroke-width:0.3985;stroke-linecap:butt;stroke-linejoin:miter;stroke:rgb(0%,0%,0%);stroke-opacity:1;stroke-miterlimit:10;" d="M -0.00090625 56.6925 L -0.00090625 41.102656 M -0.00090625 15.590938 L -0.00090625 0.00109375 " transform="matrix(1,0,0,-1,3.747,58.88)"/>
</g>
<path style="fill:none;stroke-width:0.797;stroke-linecap:butt;stroke-linejoin:bevel;stroke:rgb(0%,0%,0%);stroke-opacity:1;stroke-miterlimit:10;" d="M -0.161063 41.501094 C 3.362375 41.501094 6.217844 39.751094 6.217844 37.594844 C 6.217844 35.438594 3.362375 33.688594 -0.161063 33.688594 C -1.918875 33.688594 -3.348563 34.403438 -3.348563 35.282344 C -3.348563 36.165156 -1.918875 36.876094 -0.161063 36.876094 C 3.362375 36.876094 6.217844 35.13 6.217844 32.969844 C 6.217844 30.813594 3.362375 29.063594 -0.161063 29.063594 C -1.918875 29.063594 -3.348563 29.778438 -3.348563 30.657344 C -3.348563 31.540156 -1.918875 32.255 -0.161063 32.255 C 3.362375 32.255 6.217844 30.505 6.217844 28.34875 C 6.217844 26.188594 3.362375 24.438594 -0.161063 24.438594 C -1.918875 24.438594 -3.348563 25.153438 -3.348563 26.03625 C -3.348563 26.915156 -1.918875 27.63 -0.161063 27.63 C 3.362375 27.63 6.217844 25.88 6.217844 23.72375 C 6.217844 21.563594 3.362375 19.8175 -0.161063 19.8175 C -1.918875 19.8175 -3.348563 20.528438 -3.348563 21.41125 C -3.348563 22.290156 -1.918875 23.005 -0.161063 23.005 C 3.362375 23.005 6.217844 21.255 6.217844 19.09875 C 6.217844 16.9425 3.362375 15.1925 -0.161063 15.1925 " transform="matrix(1,0,0,-1,3.747,58.88)"/>
<g clip-path="url(#clip2)" clip-rule="nonzero">
<path style="fill:none;stroke-width:0.3985;stroke-linecap:butt;stroke-linejoin:miter;stroke:rgb(0%,0%,0%);stroke-opacity:1;stroke-miterlimit:10;" d="M 36.28425 0.00109375 L 36.28425 15.590938 M 36.28425 41.102656 L 36.28425 56.6925 " transform="matrix(1,0,0,-1,3.747,58.88)"/>
</g>
<g clip-path="url(#clip3)" clip-rule="nonzero">
<path style="fill:none;stroke-width:0.797;stroke-linecap:butt;stroke-linejoin:bevel;stroke:rgb(0%,0%,0%);stroke-opacity:1;stroke-miterlimit:10;" d="M 36.444406 15.1925 C 32.920969 15.1925 30.0655 16.9425 30.0655 19.09875 C 30.0655 21.255 32.920969 23.005 36.444406 23.005 C 38.206125 23.005 39.631906 22.290156 39.631906 21.41125 C 39.631906 20.528438 38.206125 19.8175 36.444406 19.8175 C 32.920969 19.8175 30.0655 21.563594 30.0655 23.72375 C 30.0655 25.88 32.920969 27.63 36.444406 27.63 C 38.206125 27.63 39.631906 26.915156 39.631906 26.03625 C 39.631906 25.153438 38.206125 24.438594 36.444406 24.438594 C 32.920969 24.438594 30.0655 26.188594 30.0655 28.34875 C 30.0655 30.505 32.920969 32.255 36.444406 32.255 C 38.206125 32.255 39.631906 31.540156 39.631906 30.657344 C 39.631906 29.778438 38.206125 29.063594 36.444406 29.063594 C 32.920969 29.063594 30.0655 30.813594 30.0655 32.969844 C 30.0655 35.13 32.920969 36.876094 36.444406 36.876094 C 38.206125 36.876094 39.631906 36.165156 39.631906 35.282344 C 39.631906 34.403438 38.206125 33.688594 36.444406 33.688594 C 32.920969 33.688594 30.0655 35.438594 30.0655 37.594844 C 30.0655 39.751094 32.920969 41.501094 36.444406 41.501094 " transform="matrix(1,0,0,-1,3.747,58.88)"/>
</g>
<path style="fill-rule:nonzero;fill:rgb(0%,0%,0%);fill-opacity:1;stroke-width:0.3985;stroke-linecap:butt;stroke-linejoin:miter;stroke:rgb(0%,0%,0%);stroke-opacity:1;stroke-miterlimit:10;" d="M 6.237375 47.622188 C 6.237375 48.559688 5.475656 49.321406 4.53425 49.321406 C 3.59675 49.321406 2.835031 48.559688 2.835031 47.622188 C 2.835031 46.684688 3.59675 45.922969 4.53425 45.922969 C 5.475656 45.922969 6.237375 46.684688 6.237375 47.622188 Z M 6.237375 47.622188 " transform="matrix(1,0,0,-1,3.747,58.88)"/>
<path style="fill-rule:nonzero;fill:rgb(0%,0%,0%);fill-opacity:1;stroke-width:0.3985;stroke-linecap:butt;stroke-linejoin:miter;stroke:rgb(0%,0%,0%);stroke-opacity:1;stroke-miterlimit:10;" d="M 33.448313 47.622188 C 33.448313 48.559688 32.686594 49.321406 31.749094 49.321406 C 30.807688 49.321406 30.045969 48.559688 30.045969 47.622188 C 30.045969 46.684688 30.807688 45.922969 31.749094 45.922969 C 32.686594 45.922969 33.448313 46.684688 33.448313 47.622188 Z M 33.448313 47.622188 " transform="matrix(1,0,0,-1,3.747,58.88)"/>
<path style="fill:none;stroke-width:0.79701;stroke-linecap:butt;stroke-linejoin:miter;stroke:rgb(0%,0%,0%);stroke-opacity:1;stroke-miterlimit:10;" d="M 15.874094 17.008906 L 15.874094 39.684688 " transform="matrix(1,0,0,-1,3.747,58.88)"/>
<path style="fill:none;stroke-width:0.79701;stroke-linecap:butt;stroke-linejoin:miter;stroke:rgb(0%,0%,0%);stroke-opacity:1;stroke-miterlimit:10;" d="M 20.40925 17.008906 L 20.40925 39.684688 " transform="matrix(1,0,0,-1,3.747,58.88)"/>
</g>
</svg>
