<?xml version="1.0" encoding="UTF-8"?>
<svg xmlns="http://www.w3.org/2000/svg" xmlns:xlink="http://www.w3.org/1999/xlink" width="57.091pt" height="22.057pt" viewBox="0 0 57.091 22.057" version="1.1">
<defs>
<clipPath id="clip1">
  <path d="M 0 10 L 57.089844 10 L 57.089844 12 L 0 12 Z M 0 10 "/>
</clipPath>
<clipPath id="clip2">
  <path d="M 7 0 L 48 0 L 48 22.058594 L 7 22.058594 Z M 7 0 "/>
</clipPath>
<clipPath id="clip3">
  <path d="M 36 0 L 39 0 L 39 22.058594 L 36 22.058594 Z M 36 0 "/>
</clipPath>
</defs>
<g id="surface1">
<g clip-path="url(#clip1)" clip-rule="nonzero">
<path style="fill:none;stroke-width:0.3985;stroke-linecap:butt;stroke-linejoin:miter;stroke:rgb(0%,0%,0%);stroke-opacity:1;stroke-miterlimit:10;" d="M 0.00021875 0.00165625 L 18.781469 0.00165625 M 37.914281 0.00165625 L 56.695531 0.00165625 " transform="matrix(1,0,0,-1,0.199,11.029)"/>
</g>
<path style=" stroke:none;fill-rule:nonzero;fill:rgb(0%,0%,0%);fill-opacity:1;" d="M 36.519531 11.027344 L 18.980469 0.398438 L 18.980469 21.660156 L 36.519531 11.027344 "/>
<g clip-path="url(#clip2)" clip-rule="nonzero">
<path style="fill:none;stroke-width:0.797;stroke-linecap:butt;stroke-linejoin:miter;stroke:rgb(0%,0%,0%);stroke-opacity:1;stroke-miterlimit:10;" d="M 36.320531 0.00165625 L 18.781469 10.630563 L 18.781469 -10.631156 L 36.320531 0.00165625 " transform="matrix(1,0,0,-1,0.199,11.029)"/>
</g>
<g clip-path="url(#clip3)" clip-rule="nonzero">
<path style="fill:none;stroke-width:0.797;stroke-linecap:butt;stroke-linejoin:miter;stroke:rgb(0%,0%,0%);stroke-opacity:1;stroke-miterlimit:10;" d="M 36.320531 -10.631156 L 36.320531 10.630563 M 37.914281 -10.631156 L 37.914281 10.630563 " transform="matrix(1,0,0,-1,0.199,11.029)"/>
</g>
</g>
</svg>
