<?xml version="1.0" encoding="UTF-8"?>
<svg xmlns="http://www.w3.org/2000/svg" xmlns:xlink="http://www.w3.org/1999/xlink" width="57.091pt" height="22.057pt" viewBox="0 0 57.091 22.057" version="1.1">
<defs>
<clipPath id="clip1">
  <path d="M 0 10 L 57.089844 10 L 57.089844 12 L 0 12 Z M 0 10 "/>
</clipPath>
<clipPath id="clip2">
  <path d="M 8 0 L 49 0 L 49 22.058594 L 8 22.058594 Z M 8 0 "/>
</clipPath>
<clipPath id="clip3">
  <path d="M 33 0 L 38 0 L 38 22.058594 L 33 22.058594 Z M 33 0 "/>
</clipPath>
</defs>
<g id="surface1">
<g clip-path="url(#clip1)" clip-rule="nonzero">
<path style="fill:none;stroke-width:0.3985;stroke-linecap:butt;stroke-linejoin:miter;stroke:rgb(0%,0%,0%);stroke-opacity:1;stroke-miterlimit:10;" d="M 0.00021875 0.00165625 L 19.843969 0.00165625 M 36.851781 0.00165625 L 56.695531 0.00165625 " transform="matrix(1,0,0,-1,0.199,11.029)"/>
</g>
<g clip-path="url(#clip2)" clip-rule="nonzero">
<path style="fill:none;stroke-width:0.797;stroke-linecap:butt;stroke-linejoin:miter;stroke:rgb(0%,0%,0%);stroke-opacity:1;stroke-miterlimit:10;" d="M 36.851781 0.00165625 L 19.843969 10.630563 L 19.843969 -10.631156 Z M 36.851781 0.00165625 " transform="matrix(1,0,0,-1,0.199,11.029)"/>
</g>
<path style="fill:none;stroke-width:0.3985;stroke-linecap:butt;stroke-linejoin:miter;stroke:rgb(0%,0%,0%);stroke-opacity:1;stroke-miterlimit:10;" d="M 36.851781 0.00165625 L 19.843969 0.00165625 " transform="matrix(1,0,0,-1,0.199,11.029)"/>
<g clip-path="url(#clip3)" clip-rule="nonzero">
<path style="fill:none;stroke-width:0.797;stroke-linecap:butt;stroke-linejoin:miter;stroke:rgb(0%,0%,0%);stroke-opacity:1;stroke-miterlimit:10;" d="M 36.851781 -10.631156 L 36.851781 10.630563 L 33.449438 10.630563 " transform="matrix(1,0,0,-1,0.199,11.029)"/>
</g>
</g>
</svg>
