<?xml version="1.0" encoding="UTF-8"?>
<svg xmlns="http://www.w3.org/2000/svg" xmlns:xlink="http://www.w3.org/1999/xlink" width="57.091pt" height="30.561pt" viewBox="0 0 57.091 30.561" version="1.1">
<defs>
<clipPath id="clip1">
  <path d="M 0 15 L 57.089844 15 L 57.089844 16 L 0 16 Z M 0 15 "/>
</clipPath>
<clipPath id="clip2">
  <path d="M 2 0 L 55 0 L 55 30.5625 L 2 30.5625 Z M 2 0 "/>
</clipPath>
</defs>
<g id="surface1">
<g clip-path="url(#clip1)" clip-rule="nonzero">
<path style="fill:none;stroke-width:0.3985;stroke-linecap:butt;stroke-linejoin:miter;stroke:rgb(0%,0%,0%);stroke-opacity:1;stroke-miterlimit:10;" d="M 56.695531 -0.00025 L 43.230688 -0.00025 M 13.465063 -0.00025 L 0.00021875 -0.00025 " transform="matrix(1,0,0,-1,0.199,15.281)"/>
</g>
<g clip-path="url(#clip2)" clip-rule="nonzero">
<path style="fill:none;stroke-width:0.797;stroke-linecap:butt;stroke-linejoin:miter;stroke:rgb(0%,0%,0%);stroke-opacity:1;stroke-miterlimit:10;" d="M 43.230688 -0.00025 L 28.347875 -14.883062 L 13.465063 -0.00025 L 28.347875 14.882563 Z M 43.230688 -0.00025 " transform="matrix(1,0,0,-1,0.199,15.281)"/>
</g>
<path style="fill:none;stroke-width:0.797;stroke-linecap:butt;stroke-linejoin:miter;stroke:rgb(0%,0%,0%);stroke-opacity:1;stroke-miterlimit:10;" d="M 38.765844 -0.00025 L 17.929906 -0.00025 " transform="matrix(1,0,0,-1,0.199,15.281)"/>
<path style="fill-rule:nonzero;fill:rgb(0%,0%,0%);fill-opacity:1;stroke-width:0.797;stroke-linecap:butt;stroke-linejoin:miter;stroke:rgb(0%,0%,0%);stroke-opacity:1;stroke-miterlimit:10;" d="M 22.765844 -0.00025 L 22.765844 2.12475 L 18.250219 -0.00025 L 22.765844 -2.12525 Z M 22.765844 -0.00025 " transform="matrix(1,0,0,-1,0.199,15.281)"/>
</g>
</svg>
