<?xml version="1.0" encoding="UTF-8"?>
<svg xmlns="http://www.w3.org/2000/svg" xmlns:xlink="http://www.w3.org/1999/xlink" width="57.091pt" height="12.277pt" viewBox="0 0 57.091 12.277" version="1.1">
<defs>
<clipPath id="clip1">
  <path d="M 0 8 L 57.089844 8 L 57.089844 9 L 0 9 Z M 0 8 "/>
</clipPath>
<clipPath id="clip2">
  <path d="M 14 1 L 43 1 L 43 12.277344 L 14 12.277344 Z M 14 1 "/>
</clipPath>
</defs>
<g id="surface1">
<g clip-path="url(#clip1)" clip-rule="nonzero">
<path style="fill:none;stroke-width:0.3985;stroke-linecap:butt;stroke-linejoin:miter;stroke:rgb(0%,0%,0%);stroke-opacity:1;stroke-miterlimit:10;" d="M 0.00021875 -0.00125 L 15.590063 -0.00125 M 41.101781 -0.00125 L 56.695531 -0.00125 " transform="matrix(1,0,0,-1,0.199,8.53)"/>
</g>
<g clip-path="url(#clip2)" clip-rule="nonzero">
<path style="fill:none;stroke-width:0.797;stroke-linecap:butt;stroke-linejoin:bevel;stroke:rgb(0%,0%,0%);stroke-opacity:1;stroke-miterlimit:10;" d="M 15.191625 -0.1575 C 15.191625 3.362031 16.941625 6.2175 19.097875 6.2175 C 21.258031 6.2175 23.004125 3.362031 23.004125 -0.1575 C 23.004125 -1.919219 22.289281 -3.348906 21.410375 -3.348906 C 20.531469 -3.348906 19.816625 -1.919219 19.816625 -0.1575 C 19.816625 3.362031 21.566625 6.2175 23.722875 6.2175 C 25.879125 6.2175 27.629125 3.362031 27.629125 -0.1575 C 27.629125 -1.919219 26.914281 -3.348906 26.035375 -3.348906 C 25.152562 -3.348906 24.441625 -1.919219 24.441625 -0.1575 C 24.441625 3.362031 26.187719 6.2175 28.347875 6.2175 C 30.504125 6.2175 32.254125 3.362031 32.254125 -0.1575 C 32.254125 -1.919219 31.539281 -3.348906 30.660375 -3.348906 C 29.777562 -3.348906 29.062719 -1.919219 29.062719 -0.1575 C 29.062719 3.362031 30.812719 6.2175 32.968969 6.2175 C 35.129125 6.2175 36.879125 3.362031 36.879125 -0.1575 C 36.879125 -1.919219 36.164281 -3.348906 35.281469 -3.348906 C 34.402563 -3.348906 33.687719 -1.919219 33.687719 -0.1575 C 33.687719 3.362031 35.437719 6.2175 37.593969 6.2175 C 39.754125 6.2175 41.500219 3.362031 41.500219 -0.1575 " transform="matrix(1,0,0,-1,0.199,8.53)"/>
</g>
<path style="fill:none;stroke-width:0.797;stroke-linecap:butt;stroke-linejoin:bevel;stroke:rgb(0%,0%,0%);stroke-opacity:1;stroke-miterlimit:10;" d="M 15.590063 8.131562 L 41.101781 8.131562 " transform="matrix(1,0,0,-1,0.199,8.53)"/>
</g>
</svg>
