<?xml version="1.0" encoding="UTF-8"?>
<svg xmlns="http://www.w3.org/2000/svg" xmlns:xlink="http://www.w3.org/1999/xlink" width="57.091pt" height="14.191pt" viewBox="0 0 57.091 14.191" version="1.1">
<defs>
<clipPath id="clip1">
  <path d="M 0 10 L 57.089844 10 L 57.089844 11 L 0 11 Z M 0 10 "/>
</clipPath>
<clipPath id="clip2">
  <path d="M 14 3 L 43 3 L 43 14.191406 L 14 14.191406 Z M 14 3 "/>
</clipPath>
</defs>
<g id="surface1">
<g clip-path="url(#clip1)" clip-rule="nonzero">
<path style="fill:none;stroke-width:0.3985;stroke-linecap:butt;stroke-linejoin:miter;stroke:rgb(0%,0%,0%);stroke-opacity:1;stroke-miterlimit:10;" d="M 0.00021875 -0.0013125 L 15.590063 -0.0013125 M 41.101781 -0.0013125 L 56.695531 -0.0013125 " transform="matrix(1,0,0,-1,0.199,10.444)"/>
</g>
<g clip-path="url(#clip2)" clip-rule="nonzero">
<path style="fill:none;stroke-width:0.797;stroke-linecap:butt;stroke-linejoin:bevel;stroke:rgb(0%,0%,0%);stroke-opacity:1;stroke-miterlimit:10;" d="M 15.191625 -0.157563 C 15.191625 3.361969 16.941625 6.217437 19.097875 6.217437 C 21.258031 6.217437 23.004125 3.361969 23.004125 -0.157563 C 23.004125 -1.919281 22.289281 -3.348969 21.410375 -3.348969 C 20.531469 -3.348969 19.816625 -1.919281 19.816625 -0.157563 C 19.816625 3.361969 21.566625 6.217437 23.722875 6.217437 C 25.879125 6.217437 27.629125 3.361969 27.629125 -0.157563 C 27.629125 -1.919281 26.914281 -3.348969 26.035375 -3.348969 C 25.152562 -3.348969 24.441625 -1.919281 24.441625 -0.157563 C 24.441625 3.361969 26.187719 6.217437 28.347875 6.217437 C 30.504125 6.217437 32.254125 3.361969 32.254125 -0.157563 C 32.254125 -1.919281 31.539281 -3.348969 30.660375 -3.348969 C 29.777562 -3.348969 29.062719 -1.919281 29.062719 -0.157563 C 29.062719 3.361969 30.812719 6.217437 32.968969 6.217437 C 35.129125 6.217437 36.879125 3.361969 36.879125 -0.157563 C 36.879125 -1.919281 36.164281 -3.348969 35.281469 -3.348969 C 34.402563 -3.348969 33.687719 -1.919281 33.687719 -0.157563 C 33.687719 3.361969 35.437719 6.217437 37.593969 6.217437 C 39.754125 6.217437 41.500219 3.361969 41.500219 -0.157563 " transform="matrix(1,0,0,-1,0.199,10.444)"/>
</g>
<path style="fill:none;stroke-width:0.797;stroke-linecap:butt;stroke-linejoin:bevel;stroke:rgb(0%,0%,0%);stroke-opacity:1;stroke-miterlimit:10;" d="M 15.590063 8.1315 L 41.101781 8.1315 " transform="matrix(1,0,0,-1,0.199,10.444)"/>
<path style="fill:none;stroke-width:0.797;stroke-linecap:butt;stroke-linejoin:bevel;stroke:rgb(0%,0%,0%);stroke-opacity:1;stroke-miterlimit:10;" d="M 15.590063 10.045562 L 41.101781 10.045562 " transform="matrix(1,0,0,-1,0.199,10.444)"/>
</g>
</svg>
