<?xml version="1.0" encoding="UTF-8"?>
<svg xmlns="http://www.w3.org/2000/svg" xmlns:xlink="http://www.w3.org/1999/xlink" width="57.091pt" height="19.931pt" viewBox="0 0 57.091 19.931" version="1.1">
<defs>
<clipPath id="clip1">
  <path d="M 0 12 L 57.089844 12 L 57.089844 14 L 0 14 Z M 0 12 "/>
</clipPath>
<clipPath id="clip2">
  <path d="M 12 0 L 44 0 L 44 19.929688 L 12 19.929688 Z M 12 0 "/>
</clipPath>
</defs>
<g id="surface1">
<g clip-path="url(#clip1)" clip-rule="nonzero">
<path style="fill:none;stroke-width:0.3985;stroke-linecap:butt;stroke-linejoin:miter;stroke:rgb(0%,0%,0%);stroke-opacity:1;stroke-miterlimit:10;" d="M 0.00021875 0.00165625 L 15.590063 0.00165625 M 41.101781 0.00165625 L 56.695531 0.00165625 " transform="matrix(1,0,0,-1,0.199,13.154)"/>
</g>
<g clip-path="url(#clip2)" clip-rule="nonzero">
<path style="fill:none;stroke-width:0.797;stroke-linecap:butt;stroke-linejoin:miter;stroke:rgb(0%,0%,0%);stroke-opacity:1;stroke-miterlimit:10;" d="M 23.246312 -6.37725 L 31.984594 10.013375 " transform="matrix(1,0,0,-1,0.199,13.154)"/>
</g>
<path style=" stroke:none;fill-rule:nonzero;fill:rgb(0%,0%,0%);fill-opacity:1;" d="M 33.648438 0.398438 C 32.808594 1.417969 31.257812 3.230469 29.496094 4.054688 C 31.363281 3.582031 32.277344 4.070312 32.925781 5.882812 C 32.628906 3.964844 33.265625 1.664062 33.648438 0.398438 Z M 33.648438 0.398438 "/>
<path style="fill:none;stroke-width:0.797;stroke-linecap:butt;stroke-linejoin:bevel;stroke:rgb(0%,0%,0%);stroke-opacity:1;stroke-miterlimit:10;" d="M 15.191625 -0.1585 C 15.191625 3.364937 16.941625 6.220406 19.097875 6.220406 C 21.258031 6.220406 23.004125 3.364937 23.004125 -0.1585 C 23.004125 -1.920219 22.289281 -3.349906 21.410375 -3.349906 C 20.531469 -3.349906 19.816625 -1.920219 19.816625 -0.1585 C 19.816625 3.364937 21.566625 6.220406 23.722875 6.220406 C 25.879125 6.220406 27.629125 3.364937 27.629125 -0.1585 C 27.629125 -1.920219 26.914281 -3.349906 26.035375 -3.349906 C 25.152562 -3.349906 24.441625 -1.920219 24.441625 -0.1585 C 24.441625 3.364937 26.187719 6.220406 28.347875 6.220406 C 30.504125 6.220406 32.254125 3.364937 32.254125 -0.1585 C 32.254125 -1.920219 31.539281 -3.349906 30.660375 -3.349906 C 29.777562 -3.349906 29.062719 -1.920219 29.062719 -0.1585 C 29.062719 3.364937 30.812719 6.220406 32.968969 6.220406 C 35.129125 6.220406 36.879125 3.364937 36.879125 -0.1585 C 36.879125 -1.920219 36.164281 -3.349906 35.281469 -3.349906 C 34.402563 -3.349906 33.687719 -1.920219 33.687719 -0.1585 C 33.687719 3.364937 35.437719 6.220406 37.593969 6.220406 C 39.754125 6.220406 41.500219 3.364937 41.500219 -0.1585 " transform="matrix(1,0,0,-1,0.199,13.154)"/>
</g>
</svg>
