<?xml version="1.0" encoding="UTF-8"?>
<svg xmlns="http://www.w3.org/2000/svg" xmlns:xlink="http://www.w3.org/1999/xlink" width="57.091pt" height="10.364pt" viewBox="0 0 57.091 10.364" version="1.1">
<defs>
<clipPath id="clip1">
  <path d="M 0 6 L 57.089844 6 L 57.089844 7 L 0 7 Z M 0 6 "/>
</clipPath>
<clipPath id="clip2">
  <path d="M 14 0 L 43 0 L 43 10.363281 L 14 10.363281 Z M 14 0 "/>
</clipPath>
</defs>
<g id="surface1">
<g clip-path="url(#clip1)" clip-rule="nonzero">
<path style="fill:none;stroke-width:0.3985;stroke-linecap:butt;stroke-linejoin:miter;stroke:rgb(0%,0%,0%);stroke-opacity:1;stroke-miterlimit:10;" d="M 0.00021875 -0.0001875 L 15.590063 -0.0001875 M 41.101781 -0.0001875 L 56.695531 -0.0001875 " transform="matrix(1,0,0,-1,0.199,6.617)"/>
</g>
<g clip-path="url(#clip2)" clip-rule="nonzero">
<path style="fill:none;stroke-width:0.797;stroke-linecap:butt;stroke-linejoin:bevel;stroke:rgb(0%,0%,0%);stroke-opacity:1;stroke-miterlimit:10;" d="M 15.191625 -0.160344 C 15.191625 3.363094 16.941625 6.218563 19.097875 6.218563 C 21.258031 6.218563 23.004125 3.363094 23.004125 -0.160344 C 23.004125 -1.922062 22.289281 -3.347844 21.410375 -3.347844 C 20.531469 -3.347844 19.816625 -1.922062 19.816625 -0.160344 C 19.816625 3.363094 21.566625 6.218563 23.722875 6.218563 C 25.879125 6.218563 27.629125 3.363094 27.629125 -0.160344 C 27.629125 -1.922062 26.914281 -3.347844 26.035375 -3.347844 C 25.152562 -3.347844 24.441625 -1.922062 24.441625 -0.160344 C 24.441625 3.363094 26.187719 6.218563 28.347875 6.218563 C 30.504125 6.218563 32.254125 3.363094 32.254125 -0.160344 C 32.254125 -1.922062 31.539281 -3.347844 30.660375 -3.347844 C 29.777562 -3.347844 29.062719 -1.922062 29.062719 -0.160344 C 29.062719 3.363094 30.812719 6.218563 32.968969 6.218563 C 35.129125 6.218563 36.879125 3.363094 36.879125 -0.160344 C 36.879125 -1.922062 36.164281 -3.347844 35.281469 -3.347844 C 34.402563 -3.347844 33.687719 -1.922062 33.687719 -0.160344 C 33.687719 3.363094 35.437719 6.218563 37.593969 6.218563 C 39.754125 6.218563 41.500219 3.363094 41.500219 -0.160344 " transform="matrix(1,0,0,-1,0.199,6.617)"/>
</g>
</g>
</svg>
