<?xml version="1.0" encoding="UTF-8"?>
<svg xmlns="http://www.w3.org/2000/svg" xmlns:xlink="http://www.w3.org/1999/xlink" width="57.091pt" height="26.309pt" viewBox="0 0 57.091 26.309" version="1.1">
<defs>
<clipPath id="clip1">
  <path d="M 0 12 L 57.089844 12 L 57.089844 14 L 0 14 Z M 0 12 "/>
</clipPath>
<clipPath id="clip2">
  <path d="M 4 0 L 53 0 L 53 26.308594 L 4 26.308594 Z M 4 0 "/>
</clipPath>
<clipPath id="clip3">
  <path d="M 14 0 L 44 0 L 44 26.308594 L 14 26.308594 Z M 14 0 "/>
</clipPath>
</defs>
<g id="surface1">
<g clip-path="url(#clip1)" clip-rule="nonzero">
<path style="fill:none;stroke-width:0.3985;stroke-linecap:butt;stroke-linejoin:miter;stroke:rgb(0%,0%,0%);stroke-opacity:1;stroke-miterlimit:10;" d="M 56.695531 0.00165625 L 41.101781 0.00165625 M 15.590063 0.00165625 L 0.00021875 0.00165625 " transform="matrix(1,0,0,-1,0.199,13.154)"/>
</g>
<g clip-path="url(#clip2)" clip-rule="nonzero">
<path style="fill:none;stroke-width:0.797;stroke-linecap:butt;stroke-linejoin:miter;stroke:rgb(0%,0%,0%);stroke-opacity:1;stroke-miterlimit:10;" d="M 28.347875 -12.756156 C 35.390844 -12.756156 41.101781 -7.045219 41.101781 0.00165625 C 41.101781 7.044625 35.390844 12.755562 28.347875 12.755562 C 21.301 12.755562 15.590063 7.044625 15.590063 0.00165625 C 15.590063 -7.045219 21.301 -12.756156 28.347875 -12.756156 Z M 28.347875 -12.756156 " transform="matrix(1,0,0,-1,0.199,13.154)"/>
</g>
<g clip-path="url(#clip3)" clip-rule="nonzero">
<path style="fill:none;stroke-width:0.797;stroke-linecap:butt;stroke-linejoin:miter;stroke:rgb(0%,0%,0%);stroke-opacity:1;stroke-miterlimit:10;" d="M 28.347875 6.376656 C 29.980687 5.337594 31.535375 4.345406 31.535375 3.189156 C 31.535375 2.032906 29.980687 1.040719 28.347875 0.00165625 C 26.715062 -1.041313 25.156469 -2.0335 25.156469 -3.18975 C 25.156469 -4.342094 26.715062 -5.338188 28.347875 -6.37725 " transform="matrix(1,0,0,-1,0.199,13.154)"/>
</g>
</g>
</svg>
